<svg id="图层_1" data-name="图层 1" xmlns="http://www.w3.org/2000/svg" viewBox="0 0 29.87 25.36"><defs><style>.cls-1{fill:#4276bb;}</style></defs><title>@32px</title><path class="cls-1" d="M16,24.65c.21.73,1.2.89,1.83,1a9.22,9.22,0,0,0,5.36-1.46,17.28,17.28,0,0,0,5-4.51A13.23,13.23,0,0,0,31,12.31a9.1,9.1,0,0,0-.75-3.92,8.54,8.54,0,0,0-7.34-5.06,7.57,7.57,0,0,0-6.4,2.75,2,2,0,0,1-.21.28,1.83,1.83,0,0,0-.2-.26,7.51,7.51,0,0,0-6-2.58c-4.4.11-7.6,3.5-8.64,7.6a10.59,10.59,0,0,0-.23,1.12C.4,17.92,3.58,23.79,8.43,26.68a14.18,14.18,0,0,0,6.62,2,19.71,19.71,0,0,0,9.57-2.42c2.31-1.2,4.83-3,5.74-4.5a36.7,36.7,0,0,1-6.1,4,20,20,0,0,1-6.86,2.1,11.13,11.13,0,0,1-8.66-3,13.84,13.84,0,0,1-3-4.17,15.49,15.49,0,0,1-1.4-8.48C4.74,9.4,6,6.72,8.87,6c2.73-.73,5.53.73,7.34,2.7l.15.16.14-.17a8.74,8.74,0,0,1,1.88-1.71c3.9-2.64,8.22-1.39,9.69,3.15,1.11,3.42-.3,7-2.5,9.61a12.59,12.59,0,0,1-3.24,2.8c-.48.27-1.65.83-2.18.41-.33-.26-.28-.84-.22-1.2.64-3.56,1.21-7.13,1.84-10.69.28-1.54-.91-1.56-2-1.66-5.62-.53-9.49.76-10.61,6.91a11.85,11.85,0,0,0,.39,6.52,3.75,3.75,0,0,0,2.93,2.52,5,5,0,0,0,3.49-1.08A1.24,1.24,0,0,0,16,24.65Zm-.06-4.24c-.37.49-1.28,1.45-2,1.26-1-.27-.75-2.9-.66-3.6.42-3.55.57-5.67,4.58-5.87-.35,2.26-.79,4.56-1.26,6.79A3.81,3.81,0,0,1,15.91,20.41Z" transform="translate(-1.13 -3.32)"/></svg>