<svg xmlns:ev="http://www.w3.org/2001/xml-events" ed:name="页面-1" xmlns="http://www.w3.org/2000/svg" ed:vSpacing="30" viewBox="0 0 750 1150" width="750" id="page100" xmlns:ed="https://www.edrawsoft.cn/xml/2017/SVGExtensions/" height="1150" ed:hSpacing="30" xmlns:xlink="http://www.w3.org/1999/xlink"><style type="text/css"><![CDATA[
g[ed\:togtopicid],g[ed\:hyperlink],g[ed\:comment],g[ed\:note] {cursor:pointer;}
g[id] {-moz-user-select: none;-ms-user-select: none;user-select: none;}
svg text::selection,svg tspan::selection{background-color: #4285f4;color: #ffffff;fill: #ffffff;}
.st9 {fill:#000000;font-family:Microsoft YaHei;font-size:9pt}
.st12 {fill:#01928f;font-family:Microsoft YaHei;font-size:10.5pt}
.st13 {fill:#303030;font-family:Microsoft YaHei;font-size:9pt}
.st11 {fill:#5274e1;font-family:Microsoft YaHei;font-size:12pt;font-weight:bold}
.st14 {fill:#ff0000;font-family:Microsoft YaHei;font-size:9pt}
.st10 {fill:#ffffff;font-family:Microsoft YaHei;font-size:15pt;font-weight:bold}
]]></style><defs/><rect x="0" fill="#ffffff" width="750" height="1150" y="0"/><path stroke="#f96628" stroke-linejoin="round" stroke-width="2" fill="none" ed:type="summary" transform="matrix(1,0,0,1,586.3,538)" d="M0.1,0C6,0,5.9,22.3,5.9,22.3L5.9,157.5C5.9,157.5,6.9,176.6,12,176.6C6.9,177.4,5.9,195.7,5.9,195.7L5.9,330.9C5.9,330.9,5.8,353.3,0,353.3" id="213" ed:idlist="168,205,172,174,176,178,182,184,186,170,212,188,192,194,196,190,200,203" ed:parentid="168,170"/><path stroke="#f96628" stroke-linejoin="round" stroke-width="2" fill="none" ed:type="summary" transform="matrix(1,0,0,1,397.86,99.75)" d="M0.1,0C6,0,5.9,1.2,5.9,1.2L5.9,8.7C5.9,8.7,6.9,9.8,12,9.8C6.9,9.8,5.9,10.8,5.9,10.8L5.9,18.3C5.9,18.3,5.8,19.5,0,19.5" id="120" ed:idlist="116" ed:parentid="116"/><path stroke="#f96628" stroke-linejoin="round" stroke-width="2" fill="none" ed:type="summary" transform="matrix(1,0,0,1,433,854.75)" d="M0.1,0C6,0,5.9,1.2,5.9,1.2L5.9,8.7C5.9,8.7,6.9,9.8,12,9.8C6.9,9.8,5.9,10.8,5.9,10.8L5.9,18.3C5.9,18.3,5.8,19.5,0,19.5" id="202" ed:idlist="200" ed:parentid="200"/><path stroke="#5274e1" stroke-linejoin="round" ed:tosuperid="102" stroke-width="3" fill="none" stroke-linecap="round" transform="matrix(1,0,0,1,83,358.39)" d="M-22,225.5L9.5,225.5L9.5,-219.5C9.5,-222.8,12.2,-225.5,15.5,-225.5L41,-225.5" id="103" ed:parentid="101"/><path stroke="#5274e1" stroke-linejoin="round" ed:tosuperid="104" stroke-width="3" fill="none" stroke-linecap="round" transform="matrix(1,0,0,1,83,503.17)" d="M-22,80.7L9.5,80.7L9.5,-74.7C9.5,-78,12.2,-80.7,15.5,-80.7L41,-80.7" id="105" ed:parentid="101"/><path stroke="#5274e1" stroke-linejoin="round" ed:tosuperid="106" stroke-width="3" fill="none" stroke-linecap="round" transform="matrix(1,0,0,1,83,669.39)" d="M-22,-85.5L9.5,-85.5L9.5,79.5C9.5,82.9,12.2,85.5,15.5,85.5L41,85.5" id="107" ed:parentid="101"/><path stroke="#5274e1" stroke-linejoin="round" ed:tosuperid="108" fill="none" stroke-linecap="round" transform="matrix(1,0,0,1,192.5,105.91)" d="M-13.5,27L0,27L0,-21C0,-24.3,2.7,-27,6,-27L13.5,-27" id="109" ed:parentid="102"/><path stroke="#5274e1" stroke-linejoin="round" ed:tosuperid="110" fill="none" stroke-linecap="round" transform="matrix(1,0,0,1,254.5,58.69)" d="M-13.5,20.2L0,20.2L0,-14.2C0,-17.5,2.7,-20.2,6,-20.2L13.5,-20.2" id="111" ed:parentid="108"/><path stroke="#5274e1" stroke-linejoin="round" ed:tosuperid="112" fill="none" stroke-linecap="round" transform="matrix(1,0,0,1,254.5,71.69)" d="M0,7.2L0,-1.2C0,-4.5,2.7,-7.2,6,-7.2L13.5,-7.2" id="113" ed:parentid="108"/><path stroke="#5274e1" stroke-linejoin="round" ed:tosuperid="114" fill="none" stroke-linecap="round" transform="matrix(1,0,0,1,254.5,84.69)" d="M0,-5.8L0,-0.2C0,3.1,2.7,5.8,6,5.8L13.5,5.8" id="115" ed:parentid="108"/><path stroke="#5274e1" stroke-linejoin="round" ed:tosuperid="116" fill="none" stroke-linecap="round" transform="matrix(1,0,0,1,254.5,99.06)" d="M0,-20.2L0,14.2C0,17.5,2.7,20.2,6,20.2L13.5,20.2" id="117" ed:parentid="108"/><path stroke="#5274e1" stroke-linejoin="round" ed:tosuperid="122" fill="none" stroke-linecap="round" transform="matrix(1,0,0,1,192.5,159.97)" d="M0,-27L0,21C0,24.3,2.7,27,6,27L13.5,27" id="123" ed:parentid="102"/><path stroke="#5274e1" stroke-linejoin="round" ed:tosuperid="125" fill="none" stroke-linecap="round" transform="matrix(1,0,0,1,268.5,167.5)" d="M-13.5,19.5L0,19.5L0,-13.5C0,-16.8,2.7,-19.5,6,-19.5L13.5,-19.5" id="126" ed:parentid="122"/><path stroke="#5274e1" stroke-linejoin="round" ed:tosuperid="127" fill="none" stroke-linecap="round" transform="matrix(1,0,0,1,268.5,180.5)" d="M0,6.5L0,-0.5C0,-3.8,2.7,-6.5,6,-6.5L13.5,-6.5" id="128" ed:parentid="122"/><path stroke="#5274e1" stroke-linejoin="round" ed:tosuperid="129" fill="none" stroke-linecap="round" transform="matrix(1,0,0,1,268.5,193.5)" d="M0,-6.5L0,0.5C0,3.8,2.7,6.5,6,6.5L13.5,6.5" id="130" ed:parentid="122"/><path stroke="#5274e1" stroke-linejoin="round" ed:tosuperid="131" fill="none" stroke-linecap="round" transform="matrix(1,0,0,1,268.5,206.5)" d="M0,-19.5L0,13.5C0,16.8,2.7,19.5,6,19.5L13.5,19.5" id="132" ed:parentid="122"/><path stroke="#5274e1" stroke-linejoin="round" ed:tosuperid="133" fill="none" stroke-linecap="round" transform="matrix(1,0,0,1,361.5,226)" d="M-13.5,0L0,0C0,0,2.7,0,6,0L13.5,0" id="134" ed:parentid="131"/><path stroke="#5274e1" stroke-linejoin="round" ed:tosuperid="135" fill="none" stroke-linecap="round" transform="matrix(1,0,0,1,361.5,148)" d="M-13.5,0L0,0C0,0,2.7,0,6,0L13.5,0" id="136" ed:parentid="125"/><path stroke="#5274e1" stroke-linejoin="round" ed:tosuperid="137" fill="none" stroke-linecap="round" transform="matrix(1,0,0,1,361.5,174)" d="M-13.5,0L0,0C0,0,2.7,0,6,0L13.5,0" id="138" ed:parentid="127"/><path stroke="#5274e1" stroke-linejoin="round" ed:tosuperid="139" fill="none" stroke-linecap="round" transform="matrix(1,0,0,1,361.5,200)" d="M-13.5,0L0,0C0,0,2.7,0,6,0L13.5,0" id="140" ed:parentid="129"/><path stroke="#5274e1" stroke-linejoin="round" ed:tosuperid="141" fill="none" stroke-linecap="round" transform="matrix(1,0,0,1,192.5,396.5)" d="M-13.5,26L0,26L0,-20C0,-23.3,2.7,-26,6,-26L13.5,-26" id="142" ed:parentid="104"/><path stroke="#5274e1" stroke-linejoin="round" ed:tosuperid="143" fill="none" stroke-linecap="round" transform="matrix(1,0,0,1,254.5,344.5)" d="M-13.5,26L0,26L0,-20C0,-23.3,2.7,-26,6,-26L13.5,-26" id="144" ed:parentid="141"/><path stroke="#5274e1" stroke-linejoin="round" ed:tosuperid="145" fill="none" stroke-linecap="round" transform="matrix(1,0,0,1,254.5,357.5)" d="M0,13L0,-7C0,-10.3,2.7,-13,6,-13L13.5,-13" id="146" ed:parentid="141"/><path stroke="#5274e1" stroke-linejoin="round" ed:tosuperid="147" fill="none" stroke-linecap="round" transform="matrix(1,0,0,1,254.5,370.5)" d="M0,0C0,0,2.7,0,6,0L13.5,0" id="148" ed:parentid="141"/><path stroke="#5274e1" stroke-linejoin="round" ed:tosuperid="149" fill="none" stroke-linecap="round" transform="matrix(1,0,0,1,254.5,383.5)" d="M0,-13L0,7C0,10.3,2.7,13,6,13L13.5,13" id="150" ed:parentid="141"/><path stroke="#5274e1" stroke-linejoin="round" ed:tosuperid="151" fill="none" stroke-linecap="round" transform="matrix(1,0,0,1,254.5,396.5)" d="M0,-26L0,20C0,23.3,2.7,26,6,26L13.5,26" id="152" ed:parentid="141"/><path stroke="#5274e1" stroke-linejoin="round" ed:tosuperid="154" fill="none" stroke-linecap="round" transform="matrix(1,0,0,1,192.5,448.5)" d="M0,-26L0,20C0,23.3,2.7,26,6,26L13.5,26" id="155" ed:parentid="104"/><path stroke="#5274e1" stroke-linejoin="round" ed:tosuperid="156" fill="none" stroke-linecap="round" transform="matrix(1,0,0,1,268.5,461.5)" d="M-13.5,13L0,13L0,-7C0,-10.3,2.7,-13,6,-13L13.5,-13" id="157" ed:parentid="154"/><path stroke="#5274e1" stroke-linejoin="round" ed:tosuperid="158" fill="none" stroke-linecap="round" transform="matrix(1,0,0,1,268.5,474.5)" d="M0,0C0,0,2.7,0,6,0L13.5,0" id="159" ed:parentid="154"/><path stroke="#5274e1" stroke-linejoin="round" ed:tosuperid="160" fill="none" stroke-linecap="round" transform="matrix(1,0,0,1,268.5,487.5)" d="M0,-13L0,7C0,10.3,2.7,13,6,13L13.5,13" id="161" ed:parentid="154"/><path stroke="#5274e1" stroke-linejoin="round" ed:tosuperid="162" fill="none" stroke-linecap="round" transform="matrix(1,0,0,1,361.5,448.5)" d="M-13.5,0L0,0C0,0,2.7,0,6,0L13.5,0" id="163" ed:parentid="156"/><path stroke="#5274e1" stroke-linejoin="round" ed:tosuperid="164" fill="none" stroke-linecap="round" transform="matrix(1,0,0,1,361.5,474.5)" d="M-13.5,0L0,0C0,0,2.7,0,6,0L13.5,0" id="165" ed:parentid="158"/><path stroke="#5274e1" stroke-linejoin="round" ed:tosuperid="166" fill="none" stroke-linecap="round" transform="matrix(1,0,0,1,361.5,500.5)" d="M-13.5,0L0,0C0,0,2.7,0,6,0L13.5,0" id="167" ed:parentid="160"/><path stroke="#5274e1" stroke-linejoin="round" ed:tosuperid="168" fill="none" stroke-linecap="round" transform="matrix(1,0,0,1,192.5,710.97)" d="M-13.5,44L0,44L0,-38C0,-41.3,2.7,-44,6,-44L13.5,-44" id="169" ed:parentid="106"/><path stroke="#5274e1" stroke-linejoin="round" ed:tosuperid="170" fill="none" stroke-linecap="round" transform="matrix(1,0,0,1,192.5,798.91)" d="M0,-44L0,38C0,41.3,2.7,44,6,44L13.5,44" id="171" ed:parentid="106"/><path stroke="#5274e1" stroke-linejoin="round" ed:tosuperid="172" fill="none" stroke-linecap="round" transform="matrix(1,0,0,1,254.5,648.75)" d="M-13.5,18.3L0,18.3L0,-12.3C0,-15.6,2.7,-18.3,6,-18.3L13.5,-18.3" id="173" ed:parentid="168"/><path stroke="#5274e1" stroke-linejoin="round" ed:tosuperid="174" fill="none" stroke-linecap="round" transform="matrix(1,0,0,1,312.5,613.5)" d="M-13.5,17L0,17L0,-11C0,-14.3,2.7,-17,6,-17L13.5,-17" id="175" ed:parentid="172"/><path stroke="#5274e1" stroke-linejoin="round" ed:tosuperid="176" fill="none" stroke-linecap="round" transform="matrix(1,0,0,1,312.5,634.5)" d="M0,-4L0,-2C0,1.3,2.7,4,6,4L13.5,4" id="177" ed:parentid="172"/><path stroke="#5274e1" stroke-linejoin="round" ed:tosuperid="178" fill="none" stroke-linecap="round" transform="matrix(1,0,0,1,312.5,647.5)" d="M0,-17L0,11C0,14.3,2.7,17,6,17L13.5,17" id="179" ed:parentid="172"/><path stroke="#5274e1" stroke-linejoin="round" ed:tosuperid="182" fill="none" stroke-linecap="round" transform="matrix(1,0,0,1,254.5,685.25)" d="M0,-18.3L0,12.3C0,15.6,2.7,18.3,6,18.3L13.5,18.3" id="183" ed:parentid="168"/><path stroke="#5274e1" stroke-linejoin="round" ed:tosuperid="184" fill="none" stroke-linecap="round" transform="matrix(1,0,0,1,312.5,697)" d="M-13.5,6.5L0,6.5L0,-0.5C0,-3.8,2.7,-6.5,6,-6.5L13.5,-6.5" id="185" ed:parentid="182"/><path stroke="#5274e1" stroke-linejoin="round" ed:tosuperid="186" fill="none" stroke-linecap="round" transform="matrix(1,0,0,1,312.5,710)" d="M0,-6.5L0,0.5C0,3.8,2.7,6.5,6,6.5L13.5,6.5" id="187" ed:parentid="182"/><path stroke="#5274e1" stroke-linejoin="round" ed:tosuperid="188" fill="none" stroke-linecap="round" transform="matrix(1,0,0,1,254.5,827.19)" d="M-13.5,15.7L0,15.7L0,-9.7C0,-13,2.7,-15.7,6,-15.7L13.5,-15.7" id="189" ed:parentid="170"/><path stroke="#5274e1" stroke-linejoin="round" ed:tosuperid="190" fill="none" stroke-linecap="round" transform="matrix(1,0,0,1,254.5,858.56)" d="M0,-15.7L0,9.7C0,13,2.7,15.7,6,15.7L13.5,15.7" id="191" ed:parentid="170"/><path stroke="#5274e1" stroke-linejoin="round" ed:tosuperid="192" fill="none" stroke-linecap="round" transform="matrix(1,0,0,1,312.5,798.5)" d="M-13.5,13L0,13L0,-7C0,-10.3,2.7,-13,6,-13L13.5,-13" id="193" ed:parentid="188"/><path stroke="#5274e1" stroke-linejoin="round" ed:tosuperid="194" fill="none" stroke-linecap="round" transform="matrix(1,0,0,1,312.5,811.5)" d="M0,0C0,0,2.7,0,6,0L13.5,0" id="195" ed:parentid="188"/><path stroke="#5274e1" stroke-linejoin="round" ed:tosuperid="196" fill="none" stroke-linecap="round" transform="matrix(1,0,0,1,312.5,824.5)" d="M0,-13L0,7C0,10.3,2.7,13,6,13L13.5,13" id="197" ed:parentid="188"/><path stroke="#5274e1" stroke-linejoin="round" ed:tosuperid="200" fill="none" stroke-linecap="round" transform="matrix(1,0,0,1,312.5,874.25)" d="M-13.5,0L0,0C0,0,2.7,0,6,0L13.5,0" id="201" ed:parentid="190"/><path stroke="#5274e1" stroke-linejoin="round" ed:tosuperid="215" stroke-width="3" fill="none" stroke-linecap="round" transform="matrix(1,0,0,1,83,809.3)" d="M-22,-225.5L9.5,-225.5L9.5,219.5C9.5,222.8,12.2,225.5,15.5,225.5L41,225.5" id="216" ed:parentid="101"/><path stroke="#5274e1" stroke-linejoin="round" ed:tosuperid="217" fill="none" stroke-linecap="round" transform="matrix(1,0,0,1,192.5,1008.75)" d="M-13.5,26L0,26L0,-20C0,-23.3,2.7,-26,6,-26L13.5,-26" id="218" ed:parentid="215"/><path stroke="#5274e1" stroke-linejoin="round" ed:tosuperid="219" fill="none" stroke-linecap="round" transform="matrix(1,0,0,1,254.5,963.25)" d="M-13.5,19.5L0,19.5L0,-13.5C0,-16.8,2.7,-19.5,6,-19.5L13.5,-19.5" id="220" ed:parentid="217"/><path stroke="#5274e1" stroke-linejoin="round" ed:tosuperid="221" fill="none" stroke-linecap="round" transform="matrix(1,0,0,1,254.5,976.25)" d="M0,6.5L0,-0.5C0,-3.8,2.7,-6.5,6,-6.5L13.5,-6.5" id="222" ed:parentid="217"/><path stroke="#5274e1" stroke-linejoin="round" ed:tosuperid="223" fill="none" stroke-linecap="round" transform="matrix(1,0,0,1,254.5,989.25)" d="M0,-6.5L0,0.5C0,3.8,2.7,6.5,6,6.5L13.5,6.5" id="224" ed:parentid="217"/><path stroke="#5274e1" stroke-linejoin="round" ed:tosuperid="225" fill="none" stroke-linecap="round" transform="matrix(1,0,0,1,254.5,1002.25)" d="M0,-19.5L0,13.5C0,16.8,2.7,19.5,6,19.5L13.5,19.5" id="226" ed:parentid="217"/><path stroke="#5274e1" stroke-linejoin="round" ed:tosuperid="227" fill="none" stroke-linecap="round" transform="matrix(1,0,0,1,192.5,1060.75)" d="M0,-26L0,20C0,23.3,2.7,26,6,26L13.5,26" id="228" ed:parentid="215"/><path stroke="#5274e1" stroke-linejoin="round" ed:tosuperid="229" fill="none" stroke-linecap="round" transform="matrix(1,0,0,1,268.5,1067.25)" d="M-13.5,19.5L0,19.5L0,-13.5C0,-16.8,2.7,-19.5,6,-19.5L13.5,-19.5" id="230" ed:parentid="227"/><path stroke="#5274e1" stroke-linejoin="round" ed:tosuperid="231" fill="none" stroke-linecap="round" transform="matrix(1,0,0,1,268.5,1080.25)" d="M0,6.5L0,-0.5C0,-3.8,2.7,-6.5,6,-6.5L13.5,-6.5" id="232" ed:parentid="227"/><path stroke="#5274e1" stroke-linejoin="round" ed:tosuperid="233" fill="none" stroke-linecap="round" transform="matrix(1,0,0,1,268.5,1093.25)" d="M0,-6.5L0,0.5C0,3.8,2.7,6.5,6,6.5L13.5,6.5" id="234" ed:parentid="227"/><path stroke="#5274e1" stroke-linejoin="round" ed:tosuperid="235" fill="none" stroke-linecap="round" transform="matrix(1,0,0,1,268.5,1106.25)" d="M0,-19.5L0,13.5C0,16.8,2.7,19.5,6,19.5L13.5,19.5" id="236" ed:parentid="227"/><path stroke="#5274e1" stroke-linejoin="round" ed:tosuperid="237" fill="none" stroke-linecap="round" transform="matrix(1,0,0,1,430.36,943.75)" d="M-13.5,0L0,0C0,0,2.7,0,6,0L13.5,0" id="238" ed:parentid="219"/><g ed:height="31" transform="matrix(1,0,0,1,206,260)" ed:topictype="callout" id="153" ed:width="237.75375" ed:parentid="141" ed:layout="rightmap"><path stroke="#00af54" stroke-linejoin="round" stroke-width="2" fill="#ffffff" d="M7.8,0L230,0L237.8,7.8L237.8,23.3L230,31L110.1,31L35,94.1L95.4,31L7.8,31L0,23.3L0,7.8L7.8,0z"/><text class="st9"><tspan x="13" textLength="209" style="white-space:pre" y="18.5">就绪态/阻塞态/运行态 -> 终止态 -> 无</tspan></text></g><g ed:height="31" transform="matrix(1,0,0,1,206,538)" ed:topictype="callout" id="205" ed:width="122.331875" ed:parentid="168" ed:layout="rightmap"><path stroke="#00af54" stroke-linejoin="round" stroke-width="2" fill="#ffffff" d="M7.8,0L114.6,0L122.3,7.8L122.3,23.3L114.6,31L60.7,31L25.6,108L50,31L7.8,31L0,23.3L0,7.8L7.8,0z"/><text class="st9"><tspan x="13" textLength="93" style="white-space:pre" y="18.5">运行态 -> 阻塞态</tspan></text></g><g ed:height="31" transform="matrix(1,0,0,1,206,727)" ed:topictype="callout" id="212" ed:width="122.331875" ed:parentid="170" ed:layout="rightmap"><path stroke="#00af54" stroke-linejoin="round" stroke-width="2" fill="#ffffff" d="M7.8,0L114.6,0L122.3,7.8L122.3,23.3L114.6,31L60.1,31L26.6,94.9L49.1,31L7.8,31L0,23.3L0,7.8L7.8,0z"/><text class="st9"><tspan x="13" textLength="93" style="white-space:pre" y="18.5">阻塞态 -> 就绪态</tspan></text></g><g ed:height="120" transform="matrix(1,0,0,1,23,523.84)" ed:topictype="mainidea" id="101" ed:width="38" ed:layout="map"><path stroke="#5274e1" stroke-linejoin="round" stroke-width="3" fill="#00b050" d="M4,0L34,0C36.7,0,38,1.3,38,4L38,116C38,118.7,36.7,120,34,120L4,120C1.3,120,0,118.7,0,116L0,4C0,1.3,1.3,0,4,0z"/><text class="st10"><tspan x="9" textLength="20" style="white-space:pre" y="26">进</tspan><tspan x="9" textLength="20" style="white-space:pre" y="53">程</tspan><tspan x="9" textLength="20" style="white-space:pre" y="80">控</tspan><tspan x="9" textLength="20" style="white-space:pre" y="107">制</tspan></text></g><g ed:height="59" transform="matrix(1,0,0,1,124,103.44)" id="102" ed:width="55" ed:parentid="101" ed:layout="rightmap"><path stroke="#92a7ff" stroke-linejoin="round" stroke-width="2" fill="#ffffff" d="M4,0L51,0C53.7,0,55,1.3,55,4L55,55C55,57.7,53.7,59,51,59L4,59C1.3,59,0,57.7,0,55L0,4C0,1.3,1.3,0,4,0z"/><text class="st11"><tspan x="18" textLength="16" style="white-space:pre" y="23.5">创</tspan><tspan x="18" textLength="16" style="white-space:pre" y="45.5">建</tspan></text></g><g ed:height="59" transform="matrix(1,0,0,1,124,393)" id="104" ed:width="55" ed:parentid="101" ed:layout="rightmap"><path stroke="#92a7ff" stroke-linejoin="round" stroke-width="2" fill="#ffffff" d="M4,0L51,0C53.7,0,55,1.3,55,4L55,55C55,57.7,53.7,59,51,59L4,59C1.3,59,0,57.7,0,55L0,4C0,1.3,1.3,0,4,0z"/><text class="st11"><tspan x="18" textLength="16" style="white-space:pre" y="23.5">终</tspan><tspan x="18" textLength="16" style="white-space:pre" y="45.5">止</tspan></text></g><g ed:height="125" transform="matrix(1,0,0,1,124,692.44)" id="106" ed:width="55" ed:parentid="101" ed:layout="rightmap"><path stroke="#92a7ff" stroke-linejoin="round" stroke-width="2" fill="#ffffff" d="M4,0L51,0C53.7,0,55,1.3,55,4L55,121C55,123.7,53.7,125,51,125L4,125C1.3,125,0,123.7,0,121L0,4C0,1.3,1.3,0,4,0z"/><text class="st11"><tspan x="18" textLength="16" style="white-space:pre" y="23.5">阻</tspan><tspan x="18" textLength="16" style="white-space:pre" y="45.5">塞</tspan><tspan x="18" textLength="16" style="white-space:pre" y="67.5">与</tspan><tspan x="18" textLength="16" style="white-space:pre" y="89.5">唤</tspan><tspan x="18" textLength="16" style="white-space:pre" y="111.5">醒</tspan></text></g><g ed:height="80" transform="matrix(1,0,0,1,206,38.88)" id="108" ed:width="35" ed:parentid="102" ed:layout="rightmap"><path stroke="#d25948" stroke-linejoin="round" fill="#ffffff" d="M0,0L35,0L35,80L0,80L0,0z"/><text class="st12"><tspan x="9" textLength="14" style="white-space:pre" y="15">创</tspan><tspan x="9" textLength="14" style="white-space:pre" y="34">建</tspan><tspan x="9" textLength="14" style="white-space:pre" y="53">原</tspan><tspan x="9" textLength="14" style="white-space:pre" y="72">语</tspan></text></g><g ed:height="19.5" transform="matrix(1,0,0,1,268,19)" id="110" ed:width="88.859375" ed:parentid="108" ed:layout="rightmap"><path fill="#ffffff" d="M0,0L88.9,0L88.9,19.5L0,19.5L0,0z"/><path stroke="#5274e1" stroke-linejoin="round" fill="none" d="M0,19.5L88.9,19.5"/><text class="st13"><tspan x="8" textLength="71" style="white-space:pre" y="12.65">申请空白PCB</tspan></text></g><g ed:height="19.5" transform="matrix(1,0,0,1,268,45)" id="112" ed:width="138" ed:parentid="108" ed:layout="rightmap"><path fill="#ffffff" d="M0,0L138,0L138,19.5L0,19.5L0,0z"/><path stroke="#5274e1" stroke-linejoin="round" fill="none" d="M0,19.5L138,19.5"/><text class="st13"><tspan x="8" textLength="120" style="white-space:pre" y="12.65">为新进程分配所需资源</tspan></text></g><g ed:height="19.5" transform="matrix(1,0,0,1,268,71)" id="114" ed:width="76.859375" ed:parentid="108" ed:layout="rightmap"><path fill="#ffffff" d="M0,0L76.9,0L76.9,19.5L0,19.5L0,0z"/><path stroke="#5274e1" stroke-linejoin="round" fill="none" d="M0,19.5L76.9,19.5"/><text class="st13"><tspan x="8" textLength="59" style="white-space:pre" y="12.65">初始化PCB</tspan></text></g><g ed:height="19.5" transform="matrix(1,0,0,1,268,99.75)" id="116" ed:width="124.859375" ed:parentid="108" ed:layout="rightmap"><path fill="#ffffff" d="M0,0L124.9,0L124.9,19.5L0,19.5L0,0z"/><path stroke="#5274e1" stroke-linejoin="round" fill="none" d="M0,19.5L124.9,19.5"/><text class="st13"><tspan x="8" textLength="107" style="white-space:pre" y="12.65">将PCB插入就绪队列</tspan></text></g><g ed:height="25" transform="matrix(1,0,0,1,418.86,97)" id="121" ed:width="118.331875" ed:parentid="120" ed:layout="rightmap"><path stroke="#ff0000" stroke-linejoin="round" stroke-width="2" fill="#ffffff" d="M6.3,0L112.1,0L118.3,6.3L118.3,18.8L112.1,25L6.3,25L0,18.8L0,6.3L6.3,0z"/><text class="st14"><tspan x="11" textLength="93" style="white-space:pre" y="15.5">创建态 -> 就绪态</tspan></text></g><g ed:height="80" transform="matrix(1,0,0,1,206,147)" id="122" ed:width="49" ed:parentid="102" ed:layout="rightmap"><path stroke="#d25948" stroke-linejoin="round" fill="#ffffff" d="M0,0L49,0L49,80L0,80L0,0z"/><text class="st12"><tspan x="9" textLength="28" style="white-space:pre" y="15">引起</tspan><tspan x="9" textLength="28" style="white-space:pre" y="34">进程</tspan><tspan x="9" textLength="28" style="white-space:pre" y="53">创建</tspan><tspan x="9" textLength="28" style="white-space:pre" y="72">事件</tspan></text></g><g ed:height="19.5" transform="matrix(1,0,0,1,282,128.5)" id="125" ed:width="66" ed:parentid="122" ed:layout="rightmap"><path fill="#ffffff" d="M0,0L66,0L66,19.5L0,19.5L0,0z"/><path stroke="#5274e1" stroke-linejoin="round" fill="none" d="M0,19.5L66,19.5"/><text class="st13"><tspan x="8" textLength="48" style="white-space:pre" y="12.65">用户登录</tspan></text></g><g ed:height="19.5" transform="matrix(1,0,0,1,282,154.5)" id="127" ed:width="66" ed:parentid="122" ed:layout="rightmap"><path fill="#ffffff" d="M0,0L66,0L66,19.5L0,19.5L0,0z"/><path stroke="#5274e1" stroke-linejoin="round" fill="none" d="M0,19.5L66,19.5"/><text class="st13"><tspan x="8" textLength="48" style="white-space:pre" y="12.65">作业调度</tspan></text></g><g ed:height="19.5" transform="matrix(1,0,0,1,282,180.5)" id="129" ed:width="66" ed:parentid="122" ed:layout="rightmap"><path fill="#ffffff" d="M0,0L66,0L66,19.5L0,19.5L0,0z"/><path stroke="#5274e1" stroke-linejoin="round" fill="none" d="M0,19.5L66,19.5"/><text class="st13"><tspan x="8" textLength="48" style="white-space:pre" y="12.65">提供服务</tspan></text></g><g ed:height="19.5" transform="matrix(1,0,0,1,282,206.5)" id="131" ed:width="66" ed:parentid="122" ed:layout="rightmap"><path fill="#ffffff" d="M0,0L66,0L66,19.5L0,19.5L0,0z"/><path stroke="#5274e1" stroke-linejoin="round" fill="none" d="M0,19.5L66,19.5"/><text class="st13"><tspan x="8" textLength="48" style="white-space:pre" y="12.65">应用请求</tspan></text></g><g ed:height="19.5" transform="matrix(1,0,0,1,375,206.5)" id="133" ed:width="186" ed:parentid="131" ed:layout="rightmap"><path fill="#ffffff" d="M0,0L186,0L186,19.5L0,19.5L0,0z"/><path stroke="#5274e1" stroke-linejoin="round" fill="none" d="M0,19.5L186,19.5"/><text class="st13"><tspan x="8" textLength="168" style="white-space:pre" y="12.65">用户程序主动请求创建子进程时</tspan></text></g><g ed:height="19.5" transform="matrix(1,0,0,1,375,128.5)" id="135" ed:width="174" ed:parentid="125" ed:layout="rightmap"><path fill="#ffffff" d="M0,0L174,0L174,19.5L0,19.5L0,0z"/><path stroke="#5274e1" stroke-linejoin="round" fill="none" d="M0,19.5L174,19.5"/><text class="st13"><tspan x="8" textLength="156" style="white-space:pre" y="12.65">分时系统中，用户登录成功时</tspan></text></g><g ed:height="19.5" transform="matrix(1,0,0,1,375,154.5)" id="137" ed:width="246" ed:parentid="127" ed:layout="rightmap"><path fill="#ffffff" d="M0,0L246,0L246,19.5L0,19.5L0,0z"/><path stroke="#5274e1" stroke-linejoin="round" fill="none" d="M0,19.5L246,19.5"/><text class="st13"><tspan x="8" textLength="228" style="white-space:pre" y="12.65">多道批处理系统中，有新的作业放入内存时</tspan></text></g><g ed:height="19.5" transform="matrix(1,0,0,1,375,180.5)" id="139" ed:width="186" ed:parentid="129" ed:layout="rightmap"><path fill="#ffffff" d="M0,0L186,0L186,19.5L0,19.5L0,0z"/><path stroke="#5274e1" stroke-linejoin="round" fill="none" d="M0,19.5L186,19.5"/><text class="st13"><tspan x="8" textLength="168" style="white-space:pre" y="12.65">用户向操作系统提出某些请求时</tspan></text></g><g ed:height="80" transform="matrix(1,0,0,1,206,330.5)" id="141" ed:width="35" ed:parentid="104" ed:layout="rightmap"><path stroke="#d25948" stroke-linejoin="round" fill="#ffffff" d="M0,0L35,0L35,80L0,80L0,0z"/><text class="st12"><tspan x="9" textLength="14" style="white-space:pre" y="15">撤</tspan><tspan x="9" textLength="14" style="white-space:pre" y="34">销</tspan><tspan x="9" textLength="14" style="white-space:pre" y="53">原</tspan><tspan x="9" textLength="14" style="white-space:pre" y="72">语</tspan></text></g><g ed:height="19.5" transform="matrix(1,0,0,1,268,299)" id="143" ed:width="195.71875" ed:parentid="141" ed:layout="rightmap"><path fill="#ffffff" d="M0,0L195.7,0L195.7,19.5L0,19.5L0,0z"/><path stroke="#5274e1" stroke-linejoin="round" fill="none" d="M0,19.5L195.7,19.5"/><text class="st13"><tspan x="8" textLength="178" style="white-space:pre" y="12.65">从PCB集合中找到终止进程的PCB</tspan></text></g><g ed:height="19.5" transform="matrix(1,0,0,1,268,325)" id="145" ed:width="318.59375" ed:parentid="141" ed:layout="rightmap"><path fill="#ffffff" d="M0,0L318.6,0L318.6,19.5L0,19.5L0,0z"/><path stroke="#5274e1" stroke-linejoin="round" fill="none" d="M0,19.5L318.6,19.5"/><text class="st13"><tspan x="8" textLength="301" style="white-space:pre" y="12.65">若进程正在运行，立即剥夺CPU，将CPU分配给其他进程</tspan></text></g><g ed:height="19.5" transform="matrix(1,0,0,1,268,351)" id="147" ed:width="114" ed:parentid="141" ed:layout="rightmap"><path fill="#ffffff" d="M0,0L114,0L114,19.5L0,19.5L0,0z"/><path stroke="#5274e1" stroke-linejoin="round" fill="none" d="M0,19.5L114,19.5"/><text class="st13"><tspan x="8" textLength="96" style="white-space:pre" y="12.65">终止其所有子进程</tspan></text></g><g ed:height="19.5" transform="matrix(1,0,0,1,268,377)" id="149" ed:width="246" ed:parentid="141" ed:layout="rightmap"><path fill="#ffffff" d="M0,0L246,0L246,19.5L0,19.5L0,0z"/><path stroke="#5274e1" stroke-linejoin="round" fill="none" d="M0,19.5L246,19.5"/><text class="st13"><tspan x="8" textLength="228" style="white-space:pre" y="12.65">将进程拥有的资源归还给父进程或操作系统</tspan></text></g><g ed:height="19.5" transform="matrix(1,0,0,1,268,403)" id="151" ed:width="64.859375" ed:parentid="141" ed:layout="rightmap"><path fill="#ffffff" d="M0,0L64.9,0L64.9,19.5L0,19.5L0,0z"/><path stroke="#5274e1" stroke-linejoin="round" fill="none" d="M0,19.5L64.9,19.5"/><text class="st13"><tspan x="8" textLength="47" style="white-space:pre" y="12.65">删除PCB</tspan></text></g><g ed:height="61" transform="matrix(1,0,0,1,206,444)" id="154" ed:width="49" ed:parentid="104" ed:layout="rightmap"><path stroke="#d25948" stroke-linejoin="round" fill="#ffffff" d="M0,0L49,0L49,61L0,61L0,0z"/><text class="st12"><tspan x="9" textLength="28" style="white-space:pre" y="15">引起</tspan><tspan x="9" textLength="28" style="white-space:pre" y="34">终止</tspan><tspan x="9" textLength="28" style="white-space:pre" y="53">事件</tspan></text></g><g ed:height="19.5" transform="matrix(1,0,0,1,282,429)" id="156" ed:width="66" ed:parentid="154" ed:layout="rightmap"><path fill="#ffffff" d="M0,0L66,0L66,19.5L0,19.5L0,0z"/><path stroke="#5274e1" stroke-linejoin="round" fill="none" d="M0,19.5L66,19.5"/><text class="st13"><tspan x="8" textLength="48" style="white-space:pre" y="12.65">正常结束</tspan></text></g><g ed:height="19.5" transform="matrix(1,0,0,1,282,455)" id="158" ed:width="66" ed:parentid="154" ed:layout="rightmap"><path fill="#ffffff" d="M0,0L66,0L66,19.5L0,19.5L0,0z"/><path stroke="#5274e1" stroke-linejoin="round" fill="none" d="M0,19.5L66,19.5"/><text class="st13"><tspan x="8" textLength="48" style="white-space:pre" y="12.65">异常结束</tspan></text></g><g ed:height="19.5" transform="matrix(1,0,0,1,282,481)" id="160" ed:width="66" ed:parentid="154" ed:layout="rightmap"><path fill="#ffffff" d="M0,0L66,0L66,19.5L0,19.5L0,0z"/><path stroke="#5274e1" stroke-linejoin="round" fill="none" d="M0,19.5L66,19.5"/><text class="st13"><tspan x="8" textLength="48" style="white-space:pre" y="12.65">外界干预</tspan></text></g><g ed:height="19.5" transform="matrix(1,0,0,1,375,429)" id="162" ed:width="166.53125" ed:parentid="156" ed:layout="rightmap"><path fill="#ffffff" d="M0,0L166.5,0L166.5,19.5L0,19.5L0,0z"/><path stroke="#5274e1" stroke-linejoin="round" fill="none" d="M0,19.5L166.5,19.5"/><text class="st13"><tspan x="8" textLength="149" style="white-space:pre" y="12.65">进程自己请求终止(exit系统)</tspan></text></g><g ed:height="19.5" transform="matrix(1,0,0,1,375,455)" id="164" ed:width="181.03125" ed:parentid="158" ed:layout="rightmap"><path fill="#ffffff" d="M0,0L181,0L181,19.5L0,19.5L0,0z"/><path stroke="#5274e1" stroke-linejoin="round" fill="none" d="M0,19.5L181,19.5"/><text class="st13"><tspan x="8" textLength="163" style="white-space:pre" y="12.65">除数为0、非法使用特权指令等</tspan></text></g><g ed:height="19.5" transform="matrix(1,0,0,1,375,481)" id="166" ed:width="114" ed:parentid="160" ed:layout="rightmap"><path fill="#ffffff" d="M0,0L114,0L114,19.5L0,19.5L0,0z"/><path stroke="#5274e1" stroke-linejoin="round" fill="none" d="M0,19.5L114,19.5"/><text class="st13"><tspan x="8" textLength="96" style="white-space:pre" y="12.65">用户选择杀掉进程</tspan></text></g><g ed:height="42" transform="matrix(1,0,0,1,206,646)" id="168" ed:width="35" ed:parentid="106" ed:layout="rightmap"><path stroke="#d25948" stroke-linejoin="round" fill="#ffffff" d="M0,0L35,0L35,42L0,42L0,0z"/><text class="st12"><tspan x="9" textLength="14" style="white-space:pre" y="15">阻</tspan><tspan x="9" textLength="14" style="white-space:pre" y="34">塞</tspan></text></g><g ed:height="42" transform="matrix(1,0,0,1,206,821.88)" id="170" ed:width="35" ed:parentid="106" ed:layout="rightmap"><path stroke="#d25948" stroke-linejoin="round" fill="#ffffff" d="M0,0L35,0L35,42L0,42L0,0z"/><text class="st12"><tspan x="9" textLength="14" style="white-space:pre" y="15">唤</tspan><tspan x="9" textLength="14" style="white-space:pre" y="34">醒</tspan></text></g><g ed:height="34" transform="matrix(1,0,0,1,268,613.5)" id="172" ed:width="31" ed:parentid="168" ed:layout="rightmap"><path fill="#ffffff" d="M0,0L31,0L31,34L0,34L0,0z"/><text class="st13"><tspan x="9" textLength="12" style="white-space:pre" y="13">原</tspan><tspan x="9" textLength="12" style="white-space:pre" y="29">语</tspan></text></g><g ed:height="19.5" transform="matrix(1,0,0,1,326,577)" id="174" ed:width="172.859375" ed:parentid="172" ed:layout="rightmap"><path fill="#ffffff" d="M0,0L172.9,0L172.9,19.5L0,19.5L0,0z"/><path stroke="#5274e1" stroke-linejoin="round" fill="none" d="M0,19.5L172.9,19.5"/><text class="st13"><tspan x="8" textLength="155" style="white-space:pre" y="12.65">找到要阻塞的进程对应的PCB</tspan></text></g><g ed:height="35.5" transform="matrix(1,0,0,1,326,603)" id="176" ed:width="204" ed:parentid="172" ed:layout="rightmap"><path fill="#ffffff" d="M0,0L204,0L204,35.5L0,35.5L0,0z"/><path stroke="#5274e1" stroke-linejoin="round" fill="none" d="M0,35.5L204,35.5"/><text class="st13"><tspan x="8" textLength="179" style="white-space:pre" y="12.65">保护进程运行现场，将PCB状态设</tspan><tspan x="8" textLength="178" style="white-space:pre" y="28.65">置为"阻塞态"，暂时停止进程运行</tspan></text></g><g ed:height="19.5" transform="matrix(1,0,0,1,326,645)" id="178" ed:width="184.859375" ed:parentid="172" ed:layout="rightmap"><path fill="#ffffff" d="M0,0L184.9,0L184.9,19.5L0,19.5L0,0z"/><path stroke="#5274e1" stroke-linejoin="round" fill="none" d="M0,19.5L184.9,19.5"/><text class="st13"><tspan x="8" textLength="167" style="white-space:pre" y="12.65">将PCB插入相应事件的等待队列</tspan></text></g><g ed:height="34" transform="matrix(1,0,0,1,268,686.5)" id="182" ed:width="31" ed:parentid="168" ed:layout="rightmap"><path fill="#ffffff" d="M0,0L31,0L31,34L0,34L0,0z"/><text class="st13"><tspan x="9" textLength="12" style="white-space:pre" y="13">事</tspan><tspan x="9" textLength="12" style="white-space:pre" y="29">件</tspan></text></g><g ed:height="19.5" transform="matrix(1,0,0,1,326,671)" id="184" ed:width="162" ed:parentid="182" ed:layout="rightmap"><path fill="#ffffff" d="M0,0L162,0L162,19.5L0,19.5L0,0z"/><path stroke="#5274e1" stroke-linejoin="round" fill="none" d="M0,19.5L162,19.5"/><text class="st13"><tspan x="8" textLength="144" style="white-space:pre" y="12.65">需要等待系统分配某种资源</tspan></text></g><g ed:height="19.5" transform="matrix(1,0,0,1,326,697)" id="186" ed:width="222" ed:parentid="182" ed:layout="rightmap"><path fill="#ffffff" d="M0,0L222,0L222,19.5L0,19.5L0,0z"/><path stroke="#5274e1" stroke-linejoin="round" fill="none" d="M0,19.5L222,19.5"/><text class="st13"><tspan x="8" textLength="204" style="white-space:pre" y="12.65">需要等待相互合作的其他进程完成工作</tspan></text></g><g ed:height="34" transform="matrix(1,0,0,1,268,794.5)" id="188" ed:width="31" ed:parentid="170" ed:layout="rightmap"><path fill="#ffffff" d="M0,0L31,0L31,34L0,34L0,0z"/><text class="st13"><tspan x="9" textLength="12" style="white-space:pre" y="13">原</tspan><tspan x="9" textLength="12" style="white-space:pre" y="29">语</tspan></text></g><g ed:height="34" transform="matrix(1,0,0,1,268,857.25)" id="190" ed:width="31" ed:parentid="170" ed:layout="rightmap"><path fill="#ffffff" d="M0,0L31,0L31,34L0,34L0,0z"/><text class="st13"><tspan x="9" textLength="12" style="white-space:pre" y="13">事</tspan><tspan x="9" textLength="12" style="white-space:pre" y="29">件</tspan></text></g><g ed:height="19.5" transform="matrix(1,0,0,1,326,766)" id="192" ed:width="160.859375" ed:parentid="188" ed:layout="rightmap"><path fill="#ffffff" d="M0,0L160.9,0L160.9,19.5L0,19.5L0,0z"/><path stroke="#5274e1" stroke-linejoin="round" fill="none" d="M0,19.5L160.9,19.5"/><text class="st13"><tspan x="8" textLength="143" style="white-space:pre" y="12.65">在事件等待列表中找到PCB</tspan></text></g><g ed:height="19.5" transform="matrix(1,0,0,1,326,792)" id="194" ed:width="255.296875" ed:parentid="188" ed:layout="rightmap"><path fill="#ffffff" d="M0,0L255.3,0L255.3,19.5L0,19.5L0,0z"/><path stroke="#5274e1" stroke-linejoin="round" fill="none" d="M0,19.5L255.3,19.5"/><text class="st13"><tspan x="8" textLength="237" style="white-space:pre" y="12.65">将PCB从等待队列移除，设置进程为"就绪态"</tspan></text></g><g ed:height="19.5" transform="matrix(1,0,0,1,326,818)" id="196" ed:width="196.859375" ed:parentid="188" ed:layout="rightmap"><path fill="#ffffff" d="M0,0L196.9,0L196.9,19.5L0,19.5L0,0z"/><path stroke="#5274e1" stroke-linejoin="round" fill="none" d="M0,19.5L196.9,19.5"/><text class="st13"><tspan x="8" textLength="179" style="white-space:pre" y="12.65">将PCB插入就绪队列，等待被调度</tspan></text></g><g ed:height="19.5" transform="matrix(1,0,0,1,326,854.75)" id="200" ed:width="102" ed:parentid="190" ed:layout="rightmap"><path fill="#ffffff" d="M0,0L102,0L102,19.5L0,19.5L0,0z"/><path stroke="#5274e1" stroke-linejoin="round" fill="none" d="M0,19.5L102,19.5"/><text class="st13"><tspan x="8" textLength="84" style="white-space:pre" y="12.65">等待的事件发生</tspan></text></g><g ed:height="41" transform="matrix(1,0,0,1,454,844)" id="203" ed:width="94.99999999999994" ed:parentid="202" ed:layout="rightmap"><path stroke="#ff0000" stroke-linejoin="round" stroke-width="2" fill="#ffffff" d="M10.3,0L84.7,0L95,10.3L95,30.8L84.7,41L10.3,41L0,30.8L0,10.3L10.3,0z"/><text class="st14"><tspan x="17" textLength="60" style="white-space:pre" y="15.5">因何事阻塞</tspan><tspan x="17" textLength="60" style="white-space:pre" y="31.5">由何事唤醒</tspan></text></g><g ed:height="41" transform="matrix(1,0,0,1,607.3,694.13)" id="214" ed:width="120.68" ed:parentid="213" ed:layout="rightmap"><path stroke="#ff0000" stroke-linejoin="round" stroke-width="2" fill="#ffffff" d="M10.3,0L110.4,0L120.7,10.3L120.7,30.8L110.4,41L10.3,41L0,30.8L0,10.3L10.3,0z"/><text class="st9"><tspan x="17" textLength="84" style="white-space:pre" y="15.5">阻塞、唤醒原语</tspan><tspan x="17" textLength="72" style="white-space:pre" y="31.5">必须成对使用</tspan></text></g><g ed:height="59" transform="matrix(1,0,0,1,124,1005.25)" id="215" ed:width="55" ed:parentid="101" ed:layout="rightmap"><path stroke="#92a7ff" stroke-linejoin="round" stroke-width="2" fill="#ffffff" d="M4,0L51,0C53.7,0,55,1.3,55,4L55,55C55,57.7,53.7,59,51,59L4,59C1.3,59,0,57.7,0,55L0,4C0,1.3,1.3,0,4,0z"/><text class="st11"><tspan x="18" textLength="16" style="white-space:pre" y="23.5">切</tspan><tspan x="18" textLength="16" style="white-space:pre" y="45.5">换</tspan></text></g><g ed:height="42" transform="matrix(1,0,0,1,206,961.75)" id="217" ed:width="35" ed:parentid="215" ed:layout="rightmap"><path stroke="#d25948" stroke-linejoin="round" fill="#ffffff" d="M0,0L35,0L35,42L0,42L0,0z"/><text class="st12"><tspan x="9" textLength="14" style="white-space:pre" y="15">原</tspan><tspan x="9" textLength="14" style="white-space:pre" y="34">语</tspan></text></g><g ed:height="19.5" transform="matrix(1,0,0,1,268,924.25)" id="219" ed:width="148.859375" ed:parentid="217" ed:layout="rightmap"><path fill="#ffffff" d="M0,0L148.9,0L148.9,19.5L0,19.5L0,0z"/><path stroke="#5274e1" stroke-linejoin="round" fill="none" d="M0,19.5L148.9,19.5"/><text class="st13"><tspan x="8" textLength="131" style="white-space:pre" y="12.65">将运行环境信息存入PCB</tspan></text></g><g ed:height="19.5" transform="matrix(1,0,0,1,268,950.25)" id="221" ed:width="112.859375" ed:parentid="217" ed:layout="rightmap"><path fill="#ffffff" d="M0,0L112.9,0L112.9,19.5L0,19.5L0,0z"/><path stroke="#5274e1" stroke-linejoin="round" fill="none" d="M0,19.5L112.9,19.5"/><text class="st13"><tspan x="8" textLength="95" style="white-space:pre" y="12.65">PCB移入相应队列</tspan></text></g><g ed:height="19.5" transform="matrix(1,0,0,1,268,976.25)" id="223" ed:width="208.859375" ed:parentid="217" ed:layout="rightmap"><path fill="#ffffff" d="M0,0L208.9,0L208.9,19.5L0,19.5L0,0z"/><path stroke="#5274e1" stroke-linejoin="round" fill="none" d="M0,19.5L208.9,19.5"/><text class="st13"><tspan x="8" textLength="191" style="white-space:pre" y="12.65">选择另一个进程执行，并更新其PCB</tspan></text></g><g ed:height="19.5" transform="matrix(1,0,0,1,268,1002.25)" id="225" ed:width="208.859375" ed:parentid="217" ed:layout="rightmap"><path fill="#ffffff" d="M0,0L208.9,0L208.9,19.5L0,19.5L0,0z"/><path stroke="#5274e1" stroke-linejoin="round" fill="none" d="M0,19.5L208.9,19.5"/><text class="st13"><tspan x="8" textLength="191" style="white-space:pre" y="12.65">根据PCB恢复新进程所需的运行环境</tspan></text></g><g ed:height="80" transform="matrix(1,0,0,1,206,1046.75)" id="227" ed:width="49" ed:parentid="215" ed:layout="rightmap"><path stroke="#d25948" stroke-linejoin="round" fill="#ffffff" d="M0,0L49,0L49,80L0,80L0,0z"/><text class="st12"><tspan x="9" textLength="28" style="white-space:pre" y="15">引起</tspan><tspan x="9" textLength="28" style="white-space:pre" y="34">进程</tspan><tspan x="9" textLength="28" style="white-space:pre" y="53">切换</tspan><tspan x="9" textLength="28" style="white-space:pre" y="72">事件</tspan></text></g><g ed:height="19.5" transform="matrix(1,0,0,1,282,1028.25)" id="229" ed:width="114" ed:parentid="227" ed:layout="rightmap"><path fill="#ffffff" d="M0,0L114,0L114,19.5L0,19.5L0,0z"/><path stroke="#5274e1" stroke-linejoin="round" fill="none" d="M0,19.5L114,19.5"/><text class="st13"><tspan x="8" textLength="96" style="white-space:pre" y="12.65">当前进程时间片到</tspan></text></g><g ed:height="19.5" transform="matrix(1,0,0,1,282,1054.25)" id="231" ed:width="150" ed:parentid="227" ed:layout="rightmap"><path fill="#ffffff" d="M0,0L150,0L150,19.5L0,19.5L0,0z"/><path stroke="#5274e1" stroke-linejoin="round" fill="none" d="M0,19.5L150,19.5"/><text class="st13"><tspan x="8" textLength="132" style="white-space:pre" y="12.65">有更高优先级的进程到达</tspan></text></g><g ed:height="19.5" transform="matrix(1,0,0,1,282,1080.25)" id="233" ed:width="114" ed:parentid="227" ed:layout="rightmap"><path fill="#ffffff" d="M0,0L114,0L114,19.5L0,19.5L0,0z"/><path stroke="#5274e1" stroke-linejoin="round" fill="none" d="M0,19.5L114,19.5"/><text class="st13"><tspan x="8" textLength="96" style="white-space:pre" y="12.65">当前进程主动阻塞</tspan></text></g><g ed:height="19.5" transform="matrix(1,0,0,1,282,1106.25)" id="235" ed:width="90" ed:parentid="227" ed:layout="rightmap"><path fill="#ffffff" d="M0,0L90,0L90,19.5L0,19.5L0,0z"/><path stroke="#5274e1" stroke-linejoin="round" fill="none" d="M0,19.5L90,19.5"/><text class="st13"><tspan x="8" textLength="72" style="white-space:pre" y="12.65">当期进程终止</tspan></text></g><g ed:height="19.5" transform="matrix(1,0,0,1,443.86,924.25)" id="237" ed:width="90" ed:parentid="219" ed:layout="rightmap"><path fill="#ffffff" d="M0,0L90,0L90,19.5L0,19.5L0,0z"/><path stroke="#5274e1" stroke-linejoin="round" fill="none" d="M0,19.5L90,19.5"/><text class="st13"><tspan x="8" textLength="72" style="white-space:pre" y="12.65">即进程上下文</tspan></text></g></svg>