<svg xmlns:ev="http://www.w3.org/2001/xml-events" id="page100" xmlns:ed="https://www.edrawsoft.cn/xml/2017/SVGExtensions/" xmlns="http://www.w3.org/2000/svg" width="754" viewBox="0 0 754 621" ed:vSpacing="30" xmlns:xlink="http://www.w3.org/1999/xlink" ed:hSpacing="30" ed:name="页面-1" height="621"><style type="text/css"><![CDATA[
g[ed\:togtopicid],g[ed\:hyperlink],g[ed\:comment],g[ed\:note] {cursor:pointer;}
g[id] {-moz-user-select: none;-ms-user-select: none;user-select: none;}
svg text::selection,svg tspan::selection{background-color: #4285f4;color: #ffffff;fill: #ffffff;}
.st1 {fill:#000000;font-family:Microsoft YaHei;font-size:9.75pt}
.st3 {fill:#303030;font-family:Microsoft YaHei;font-size:14.25pt;font-weight:bold}
.st4 {fill:#303030;font-family:Microsoft YaHei;font-size:9.75pt}
.st2 {fill:#ffffff;font-family:Microsoft YaHei;font-size:18pt;font-weight:bold}
]]></style><defs/><rect fill="#ffffff" y="0" width="754" x="0" height="621"/><path fill="none" transform="matrix(1,0,0,1,165.08,202.13)" d="M5.4,119.6L36.9,119.6L36.9,-113.6C36.9,-116.9,39.5,-119.6,42.9,-119.6L68.4,-119.6" stroke-width="3" id="103" stroke-linejoin="round" ed:parentid="101" ed:tosuperid="102" stroke-linecap="round" stroke="#454545"/><path fill="none" transform="matrix(1,0,0,1,165.08,441.38)" d="M5.4,-119.6L36.9,-119.6L36.9,113.6C36.9,116.9,39.5,119.6,42.9,119.6L68.4,119.6" stroke-width="3" id="105" stroke-linejoin="round" ed:parentid="101" ed:tosuperid="104" stroke-linecap="round" stroke="#454545"/><path fill="none" transform="matrix(1,0,0,1,165.08,335.38)" d="M5.4,-13.6L36.9,-13.6L36.9,7.6C36.9,10.9,39.5,13.6,42.9,13.6L68.4,13.6" stroke-width="3" id="111" stroke-linejoin="round" ed:parentid="101" ed:tosuperid="110" stroke-linecap="round" stroke="#454545"/><path fill="none" transform="matrix(1,0,0,1,304.94,61.5)" d="M-13.5,21L0,21L0,-15C0,-18.3,2.7,-21,6,-21L13.5,-21" id="113" stroke-linejoin="round" ed:parentid="102" ed:tosuperid="112" stroke-linecap="round" stroke="#454545"/><path fill="none" transform="matrix(1,0,0,1,304.94,300.25)" d="M-13.5,48.8L0,48.8L0,-42.8C0,-46.1,2.7,-48.8,6,-48.8L13.5,-48.8" id="118" stroke-linejoin="round" ed:parentid="110" ed:tosuperid="117" stroke-linecap="round" stroke="#454545"/><path fill="none" transform="matrix(1,0,0,1,304.94,328.25)" d="M0,20.8L0,-14.8C0,-18.1,2.7,-20.8,6,-20.8L13.5,-20.8" id="120" stroke-linejoin="round" ed:parentid="110" ed:tosuperid="119" stroke-linecap="round" stroke="#454545"/><path fill="none" transform="matrix(1,0,0,1,304.94,360.75)" d="M0,-11.8L0,5.8C0,9.1,2.7,11.8,6,11.8L13.5,11.8" id="122" stroke-linejoin="round" ed:parentid="110" ed:tosuperid="121" stroke-linecap="round" stroke="#454545"/><path fill="none" transform="matrix(1,0,0,1,304.94,397.75)" d="M0,-48.8L0,42.8C0,46.1,2.7,48.8,6,48.8L13.5,48.8" id="124" stroke-linejoin="round" ed:parentid="110" ed:tosuperid="123" stroke-linecap="round" stroke="#454545"/><path fill="none" transform="matrix(1,0,0,1,380.94,579.5)" d="M0,-18.5L0,12.5C0,15.8,2.7,18.5,6,18.5L13.5,18.5" id="126" stroke-linejoin="round" ed:parentid="104" ed:tosuperid="125" stroke-linecap="round" stroke="#454545"/><path fill="none" transform="matrix(1,0,0,1,304.94,75.5)" d="M0,7L0,-1C0,-4.3,2.7,-7,6,-7L13.5,-7" id="137" stroke-linejoin="round" ed:parentid="102" ed:tosuperid="136" stroke-linecap="round" stroke="#454545"/><path fill="none" transform="matrix(1,0,0,1,304.94,89.5)" d="M0,-7L0,1C0,4.3,2.7,7,6,7L13.5,7" id="139" stroke-linejoin="round" ed:parentid="102" ed:tosuperid="138" stroke-linecap="round" stroke="#454545"/><path fill="none" transform="matrix(1,0,0,1,304.94,103.5)" d="M0,-21L0,15C0,18.3,2.7,21,6,21L13.5,21" id="141" stroke-linejoin="round" ed:parentid="102" ed:tosuperid="140" stroke-linecap="round" stroke="#454545"/><path fill="none" transform="matrix(1,0,0,1,410.04,40.5)" d="M-21.6,0L-10.6,0C5.7,0,5.7,0,21.6,0" id="143" stroke-linejoin="round" ed:parentid="112" ed:tosuperid="142" stroke-linecap="round" stroke="#454545"/><path fill="none" transform="matrix(1,0,0,1,410.04,68.5)" d="M-21.6,0L-10.6,0C5.7,0,5.7,0,21.6,0" id="147" stroke-linejoin="round" ed:parentid="136" ed:tosuperid="146" stroke-linecap="round" stroke="#454545"/><path fill="none" transform="matrix(1,0,0,1,410.04,96.5)" d="M-21.6,0L-10.6,0C5.7,0,5.7,0,21.6,0" id="149" stroke-linejoin="round" ed:parentid="138" ed:tosuperid="148" stroke-linecap="round" stroke="#454545"/><path fill="none" transform="matrix(1,0,0,1,401.94,244.5)" d="M-13.5,7L0,7L0,-1C0,-4.3,2.7,-7,6,-7L13.5,-7" id="153" stroke-linejoin="round" ed:parentid="117" ed:tosuperid="152" stroke-linecap="round" stroke="#454545"/><path fill="none" transform="matrix(1,0,0,1,401.94,258.5)" d="M0,-7L0,1C0,4.3,2.7,7,6,7L13.5,7" id="155" stroke-linejoin="round" ed:parentid="117" ed:tosuperid="154" stroke-linecap="round" stroke="#454545"/><path fill="none" transform="matrix(1,0,0,1,401.94,300.5)" d="M-13.5,7L0,7L0,-1C0,-4.3,2.7,-7,6,-7L13.5,-7" id="157" stroke-linejoin="round" ed:parentid="119" ed:tosuperid="156" stroke-linecap="round" stroke="#454545"/><path fill="none" transform="matrix(1,0,0,1,401.94,314.5)" d="M0,-7L0,1C0,4.3,2.7,7,6,7L13.5,7" id="159" stroke-linejoin="round" ed:parentid="119" ed:tosuperid="158" stroke-linecap="round" stroke="#454545"/><path fill="none" transform="matrix(1,0,0,1,401.94,361)" d="M-13.5,11.5L0,11.5L0,-5.5C0,-8.8,2.7,-11.5,6,-11.5L13.5,-11.5" id="162" stroke-linejoin="round" ed:parentid="121" ed:tosuperid="161" stroke-linecap="round" stroke="#454545"/><path fill="none" transform="matrix(1,0,0,1,401.94,384)" d="M0,-11.5L0,5.5C0,8.8,2.7,11.5,6,11.5L13.5,11.5" id="164" stroke-linejoin="round" ed:parentid="121" ed:tosuperid="163" stroke-linecap="round" stroke="#454545"/><path fill="none" transform="matrix(1,0,0,1,401.94,435)" d="M-13.5,11.5L0,11.5L0,-5.5C0,-8.8,2.7,-11.5,6,-11.5L13.5,-11.5" id="166" stroke-linejoin="round" ed:parentid="123" ed:tosuperid="165" stroke-linecap="round" stroke="#454545"/><path fill="none" transform="matrix(1,0,0,1,401.94,458)" d="M0,-11.5L0,5.5C0,8.8,2.7,11.5,6,11.5L13.5,11.5" id="168" stroke-linejoin="round" ed:parentid="123" ed:tosuperid="167" stroke-linecap="round" stroke="#454545"/><path fill="none" transform="matrix(1,0,0,1,380.94,542.5)" d="M-13.5,18.5L0,18.5L0,-12.5C0,-15.8,2.7,-18.5,6,-18.5L13.5,-18.5" id="170" stroke-linejoin="round" ed:parentid="104" ed:tosuperid="169" stroke-linecap="round" stroke="#454545"/><path fill="none" transform="matrix(1,0,0,1,380.94,556.5)" d="M0,4.5L0,1.5C0,-1.8,2.7,-4.5,6,-4.5L13.5,-4.5" id="172" stroke-linejoin="round" ed:parentid="104" ed:tosuperid="171" stroke-linecap="round" stroke="#454545"/><path fill="none" transform="matrix(1,0,0,1,418.7,124.5)" d="M-21.6,0L-10.6,0C5.7,0,5.7,0,21.6,0" id="175" stroke-linejoin="round" ed:parentid="140" ed:tosuperid="174" stroke-linecap="round" stroke="#454545"/><g transform="matrix(1,0,0,1,415.44,175)" ed:width="316.6" ed:layout="rightmap" id="160" ed:topictype="callout" ed:parentid="152" ed:height="33"><path fill="#ffffff" d="M16.5,0L300.1,0C309.2,0,316.6,7.4,316.6,16.5C316.6,25.6,309.2,33,300.1,33L148.6,33L117.8,41L124.7,33L16.5,33C7.4,33,0,25.6,0,16.5C0,7.4,7.4,0,16.5,0z" stroke-width="2" stroke-linejoin="round" stroke="#00af54"/><text class="st1"><tspan textLength="286" y="20.5" style="white-space:pre" x="14">随机存取指按通过一个公式就能拿到任意一个数据</tspan></text></g><g transform="matrix(1,0,0,1,233.44,189)" ed:width="82.59999999999999" ed:layout="rightmap" id="173" ed:topictype="callout" ed:parentid="110" ed:height="33"><path fill="#ffffff" d="M16.5,0L66.1,0C75.2,0,82.6,7.4,82.6,16.5C82.6,25.6,75.2,33,66.1,33L44.9,33L34.1,100.5L34.9,33L16.5,33C7.4,33,0,25.6,0,16.5C0,7.4,7.4,0,16.5,0z" stroke-width="2" stroke-linejoin="round" stroke="#00af54"/><text class="st1"><tspan textLength="52" y="20.5" style="white-space:pre" x="14">物理结构</tspan></text></g><g transform="matrix(1,0,0,1,23,283.75)" ed:width="147.44" ed:layout="rightmap" id="101" ed:topictype="mainidea" ed:height="76"><path fill="#00af54" d="M38,0L109.4,0C130.4,0,147.4,17,147.4,38C147.4,59,130.4,76,109.4,76L38,76C17,76,0,59,0,38C0,17,17,0,38,0z" stroke-width="3" stroke-linejoin="round" stroke="#00af54"/><text class="st2"><tspan textLength="96" y="30" style="white-space:pre" x="26">数据结构</tspan><tspan textLength="90" y="62" style="white-space:pre" x="29">(三要素)</tspan></text></g><g transform="matrix(1,0,0,1,233.44,23)" ed:width="58" id="102" ed:parentid="101" ed:height="119"><path fill="#ffffff" d="M4,0L54,0C56.7,0,58,1.3,58,4L58,115C58,117.7,56.7,119,54,119L4,119C1.3,119,0,117.7,0,115L0,4C0,1.3,1.3,0,4,0z" stroke-width="2" stroke-linejoin="round" stroke="#454545"/><text class="st3"><tspan textLength="19" y="26.5" style="white-space:pre" x="18">逻</tspan><tspan textLength="19" y="52.5" style="white-space:pre" x="18">辑</tspan><tspan textLength="19" y="78.5" style="white-space:pre" x="18">结</tspan><tspan textLength="19" y="104.5" style="white-space:pre" x="18">构</tspan></text></g><g transform="matrix(1,0,0,1,233.44,540.5)" ed:width="134" id="104" ed:parentid="101" ed:height="41"><path fill="#ffffff" d="M4,0L130,0C132.7,0,134,1.3,134,4L134,37C134,39.7,132.7,41,130,41L4,41C1.3,41,0,39.7,0,37L0,4C0,1.3,1.3,0,4,0z" stroke-width="2" stroke-linejoin="round" stroke="#454545"/><text class="st3"><tspan textLength="95" y="26.5" style="white-space:pre" x="18">数据的运算</tspan></text></g><g transform="matrix(1,0,0,1,233.44,289.5)" ed:width="58" id="110" ed:parentid="101" ed:height="119"><path fill="#ffffff" d="M4,0L54,0C56.7,0,58,1.3,58,4L58,115C58,117.7,56.7,119,54,119L4,119C1.3,119,0,117.7,0,115L0,4C0,1.3,1.3,0,4,0z" stroke-width="2" stroke-linejoin="round" stroke="#454545"/><text class="st3"><tspan textLength="19" y="26.5" style="white-space:pre" x="18">存</tspan><tspan textLength="19" y="52.5" style="white-space:pre" x="18">储</tspan><tspan textLength="19" y="78.5" style="white-space:pre" x="18">结</tspan><tspan textLength="19" y="104.5" style="white-space:pre" x="18">构</tspan></text></g><g transform="matrix(1,0,0,1,318.44,19)" ed:width="70" id="112" ed:parentid="102" ed:height="21.5"><path fill="#ffffff" d="M0,0L70,0L70,21.5L0,21.5L0,0z"/><path fill="none" d="M0,21.5L70,21.5" stroke-linejoin="round" stroke="#454545"/><text class="st4"><tspan textLength="52" y="14.65" style="white-space:pre" x="8">集合结构</tspan></text></g><g transform="matrix(1,0,0,1,318.44,230)" ed:width="70" id="117" ed:parentid="110" ed:height="21.5"><path fill="#ffffff" d="M0,0L70,0L70,21.5L0,21.5L0,0z"/><path fill="none" d="M0,21.5L70,21.5" stroke-linejoin="round" stroke="#454545"/><text class="st4"><tspan textLength="52" y="14.65" style="white-space:pre" x="8">顺序存储</tspan></text></g><g transform="matrix(1,0,0,1,318.44,286)" ed:width="70" id="119" ed:parentid="110" ed:height="21.5"><path fill="#ffffff" d="M0,0L70,0L70,21.5L0,21.5L0,0z"/><path fill="none" d="M0,21.5L70,21.5" stroke-linejoin="round" stroke="#454545"/><text class="st4"><tspan textLength="52" y="14.65" style="white-space:pre" x="8">链式存储</tspan></text></g><g transform="matrix(1,0,0,1,318.44,351)" ed:width="70" id="121" ed:parentid="110" ed:height="21.5"><path fill="#ffffff" d="M0,0L70,0L70,21.5L0,21.5L0,0z"/><path fill="none" d="M0,21.5L70,21.5" stroke-linejoin="round" stroke="#454545"/><text class="st4"><tspan textLength="52" y="14.65" style="white-space:pre" x="8">索引存储</tspan></text></g><g transform="matrix(1,0,0,1,318.44,425)" ed:width="70" id="123" ed:parentid="110" ed:height="21.5"><path fill="#ffffff" d="M0,0L70,0L70,21.5L0,21.5L0,0z"/><path fill="none" d="M0,21.5L70,21.5" stroke-linejoin="round" stroke="#454545"/><text class="st4"><tspan textLength="52" y="14.65" style="white-space:pre" x="8">散列存储</tspan></text></g><g transform="matrix(1,0,0,1,394.44,558.5)" ed:width="241.375" id="125" ed:parentid="104" ed:height="39.5"><path fill="#ffffff" d="M0,0L241.4,0L241.4,39.5L0,39.5L0,0z"/><path fill="none" d="M0,39.5L241.4,39.5" stroke-linejoin="round" stroke="#454545"/><text class="st4"><tspan textLength="78" y="14.65" style="white-space:pre" x="8">常用运算有：</tspan><tspan textLength="223" y="32.65" style="white-space:pre" x="8">    检索、插入、删除、更新、排序等。</tspan></text></g><g transform="matrix(1,0,0,1,318.44,47)" ed:width="70" id="136" ed:parentid="102" ed:height="21.5"><path fill="#ffffff" d="M0,0L70,0L70,21.5L0,21.5L0,0z"/><path fill="none" d="M0,21.5L70,21.5" stroke-linejoin="round" stroke="#454545"/><text class="st4"><tspan textLength="52" y="14.65" style="white-space:pre" x="8">线性结构</tspan></text></g><g transform="matrix(1,0,0,1,318.44,75)" ed:width="70" id="138" ed:parentid="102" ed:height="21.5"><path fill="#ffffff" d="M0,0L70,0L70,21.5L0,21.5L0,0z"/><path fill="none" d="M0,21.5L70,21.5" stroke-linejoin="round" stroke="#454545"/><text class="st4"><tspan textLength="52" y="14.65" style="white-space:pre" x="8">树形结构</tspan></text></g><g transform="matrix(1,0,0,1,318.44,103)" ed:width="78.65625" id="140" ed:parentid="102" ed:height="21.5"><path fill="#ffffff" d="M0,0L78.7,0L78.7,21.5L0,21.5L0,0z"/><path fill="none" d="M0,21.5L78.7,21.5" stroke-linejoin="round" stroke="#454545"/><text class="st4"><tspan textLength="61" y="14.65" style="white-space:pre" x="8">图(网)结构</tspan></text></g><g transform="matrix(1,0,0,1,431.64,19)" ed:width="109" id="142" ed:parentid="112" ed:height="21.5"><path fill="#ffffff" d="M0,0L109,0L109,21.5L0,21.5L0,0z"/><path fill="none" d="M0,21.5L109,21.5" stroke-linejoin="round" stroke="#454545"/><text class="st4"><tspan textLength="91" y="14.65" style="white-space:pre" x="8">数据元素无关系</tspan></text></g><g transform="matrix(1,0,0,1,431.64,47)" ed:width="135" id="146" ed:parentid="136" ed:height="21.5"><path fill="#ffffff" d="M0,0L135,0L135,21.5L0,21.5L0,0z"/><path fill="none" d="M0,21.5L135,21.5" stroke-linejoin="round" stroke="#454545"/><text class="st4"><tspan textLength="117" y="14.65" style="white-space:pre" x="8">数据元素一对一关系</tspan></text></g><g transform="matrix(1,0,0,1,431.64,75)" ed:width="135" id="148" ed:parentid="138" ed:height="21.5"><path fill="#ffffff" d="M0,0L135,0L135,21.5L0,21.5L0,0z"/><path fill="none" d="M0,21.5L135,21.5" stroke-linejoin="round" stroke="#454545"/><text class="st4"><tspan textLength="117" y="14.65" style="white-space:pre" x="8">数据元素一对多关系</tspan></text></g><g transform="matrix(1,0,0,1,415.44,216)" ed:width="200" id="152" ed:parentid="117" ed:height="21.5"><path fill="#ffffff" d="M0,0L200,0L200,21.5L0,21.5L0,0z"/><path fill="none" d="M0,21.5L200,21.5" stroke-linejoin="round" stroke="#454545"/><text class="st4"><tspan textLength="182" y="14.65" style="white-space:pre" x="8">优：随机存取，元素占用空间少</tspan></text></g><g transform="matrix(1,0,0,1,415.44,244)" ed:width="317" id="154" ed:parentid="117" ed:height="21.5"><path fill="#ffffff" d="M0,0L317,0L317,21.5L0,21.5L0,0z"/><path fill="none" d="M0,21.5L317,21.5" stroke-linejoin="round" stroke="#454545"/><text class="st4"><tspan textLength="299" y="14.65" style="white-space:pre" x="8">缺：使用相邻的一整块存储单元，可能产生外部碎片</tspan></text></g><g transform="matrix(1,0,0,1,415.44,272)" ed:width="226" id="156" ed:parentid="119" ed:height="21.5"><path fill="#ffffff" d="M0,0L226,0L226,21.5L0,21.5L0,0z"/><path fill="none" d="M0,21.5L226,21.5" stroke-linejoin="round" stroke="#454545"/><text class="st4"><tspan textLength="208" y="14.65" style="white-space:pre" x="8">优：无碎片，充分利用所有存储单元</tspan></text></g><g transform="matrix(1,0,0,1,415.44,300)" ed:width="252" id="158" ed:parentid="119" ed:height="21.5"><path fill="#ffffff" d="M0,0L252,0L252,21.5L0,21.5L0,0z"/><path fill="none" d="M0,21.5L252,21.5" stroke-linejoin="round" stroke="#454545"/><text class="st4"><tspan textLength="234" y="14.65" style="white-space:pre" x="8">因存储指针占用额外存储空间，顺序存储</tspan></text></g><g transform="matrix(1,0,0,1,415.44,328)" ed:width="109" id="161" ed:parentid="121" ed:height="21.5"><path fill="#ffffff" d="M0,0L109,0L109,21.5L0,21.5L0,0z"/><path fill="none" d="M0,21.5L109,21.5" stroke-linejoin="round" stroke="#454545"/><text class="st4"><tspan textLength="91" y="14.65" style="white-space:pre" x="8">优：检索速度快</tspan></text></g><g transform="matrix(1,0,0,1,415.44,356)" ed:width="290.2799999999997" id="163" ed:parentid="121" ed:height="39.5"><path fill="#ffffff" d="M0,0L290.3,0L290.3,39.5L0,39.5L0,0z"/><path fill="none" d="M0,39.5L290.3,39.5" stroke-linejoin="round" stroke="#454545"/><text class="st4"><tspan textLength="273" y="14.65" style="white-space:pre" x="8">缺：附件的索引表额外占用存储空间，增加、删</tspan><tspan textLength="247" y="32.65" style="white-space:pre" x="8">除数据需要修改索引表，会花费较多的时间</tspan></text></g><g transform="matrix(1,0,0,1,415.44,402)" ed:width="252" id="165" ed:parentid="123" ed:height="21.5"><path fill="#ffffff" d="M0,0L252,0L252,21.5L0,21.5L0,0z"/><path fill="none" d="M0,21.5L252,21.5" stroke-linejoin="round" stroke="#454545"/><text class="st4"><tspan textLength="234" y="14.65" style="white-space:pre" x="8">优：检索、增加、删除结点的操作都很快</tspan></text></g><g transform="matrix(1,0,0,1,415.44,430)" ed:width="303.2799999999997" id="167" ed:parentid="123" ed:height="39.5"><path fill="#ffffff" d="M0,0L303.3,0L303.3,39.5L0,39.5L0,0z"/><path fill="none" d="M0,39.5L303.3,39.5" stroke-linejoin="round" stroke="#454545"/><text class="st4"><tspan textLength="286" y="14.65" style="white-space:pre" x="8">缺：若散列函数不好，则可能出现元素存储单元冲</tspan><tspan textLength="221" y="32.65" style="white-space:pre" x="8">突，而解决冲突会增加时间和空间开销</tspan></text></g><g transform="matrix(1,0,0,1,394.44,502.5)" ed:width="265" id="169" ed:parentid="104" ed:height="21.5"><path fill="#ffffff" d="M0,0L265,0L265,21.5L0,21.5L0,0z"/><path fill="none" d="M0,21.5L265,21.5" stroke-linejoin="round" stroke="#454545"/><text class="st4"><tspan textLength="247" y="14.65" style="white-space:pre" x="8">运算的定义针对逻辑结构，指出运算的功能</tspan></text></g><g transform="matrix(1,0,0,1,394.44,530.5)" ed:width="317" id="171" ed:parentid="104" ed:height="21.5"><path fill="#ffffff" d="M0,0L317,0L317,21.5L0,21.5L0,0z"/><path fill="none" d="M0,21.5L317,21.5" stroke-linejoin="round" stroke="#454545"/><text class="st4"><tspan textLength="299" y="14.65" style="white-space:pre" x="8">运算的实现针对存储结构，指出运算的棘突操作步骤</tspan></text></g><g transform="matrix(1,0,0,1,440.3,103)" ed:width="135" id="174" ed:parentid="140" ed:height="21.5"><path fill="#ffffff" d="M0,0L135,0L135,21.5L0,21.5L0,0z"/><path fill="none" d="M0,21.5L135,21.5" stroke-linejoin="round" stroke="#454545"/><text class="st4"><tspan textLength="117" y="14.65" style="white-space:pre" x="8">数据元素多对多关系</tspan></text></g></svg>