<svg width="720" ed:name="页面-1" id="page100" ed:vSpacing="30" viewBox="0 0 720 323" xmlns="http://www.w3.org/2000/svg" height="323" ed:hSpacing="30" xmlns:ev="http://www.w3.org/2001/xml-events" xmlns:ed="https://www.edrawsoft.cn/xml/2017/SVGExtensions/" xmlns:xlink="http://www.w3.org/1999/xlink"><style type="text/css"><![CDATA[
g[ed\:togtopicid],g[ed\:hyperlink],g[ed\:comment],g[ed\:note] {cursor:pointer;}
g[id] {-moz-user-select: none;-ms-user-select: none;user-select: none;}
svg text::selection,svg tspan::selection{background-color: #4285f4;color: #ffffff;fill: #ffffff;}
.st2 {fill:#303030;font-family:Microsoft YaHei;font-size:14.25pt;font-weight:bold}
.st3 {fill:#303030;font-family:Microsoft YaHei;font-size:9.75pt}
.st1 {fill:#ffffff;font-family:Microsoft YaHei;font-size:18pt;font-weight:bold}
]]></style><defs/><rect width="720" fill="#ffffff" y="0" height="323" x="0"/><path stroke-width="3" stroke-linejoin="round" id="103" fill="none" ed:parentid="101" d="M96,-30L96,-4.3L-90,-4.3C-93.3,-4.3,-96,-1.6,-96,1.7L-96,30" stroke="#454545" ed:tosuperid="102" stroke-linecap="round" transform="matrix(1,0,0,1,263.75,95)"/><path stroke-width="3" stroke-linejoin="round" id="105" fill="none" ed:parentid="101" d="M-80.9,-30L-80.9,-4.3L74.9,-4.3C78.2,-4.3,80.9,-1.6,80.9,1.7L80.9,30" stroke="#454545" ed:tosuperid="104" stroke-linecap="round" transform="matrix(1,0,0,1,440.63,95)"/><path stroke-linejoin="round" id="109" fill="none" ed:parentid="102" d="M58.4,-22.5L58.4,-1.3L-52.4,-1.3C-55.7,-1.3,-58.4,1.4,-58.4,4.7L-58.4,22.5" stroke="#454545" ed:tosuperid="108" stroke-linecap="round" transform="matrix(1,0,0,1,109.38,188.5)"/><path stroke-linejoin="round" id="119" fill="none" ed:parentid="102" d="M6.5,-1.3L-0.5,-1.3C-3.8,-1.3,-6.5,1.4,-6.5,4.7L-6.5,22.5" stroke="#454545" ed:tosuperid="118" stroke-linecap="round" transform="matrix(1,0,0,1,161.25,188.5)"/><path stroke-linejoin="round" id="125" fill="none" ed:parentid="102" d="M-51.9,-1.3L45.9,-1.3C49.2,-1.3,51.9,1.4,51.9,4.7L51.9,22.5" stroke="#454545" ed:tosuperid="124" stroke-linecap="round" transform="matrix(1,0,0,1,219.63,188.5)"/><path stroke-linejoin="round" id="129" fill="none" ed:parentid="124" d="M0,-22.5L0,-1.3C0,-1.3,0,1.4,0,4.7L0,22.5" stroke="#454545" ed:tosuperid="128" stroke-linecap="round" transform="matrix(1,0,0,1,271.5,255.5)"/><path stroke-linejoin="round" id="133" fill="none" ed:parentid="118" d="M15.1,-22.5L15.1,-1.3L-9.1,-1.3C-12.4,-1.3,-15.1,1.4,-15.1,4.7L-15.1,22.5" stroke="#454545" ed:tosuperid="132" stroke-linecap="round" transform="matrix(1,0,0,1,139.63,255.5)"/><path stroke-linejoin="round" id="139" fill="none" ed:parentid="118" d="M-18.4,-1.3L12.4,-1.3C15.7,-1.3,18.4,1.4,18.4,4.7L18.4,22.5" stroke="#454545" ed:tosuperid="138" stroke-linecap="round" transform="matrix(1,0,0,1,173.13,255.5)"/><path stroke-linejoin="round" id="141" fill="none" ed:parentid="104" d="M73.5,-22.5L73.5,-1.3L-67.5,-1.3C-70.8,-1.3,-73.5,1.4,-73.5,4.7L-73.5,22.5" stroke="#454545" ed:tosuperid="140" stroke-linecap="round" transform="matrix(1,0,0,1,448,188.5)"/><path stroke-linejoin="round" id="148" fill="none" ed:parentid="104" d="M18.4,-1.3L-12.4,-1.3C-15.7,-1.3,-18.4,1.4,-18.4,4.7L-18.4,22.5" stroke="#454545" ed:tosuperid="147" stroke-linecap="round" transform="matrix(1,0,0,1,503.13,188.5)"/><path stroke-linejoin="round" id="154" fill="none" ed:parentid="104" d="M-55.1,-1.3L49.1,-1.3C52.4,-1.3,55.1,1.4,55.1,4.7L55.1,22.5" stroke="#454545" ed:tosuperid="153" stroke-linecap="round" transform="matrix(1,0,0,1,576.63,188.5)"/><path stroke-linejoin="round" id="156" fill="none" ed:parentid="147" d="M18.4,-22.5L18.4,-1.3L-12.4,-1.3C-15.7,-1.3,-18.4,1.4,-18.4,4.7L-18.4,22.5" stroke="#454545" ed:tosuperid="155" stroke-linecap="round" transform="matrix(1,0,0,1,466.38,255.5)"/><path stroke-linejoin="round" id="162" fill="none" ed:parentid="147" d="M-18.4,-1.3L12.4,-1.3C15.7,-1.3,18.4,1.4,18.4,4.7L18.4,22.5" stroke="#454545" ed:tosuperid="161" stroke-linecap="round" transform="matrix(1,0,0,1,503.13,255.5)"/><path stroke-linejoin="round" id="164" fill="none" ed:parentid="153" d="M18.4,-22.5L18.4,-1.3L-12.4,-1.3C-15.7,-1.3,-18.4,1.4,-18.4,4.7L-18.4,22.5" stroke="#454545" ed:tosuperid="163" stroke-linecap="round" transform="matrix(1,0,0,1,613.38,255.5)"/><path stroke-linejoin="round" id="166" fill="none" ed:parentid="153" d="M-18.4,-1.3L12.4,-1.3C15.7,-1.3,18.4,1.4,18.4,4.7L18.4,22.5" stroke="#454545" ed:tosuperid="165" stroke-linecap="round" transform="matrix(1,0,0,1,650.13,255.5)"/><g id="101" ed:topictype="mainidea" ed:height="44" ed:width="186" ed:layout="bottom" transform="matrix(1,0,0,1,266.75,21)"><path stroke-width="3" stroke-linejoin="round" fill="#00af54" d="M0,0L186,0L186,44L0,44L0,0z" stroke="#00af54"/><text class="st1"><tspan style="white-space:pre" y="30" textLength="168" x="9">数据的逻辑结构</tspan></text></g><g id="102" ed:parentid="101" ed:height="41" ed:width="115" transform="matrix(1,0,0,1,110.25,125)"><path stroke-width="2" stroke-linejoin="round" fill="#ffffff" d="M0,0L115,0L115,41L0,41L0,0z" stroke="#454545"/><text class="st2"><tspan style="white-space:pre" y="26.5" textLength="76" x="18">线性结构</tspan></text></g><g id="104" ed:parentid="101" ed:height="41" ed:width="134" transform="matrix(1,0,0,1,454.5,125)"><path stroke-width="2" stroke-linejoin="round" fill="#ffffff" d="M0,0L134,0L134,41L0,41L0,0z" stroke="#454545"/><text class="st2"><tspan style="white-space:pre" y="26.5" textLength="95" x="18">非线性结构</tspan></text></g><g id="108" ed:parentid="102" ed:height="22" ed:width="60" transform="matrix(1,0,0,1,21,211)"><path stroke-linejoin="round" fill="#ffffff" d="M0,0L86,0L86,22L0,22L0,0z" stroke="#454545"/><text class="st3"><tspan style="white-space:pre" y="15" textLength="65" x="9">一般线性表</tspan></text></g><g id="118" ed:parentid="102" ed:height="22" ed:width="86" transform="matrix(1,0,0,1,111.75,211)"><path stroke-linejoin="round" fill="#ffffff" d="M0,0L86,0L86,22L0,22L0,0z" stroke="#454545"/><text class="st3"><tspan style="white-space:pre" y="15" textLength="65" x="9">受限线性表</tspan></text></g><g id="124" ed:parentid="102" ed:height="22" ed:width="86" transform="matrix(1,0,0,1,228.5,211)"><path stroke-linejoin="round" fill="#ffffff" d="M0,0L86,0L86,22L0,22L0,0z" stroke="#454545"/><text class="st3"><tspan style="white-space:pre" y="15" textLength="65" x="9">线性表推广</tspan></text></g><g id="128" ed:parentid="124" ed:height="22" ed:width="47" transform="matrix(1,0,0,1,248,278)"><path stroke-linejoin="round" fill="#ffffff" d="M0,0L47,0L47,22L0,22L0,0z" stroke="#454545"/><text class="st3"><tspan style="white-space:pre" y="15" textLength="26" x="9">数组</tspan></text></g><g id="132" ed:parentid="118" ed:height="22" ed:width="60" transform="matrix(1,0,0,1,94.5,278)"><path stroke-linejoin="round" fill="#ffffff" d="M0,0L34,0L34,22L0,22L0,0z" stroke="#454545"/><text class="st3"><tspan style="white-space:pre" y="15" textLength="13" x="9">栈</tspan></text></g><g id="138" ed:parentid="118" ed:height="22" ed:width="47" transform="matrix(1,0,0,1,168,278)"><path stroke-linejoin="round" fill="#ffffff" d="M0,0L47,0L47,22L0,22L0,0z" stroke="#454545"/><text class="st3"><tspan style="white-space:pre" y="15" textLength="26" x="9">队列</tspan></text></g><g id="140" ed:parentid="104" ed:height="22" ed:width="60" transform="matrix(1,0,0,1,344.5,211)"><path stroke-linejoin="round" fill="#ffffff" d="M0,0L47,0L47,22L0,22L0,0z" stroke="#454545"/><text class="st3"><tspan style="white-space:pre" y="15" textLength="26" x="9">集合</tspan></text></g><g id="147" ed:parentid="104" ed:height="22" ed:width="34" transform="matrix(1,0,0,1,467.75,211)"><path stroke-linejoin="round" fill="#ffffff" d="M0,0L34,0L34,22L0,22L0,0z" stroke="#454545"/><text class="st3"><tspan style="white-space:pre" y="15" textLength="13" x="9">树</tspan></text></g><g id="153" ed:parentid="104" ed:height="22" ed:width="34" transform="matrix(1,0,0,1,614.75,211)"><path stroke-linejoin="round" fill="#ffffff" d="M0,0L34,0L34,22L0,22L0,0z" stroke="#454545"/><text class="st3"><tspan style="white-space:pre" y="15" textLength="13" x="9">图</tspan></text></g><g id="155" ed:parentid="147" ed:height="22" ed:width="60" transform="matrix(1,0,0,1,418,278)"><path stroke-linejoin="round" fill="#ffffff" d="M0,0L60,0L60,22L0,22L0,0z" stroke="#454545"/><text class="st3"><tspan style="white-space:pre" y="15" textLength="39" x="9">一般树</tspan></text></g><g id="161" ed:parentid="147" ed:height="22" ed:width="60" transform="matrix(1,0,0,1,491.5,278)"><path stroke-linejoin="round" fill="#ffffff" d="M0,0L60,0L60,22L0,22L0,0z" stroke="#454545"/><text class="st3"><tspan style="white-space:pre" y="15" textLength="39" x="9">二叉树</tspan></text></g><g id="163" ed:parentid="153" ed:height="22" ed:width="60" transform="matrix(1,0,0,1,565,278)"><path stroke-linejoin="round" fill="#ffffff" d="M0,0L60,0L60,22L0,22L0,0z" stroke="#454545"/><text class="st3"><tspan style="white-space:pre" y="15" textLength="39" x="9">有向图</tspan></text></g><g id="165" ed:parentid="153" ed:height="22" ed:width="60" transform="matrix(1,0,0,1,638.5,278)"><path stroke-linejoin="round" fill="#ffffff" d="M0,0L60,0L60,22L0,22L0,0z" stroke="#454545"/><text class="st3"><tspan style="white-space:pre" y="15" textLength="39" x="9">无向图</tspan></text></g></svg>