<svg width="948" id="page100" xmlns="http://www.w3.org/2000/svg" ed:vSpacing="30" xmlns:ev="http://www.w3.org/2001/xml-events" height="306" ed:name="页面-1" ed:hSpacing="30" xmlns:xlink="http://www.w3.org/1999/xlink" xmlns:ed="https://www.edrawsoft.cn/xml/2017/SVGExtensions/" viewBox="0 0 948 306"><style type="text/css"><![CDATA[
g[ed\:togtopicid],g[ed\:hyperlink],g[ed\:comment],g[ed\:note] {cursor:pointer;}
g[id] {-moz-user-select: none;-ms-user-select: none;user-select: none;}
svg text::selection,svg tspan::selection{background-color: #4285f4;color: #ffffff;fill: #ffffff;}
.st9 {fill:#000000;font-family:Microsoft YaHei;font-size:9.75pt}
.st11 {fill:#303030;font-family:Microsoft YaHei;font-size:14.25pt;font-weight:bold}
.st12 {fill:#303030;font-family:Microsoft YaHei;font-size:9.75pt}
.st10 {fill:#ffffff;font-family:Microsoft YaHei;font-size:18pt;font-weight:bold}
]]></style><defs/><rect width="948" fill="#ffffff" height="306" y="0" x="0"/><path fill="none" id="126" ed:idlist="102,110,112,114,116,118,123,120,125,147,149,151,153" ed:type="summary" transform="matrix(1,0,0,1,478.29,26.5)" ed:parentid="102,112" stroke-width="2" d="M0.1,0C6,0,5.9,15.9,5.9,15.9L5.9,112.4C5.9,112.4,6.9,126,12,126C6.9,126.6,5.9,139.6,5.9,139.6L5.9,236.1C5.9,236.1,5.8,252,0,252" stroke="#00af54" stroke-linejoin="round"/><path fill="none" id="122" ed:idlist="114,116,118" ed:type="summary" transform="matrix(1,0,0,1,319.39,153.25)" ed:parentid="114,116,118" stroke-width="2" d="M0.1,0C6,0,5.9,4.9,5.9,4.9L5.9,34.6C5.9,34.6,6.9,38.8,12,38.8C6.9,38.9,5.9,42.9,5.9,42.9L5.9,72.6C5.9,72.6,5.8,77.5,0,77.5" stroke="#00af54" stroke-linejoin="round"/><path fill="none" id="124" ed:idlist="120" ed:type="summary" transform="matrix(1,0,0,1,288,241.75)" ed:parentid="120" stroke-width="2" d="M0.1,0C6,0,5.9,1.4,5.9,1.4L5.9,9.6C5.9,9.6,6.9,10.8,12,10.8C6.9,10.8,5.9,11.9,5.9,11.9L5.9,20.1C5.9,20.1,5.8,21.5,0,21.5" stroke="#00af54" stroke-linejoin="round"/><path fill="none" id="103" transform="matrix(1,0,0,1,86,90.75)" ed:tosuperid="102" ed:parentid="101" stroke-width="3" stroke-linecap="round" d="M-21,42.8L10.5,42.8L10.5,-36.8C10.5,-40.1,13.2,-42.8,16.5,-42.8L42,-42.8" stroke="#454545" stroke-linejoin="round"/><path fill="none" id="111" transform="matrix(1,0,0,1,264.6,48)" ed:tosuperid="110" ed:parentid="102" stroke-linecap="round" d="M-21.6,0L-10.6,0C5.7,0,5.7,0,21.6,0" stroke="#454545" stroke-linejoin="round"/><path fill="none" id="113" transform="matrix(1,0,0,1,86,176.25)" ed:tosuperid="112" ed:parentid="101" stroke-width="3" stroke-linecap="round" d="M-21,-42.8L10.5,-42.8L10.5,36.8C10.5,40.1,13.2,42.8,16.5,42.8L42,42.8" stroke="#454545" stroke-linejoin="round"/><path fill="none" id="115" transform="matrix(1,0,0,1,199.5,196.88)" ed:tosuperid="114" ed:parentid="112" stroke-linecap="round" d="M-13.5,22.1L0,22.1L0,-16.1C0,-19.4,2.7,-22.1,6,-22.1L13.5,-22.1" stroke="#454545" stroke-linejoin="round"/><path fill="none" id="117" transform="matrix(1,0,0,1,199.5,210.88)" ed:tosuperid="116" ed:parentid="112" stroke-linecap="round" d="M0,8.1L0,-2.1C0,-5.4,2.7,-8.1,6,-8.1L13.5,-8.1" stroke="#454545" stroke-linejoin="round"/><path fill="none" id="119" transform="matrix(1,0,0,1,199.5,224.88)" ed:tosuperid="118" ed:parentid="112" stroke-linecap="round" d="M0,-5.9L0,-0.1C0,3.2,2.7,5.9,6,5.9L13.5,5.9" stroke="#454545" stroke-linejoin="round"/><path fill="none" id="121" transform="matrix(1,0,0,1,199.5,241.13)" ed:tosuperid="120" ed:parentid="112" stroke-linecap="round" d="M0,-22.1L0,16.1C0,19.4,2.7,22.1,6,22.1L13.5,22.1" stroke="#454545" stroke-linejoin="round"/><path fill="none" id="129" transform="matrix(1,0,0,1,540.79,96.5)" ed:tosuperid="128" ed:parentid="127" stroke-linecap="round" d="M-13.5,56L0,56L0,-50C0,-53.3,2.7,-56,6,-56L13.5,-56" stroke="#454545" stroke-linejoin="round"/><path fill="none" id="132" transform="matrix(1,0,0,1,540.79,110.5)" ed:tosuperid="131" ed:parentid="127" stroke-linecap="round" d="M0,42L0,-36C0,-39.3,2.7,-42,6,-42L13.5,-42" stroke="#454545" stroke-linejoin="round"/><path fill="none" id="134" transform="matrix(1,0,0,1,540.79,124.5)" ed:tosuperid="133" ed:parentid="127" stroke-linecap="round" d="M0,28L0,-22C0,-25.3,2.7,-28,6,-28L13.5,-28" stroke="#454545" stroke-linejoin="round"/><path fill="none" id="136" transform="matrix(1,0,0,1,540.79,138.5)" ed:tosuperid="135" ed:parentid="127" stroke-linecap="round" d="M0,14L0,-8C0,-11.3,2.7,-14,6,-14L13.5,-14" stroke="#454545" stroke-linejoin="round"/><path fill="none" id="138" transform="matrix(1,0,0,1,540.79,152.5)" ed:tosuperid="137" ed:parentid="127" stroke-linecap="round" d="M0,0C0,0,2.7,0,6,0L13.5,0" stroke="#454545" stroke-linejoin="round"/><path fill="none" id="140" transform="matrix(1,0,0,1,540.79,166.5)" ed:tosuperid="139" ed:parentid="127" stroke-linecap="round" d="M0,-14L0,8C0,11.3,2.7,14,6,14L13.5,14" stroke="#454545" stroke-linejoin="round"/><path fill="none" id="142" transform="matrix(1,0,0,1,540.79,180.5)" ed:tosuperid="141" ed:parentid="127" stroke-linecap="round" d="M0,-28L0,22C0,25.3,2.7,28,6,28L13.5,28" stroke="#454545" stroke-linejoin="round"/><path fill="none" id="144" transform="matrix(1,0,0,1,540.79,194.5)" ed:tosuperid="143" ed:parentid="127" stroke-linecap="round" d="M0,-42L0,36C0,39.3,2.7,42,6,42L13.5,42" stroke="#454545" stroke-linejoin="round"/><path fill="none" id="146" transform="matrix(1,0,0,1,540.79,208.5)" ed:tosuperid="145" ed:parentid="127" stroke-linecap="round" d="M0,-56L0,50C0,53.3,2.7,56,6,56L13.5,56" stroke="#454545" stroke-linejoin="round"/><path fill="none" id="148" transform="matrix(1,0,0,1,381.89,178)" ed:tosuperid="147" ed:parentid="123" stroke-linecap="round" d="M-13.5,14L0,14L0,-8C0,-11.3,2.7,-14,6,-14L13.5,-14" stroke="#454545" stroke-linejoin="round"/><path fill="none" id="150" transform="matrix(1,0,0,1,381.89,192)" ed:tosuperid="149" ed:parentid="123" stroke-linecap="round" d="M0,0C0,0,2.7,0,6,0L13.5,0" stroke="#454545" stroke-linejoin="round"/><path fill="none" id="152" transform="matrix(1,0,0,1,381.89,206)" ed:tosuperid="151" ed:parentid="123" stroke-linecap="round" d="M0,-14L0,8C0,11.3,2.7,14,6,14L13.5,14" stroke="#454545" stroke-linejoin="round"/><g id="153" ed:layout="rightmap" transform="matrix(1,0,0,1,340.39,101.5)" ed:height="33" ed:parentid="123" ed:width="132.896875" ed:topictype="callout"><path fill="#ffffff" stroke-width="2" d="M16.5,0L116.4,0C125.5,0,132.9,7.4,132.9,16.5C132.9,25.6,125.5,33,116.4,33L61.4,33L28,70.7L49.1,33L16.5,33C7.4,33,0,25.6,0,16.5C0,7.4,7.4,0,16.5,0z" stroke="#00af54" stroke-linejoin="round"/><text class="st9"><tspan style="white-space:pre" y="20.5" textLength="102" x="14">注意指针引用，&amp;</tspan></text></g><g id="101" ed:layout="rightmap" transform="matrix(1,0,0,1,23,79.5)" ed:height="108" ed:width="42" ed:topictype="mainidea"><path fill="#00af54" stroke-width="3" d="M4,0L38,0C40.7,0,42,1.3,42,4L42,104C42,106.7,40.7,108,38,108L4,108C1.3,108,0,106.7,0,104L0,4C0,1.3,1.3,0,4,0z" stroke="#00af54" stroke-linejoin="round"/><text class="st10"><tspan style="white-space:pre" y="30" textLength="24" x="9">线</tspan><tspan style="white-space:pre" y="62" textLength="24" x="9">性</tspan><tspan style="white-space:pre" y="94" textLength="24" x="9">表</tspan></text></g><g id="102" transform="matrix(1,0,0,1,128,27.5)" ed:height="41" ed:parentid="101" ed:width="115"><path fill="#ffffff" stroke-width="2" d="M4,0L111,0C113.7,0,115,1.3,115,4L115,37C115,39.7,113.7,41,111,41L4,41C1.3,41,0,39.7,0,37L0,4C0,1.3,1.3,0,4,0z" stroke="#454545" stroke-linejoin="round"/><text class="st11"><tspan style="white-space:pre" y="26.5" textLength="76" x="18">顺序存储</tspan></text></g><g id="110" transform="matrix(1,0,0,1,286.2,26.5)" ed:height="21.5" ed:parentid="102" ed:width="57"><path fill="#ffffff" d="M0,0L57,0L57,21.5L0,21.5L0,0z"/><path fill="none" d="M0,21.5L57,21.5" stroke="#454545" stroke-linejoin="round"/><text class="st12"><tspan style="white-space:pre" y="14.65" textLength="39" x="8">顺序表</tspan></text></g><g id="112" transform="matrix(1,0,0,1,128,159.5)" ed:height="119" ed:parentid="101" ed:width="58"><path fill="#ffffff" stroke-width="2" d="M4,0L54,0C56.7,0,58,1.3,58,4L58,115C58,117.7,56.7,119,54,119L4,119C1.3,119,0,117.7,0,115L0,4C0,1.3,1.3,0,4,0z" stroke="#454545" stroke-linejoin="round"/><text class="st11"><tspan style="white-space:pre" y="26.5" textLength="19" x="18">链</tspan><tspan style="white-space:pre" y="52.5" textLength="19" x="18">式</tspan><tspan style="white-space:pre" y="78.5" textLength="19" x="18">存</tspan><tspan style="white-space:pre" y="104.5" textLength="19" x="18">储</tspan></text></g><g id="114" transform="matrix(1,0,0,1,213,153.25)" ed:height="21.5" ed:parentid="112" ed:width="98.15625"><path fill="#ffffff" d="M0,0L98.2,0L98.2,21.5L0,21.5L0,0z"/><path fill="none" d="M0,21.5L98.2,21.5" stroke="#454545" stroke-linejoin="round"/><text class="st12"><tspan style="white-space:pre" y="14.65" textLength="80" x="8">单链表LNode</tspan></text></g><g id="116" transform="matrix(1,0,0,1,213,181.25)" ed:height="21.5" ed:parentid="112" ed:width="101.390625"><path fill="#ffffff" d="M0,0L101.4,0L101.4,21.5L0,21.5L0,0z"/><path fill="none" d="M0,21.5L101.4,21.5" stroke="#454545" stroke-linejoin="round"/><text class="st12"><tspan style="white-space:pre" y="14.65" textLength="83" x="8">双链表DNode</tspan></text></g><g id="118" transform="matrix(1,0,0,1,213,209.25)" ed:height="21.5" ed:parentid="112" ed:width="70"><path fill="#ffffff" d="M0,0L70,0L70,21.5L0,21.5L0,0z"/><path fill="none" d="M0,21.5L70,21.5" stroke="#454545" stroke-linejoin="round"/><text class="st12"><tspan style="white-space:pre" y="14.65" textLength="52" x="8">循环链表</tspan></text></g><g id="120" transform="matrix(1,0,0,1,213,241.75)" ed:height="21.5" ed:parentid="112" ed:width="70"><path fill="#ffffff" d="M0,0L70,0L70,21.5L0,21.5L0,0z"/><path fill="none" d="M0,21.5L70,21.5" stroke="#454545" stroke-linejoin="round"/><text class="st12"><tspan style="white-space:pre" y="14.65" textLength="52" x="8">静态链表</tspan></text></g><g id="123" ed:layout="rightmap" transform="matrix(1,0,0,1,340.39,151.5)" ed:height="81" ed:parentid="122" ed:width="28"><path fill="#ffffff" stroke-width="2" d="M4,0L24,0C26.7,0,28,1.3,28,4L28,77C28,79.7,26.7,81,24,81L4,81C1.3,81,0,79.7,0,77L0,4C0,1.3,1.3,0,4,0z" stroke="#00af54" stroke-linejoin="round"/><text class="st9"><tspan style="white-space:pre" y="17.5" textLength="13" x="6">指</tspan><tspan style="white-space:pre" y="35.5" textLength="13" x="6">针</tspan><tspan style="white-space:pre" y="53.5" textLength="13" x="6">实</tspan><tspan style="white-space:pre" y="71.5" textLength="13" x="6">现</tspan></text></g><g id="125" ed:layout="rightmap" transform="matrix(1,0,0,1,309,239)" ed:height="27" ed:parentid="124" ed:width="104.6"><path fill="#ffffff" stroke-width="2" d="M13.5,0L91.1,0C98.6,0,104.6,6,104.6,13.5C104.6,21,98.6,27,91.1,27L13.5,27C6,27,0,21,0,13.5C0,6,6,0,13.5,0z" stroke="#00af54" stroke-linejoin="round"/><text class="st9"><tspan style="white-space:pre" y="17.5" textLength="78" x="12">借助数组实现</tspan></text></g><g id="127" ed:layout="rightmap" transform="matrix(1,0,0,1,499.29,112)" ed:height="81" ed:parentid="126" ed:width="28"><path fill="#ffffff" stroke-width="2" d="M4,0L24,0C26.7,0,28,1.3,28,4L28,77C28,79.7,26.7,81,24,81L4,81C1.3,81,0,79.7,0,77L0,4C0,1.3,1.3,0,4,0z" stroke="#00af54" stroke-linejoin="round"/><text class="st9"><tspan style="white-space:pre" y="17.5" textLength="13" x="6">基</tspan><tspan style="white-space:pre" y="35.5" textLength="13" x="6">本</tspan><tspan style="white-space:pre" y="53.5" textLength="13" x="6">操</tspan><tspan style="white-space:pre" y="71.5" textLength="13" x="6">作</tspan></text></g><g id="128" transform="matrix(1,0,0,1,554.29,19)" ed:height="21.5" ed:parentid="127" ed:width="153.78125"><path fill="#ffffff" d="M0,0L153.8,0L153.8,21.5L0,21.5L0,0z"/><path fill="none" d="M0,21.5L153.8,21.5" stroke="#454545" stroke-linejoin="round"/><text class="st12"><tspan style="white-space:pre" y="14.65" textLength="136" x="8">InitList(&amp;L),初始化表。</tspan></text></g><g id="131" transform="matrix(1,0,0,1,554.29,47)" ed:height="21.5" ed:parentid="127" ed:width="265.140625"><path fill="#ffffff" d="M0,0L265.1,0L265.1,21.5L0,21.5L0,0z"/><path fill="none" d="M0,21.5L265.1,21.5" stroke="#454545" stroke-linejoin="round"/><text class="st12"><tspan style="white-space:pre" y="14.65" textLength="247" x="8">Length(L)，求表厂，返回L长度，即表个数</tspan></text></g><g id="133" transform="matrix(1,0,0,1,554.29,75)" ed:height="21.5" ed:parentid="127" ed:width="322.75"><path fill="#ffffff" d="M0,0L322.8,0L322.8,21.5L0,21.5L0,0z"/><path fill="none" d="M0,21.5L322.8,21.5" stroke="#454545" stroke-linejoin="round"/><text class="st12"><tspan style="white-space:pre" y="14.65" textLength="305" x="8">LocateElem(L,e)，按值查找，返回关键字的元素的值</tspan></text></g><g id="135" transform="matrix(1,0,0,1,554.29,103)" ed:height="21.5" ed:parentid="127" ed:width="316.34375"><path fill="#ffffff" d="M0,0L316.3,0L316.3,21.5L0,21.5L0,0z"/><path fill="none" d="M0,21.5L316.3,21.5" stroke="#454545" stroke-linejoin="round"/><text class="st12"><tspan style="white-space:pre" y="14.65" textLength="298" x="8">GetElem(L,i)，按位置查找，返回对i个位置元素的值</tspan></text></g><g id="137" transform="matrix(1,0,0,1,554.29,131)" ed:height="21.5" ed:parentid="127" ed:width="304.109375"><path fill="#ffffff" d="M0,0L304.1,0L304.1,21.5L0,21.5L0,0z"/><path fill="none" d="M0,21.5L304.1,21.5" stroke="#454545" stroke-linejoin="round"/><text class="st12"><tspan style="white-space:pre" y="14.65" textLength="286" x="8">ListInsert(&amp;L,i,e)，在L表的第i位置插入指定元素e</tspan></text></g><g id="139" transform="matrix(1,0,0,1,554.29,159)" ed:height="21.5" ed:parentid="127" ed:width="372.71875"><path fill="#ffffff" d="M0,0L372.7,0L372.7,21.5L0,21.5L0,0z"/><path fill="none" d="M0,21.5L372.7,21.5" stroke="#454545" stroke-linejoin="round"/><text class="st12"><tspan style="white-space:pre" y="14.65" textLength="355" x="8">ListDelete(&amp;L,i,&amp;e)删除表L的第i个位置元素，并用e返回其值</tspan></text></g><g id="141" transform="matrix(1,0,0,1,554.29,187)" ed:height="21.5" ed:parentid="127" ed:width="207.109375"><path fill="#ffffff" d="M0,0L207.1,0L207.1,21.5L0,21.5L0,0z"/><path fill="none" d="M0,21.5L207.1,21.5" stroke="#454545" stroke-linejoin="round"/><text class="st12"><tspan style="white-space:pre" y="14.65" textLength="189" x="8">PrintList(L)，输出表L所有元素值</tspan></text></g><g id="143" transform="matrix(1,0,0,1,554.29,215)" ed:height="21.5" ed:parentid="127" ed:width="288.953125"><path fill="#ffffff" d="M0,0L289,0L289,21.5L0,21.5L0,0z"/><path fill="none" d="M0,21.5L289,21.5" stroke="#454545" stroke-linejoin="round"/><text class="st12"><tspan style="white-space:pre" y="14.65" textLength="271" x="8">Empty(L)，判断表L是否为空，返回true、false</tspan></text></g><g id="145" transform="matrix(1,0,0,1,554.29,243)" ed:height="21.5" ed:parentid="127" ed:width="305.53125"><path fill="#ffffff" d="M0,0L305.5,0L305.5,21.5L0,21.5L0,0z"/><path fill="none" d="M0,21.5L305.5,21.5" stroke="#454545" stroke-linejoin="round"/><text class="st12"><tspan style="white-space:pre" y="14.65" textLength="288" x="8">DestroyList(&amp;L),销毁表L，并释放其所占内存空间</tspan></text></g><g id="147" transform="matrix(1,0,0,1,395.39,142.5)" ed:height="21.5" ed:parentid="123" ed:width="47.90625"><path fill="#ffffff" d="M0,0L47.9,0L47.9,21.5L0,21.5L0,0z"/><path fill="none" d="M0,21.5L47.9,21.5" stroke="#454545" stroke-linejoin="round"/><text class="st12"><tspan style="white-space:pre" y="14.65" textLength="30" x="8">prior</tspan></text></g><g id="149" transform="matrix(1,0,0,1,395.39,170.5)" ed:height="21.5" ed:parentid="123" ed:width="44.78125"><path fill="#ffffff" d="M0,0L44.8,0L44.8,21.5L0,21.5L0,0z"/><path fill="none" d="M0,21.5L44.8,21.5" stroke="#454545" stroke-linejoin="round"/><text class="st12"><tspan style="white-space:pre" y="14.65" textLength="27" x="8">next</tspan></text></g><g id="151" transform="matrix(1,0,0,1,395.39,198.5)" ed:height="21.5" ed:parentid="123" ed:width="45.484375"><path fill="#ffffff" d="M0,0L45.5,0L45.5,21.5L0,21.5L0,0z"/><path fill="none" d="M0,21.5L45.5,21.5" stroke="#454545" stroke-linejoin="round"/><text class="st12"><tspan style="white-space:pre" y="14.65" textLength="27" x="8">data</tspan></text></g></svg>