<svg xmlns="http://www.w3.org/2000/svg" xmlns:xlink="http://www.w3.org/1999/xlink" ed:hSpacing="30" height="1402" xmlns:ev="http://www.w3.org/2001/xml-events" ed:vSpacing="30" ed:name="页面-1" id="page100" xmlns:ed="https://www.edrawsoft.cn/xml/2017/SVGExtensions/" viewBox="0 0 649 1402" width="649"><style type="text/css"><![CDATA[
g[ed\:togtopicid],g[ed\:hyperlink],g[ed\:comment],g[ed\:note] {cursor:pointer;}
g[id] {-moz-user-select: none;-ms-user-select: none;user-select: none;}
svg text::selection,svg tspan::selection{background-color: #4285f4;color: #ffffff;fill: #ffffff;}
.st8 {fill:#01928f;font-family:Microsoft YaHei;font-size:10.5pt}
.st9 {fill:#303030;font-family:Microsoft YaHei;font-size:9pt}
.st7 {fill:#5274e1;font-family:Microsoft YaHei;font-size:12pt;font-weight:bold}
.st6 {fill:#ffffff;font-family:Microsoft YaHei;font-size:15pt;font-weight:bold}
]]></style><defs/><rect height="1402" fill="#ffffff" x="0" width="649" y="0"/><path stroke-linecap="round" ed:parentid="101" stroke-linejoin="round" transform="matrix(1,0,0,1,83,400.19)" stroke-width="3" fill="none" d="M-22,311.2L9.5,311.2L9.5,-305.2C9.5,-308.5,12.2,-311.2,15.5,-311.2L41,-311.2" ed:tosuperid="102" id="103" stroke="#5274e1"/><path stroke-linecap="round" ed:parentid="101" stroke-linejoin="round" transform="matrix(1,0,0,1,83,500.44)" stroke-width="3" fill="none" d="M-22,210.9L9.5,210.9L9.5,-204.9C9.5,-208.2,12.2,-210.9,15.5,-210.9L41,-210.9" ed:tosuperid="104" id="105" stroke="#5274e1"/><path stroke-linecap="round" ed:parentid="101" stroke-linejoin="round" transform="matrix(1,0,0,1,83,646.69)" stroke-width="3" fill="none" d="M-22,64.7L9.5,64.7L9.5,-58.7C9.5,-62,12.2,-64.7,15.5,-64.7L41,-64.7" ed:tosuperid="106" id="107" stroke="#5274e1"/><path stroke-linecap="round" ed:parentid="106" stroke-linejoin="round" transform="matrix(1,0,0,1,192.5,508.25)" fill="none" d="M-13.5,73.8L0,73.8L0,-67.8C0,-71.1,2.7,-73.8,6,-73.8L13.5,-73.8" ed:tosuperid="110" id="111" stroke="#5274e1"/><path stroke-linecap="round" ed:parentid="106" stroke-linejoin="round" transform="matrix(1,0,0,1,192.5,523)" fill="none" d="M0,59L0,-53C0,-56.3,2.7,-59,6,-59L13.5,-59" ed:tosuperid="112" id="113" stroke="#5274e1"/><path stroke-linecap="round" ed:parentid="106" stroke-linejoin="round" transform="matrix(1,0,0,1,192.5,537.75)" fill="none" d="M0,44.3L0,-38.3C0,-41.6,2.7,-44.3,6,-44.3L13.5,-44.3" ed:tosuperid="114" id="115" stroke="#5274e1"/><path stroke-linecap="round" ed:parentid="106" stroke-linejoin="round" transform="matrix(1,0,0,1,192.5,552.5)" fill="none" d="M0,29.5L0,-23.5C0,-26.8,2.7,-29.5,6,-29.5L13.5,-29.5" ed:tosuperid="116" id="117" stroke="#5274e1"/><path stroke-linecap="round" ed:parentid="106" stroke-linejoin="round" transform="matrix(1,0,0,1,192.5,567.25)" fill="none" d="M0,14.8L0,-8.8C0,-12.1,2.7,-14.8,6,-14.8L13.5,-14.8" ed:tosuperid="118" id="119" stroke="#5274e1"/><path stroke-linecap="round" ed:parentid="106" stroke-linejoin="round" transform="matrix(1,0,0,1,192.5,582)" fill="none" d="M0,0C0,0,2.7,0,6,0L13.5,0" ed:tosuperid="120" id="121" stroke="#5274e1"/><path stroke-linecap="round" ed:parentid="106" stroke-linejoin="round" transform="matrix(1,0,0,1,192.5,596.75)" fill="none" d="M0,-14.8L0,8.8C0,12.1,2.7,14.8,6,14.8L13.5,14.8" ed:tosuperid="122" id="123" stroke="#5274e1"/><path stroke-linecap="round" ed:parentid="106" stroke-linejoin="round" transform="matrix(1,0,0,1,192.5,611.5)" fill="none" d="M0,-29.5L0,23.5C0,26.8,2.7,29.5,6,29.5L13.5,29.5" ed:tosuperid="124" id="125" stroke="#5274e1"/><path stroke-linecap="round" ed:parentid="106" stroke-linejoin="round" transform="matrix(1,0,0,1,192.5,626.25)" fill="none" d="M0,-44.3L0,38.3C0,41.6,2.7,44.3,6,44.3L13.5,44.3" ed:tosuperid="126" id="127" stroke="#5274e1"/><path stroke-linecap="round" ed:parentid="106" stroke-linejoin="round" transform="matrix(1,0,0,1,192.5,641)" fill="none" d="M0,-59L0,53C0,56.3,2.7,59,6,59L13.5,59" ed:tosuperid="128" id="129" stroke="#5274e1"/><path stroke-linecap="round" ed:parentid="106" stroke-linejoin="round" transform="matrix(1,0,0,1,192.5,655.75)" fill="none" d="M0,-73.8L0,67.8C0,71.1,2.7,73.8,6,73.8L13.5,73.8" ed:tosuperid="130" id="131" stroke="#5274e1"/><path stroke-linecap="round" ed:parentid="104" stroke-linejoin="round" transform="matrix(1,0,0,1,192.5,256.25)" fill="none" d="M-13.5,33.3L0,33.3L0,-27.3C0,-30.6,2.7,-33.3,6,-33.3L13.5,-33.3" ed:tosuperid="134" id="135" stroke="#5274e1"/><path stroke-linecap="round" ed:parentid="134" stroke-linejoin="round" transform="matrix(1,0,0,1,296.5,212.5)" fill="none" d="M-13.5,10.5L0,10.5L0,-4.5C0,-7.8,2.7,-10.5,6,-10.5L13.5,-10.5" ed:tosuperid="136" id="137" stroke="#5274e1"/><path stroke-linecap="round" ed:parentid="134" stroke-linejoin="round" transform="matrix(1,0,0,1,296.5,233.5)" fill="none" d="M0,-10.5L0,4.5C0,7.8,2.7,10.5,6,10.5L13.5,10.5" ed:tosuperid="138" id="139" stroke="#5274e1"/><path stroke-linecap="round" ed:parentid="104" stroke-linejoin="round" transform="matrix(1,0,0,1,192.5,286.25)" fill="none" d="M0,3.3C0,-0.6,2.7,-3.3,6,-3.3L13.5,-3.3" ed:tosuperid="140" id="141" stroke="#5274e1"/><path stroke-linecap="round" ed:parentid="140" stroke-linejoin="round" transform="matrix(1,0,0,1,282.5,276.5)" fill="none" d="M-13.5,6.5L0,6.5L0,-0.5C0,-3.8,2.7,-6.5,6,-6.5L13.5,-6.5" ed:tosuperid="142" id="143" stroke="#5274e1"/><path stroke-linecap="round" ed:parentid="140" stroke-linejoin="round" transform="matrix(1,0,0,1,282.5,289.5)" fill="none" d="M0,-6.5L0,0.5C0,3.8,2.7,6.5,6,6.5L13.5,6.5" ed:tosuperid="144" id="145" stroke="#5274e1"/><path stroke-linecap="round" ed:parentid="104" stroke-linejoin="round" transform="matrix(1,0,0,1,192.5,322.75)" fill="none" d="M0,-33.3L0,27.3C0,30.6,2.7,33.3,6,33.3L13.5,33.3" ed:tosuperid="146" id="147" stroke="#5274e1"/><path stroke-linecap="round" ed:parentid="146" stroke-linejoin="round" transform="matrix(1,0,0,1,296.5,339)" fill="none" d="M-13.5,17L0,17L0,-11C0,-14.3,2.7,-17,6,-17L13.5,-17" ed:tosuperid="148" id="149" stroke="#5274e1"/><path stroke-linecap="round" ed:parentid="146" stroke-linejoin="round" transform="matrix(1,0,0,1,296.5,360)" fill="none" d="M0,-4L0,-2C0,1.3,2.7,4,6,4L13.5,4" ed:tosuperid="150" id="151" stroke="#5274e1"/><path stroke-linecap="round" ed:parentid="146" stroke-linejoin="round" transform="matrix(1,0,0,1,296.5,373)" fill="none" d="M0,-17L0,11C0,14.3,2.7,17,6,17L13.5,17" ed:tosuperid="152" id="153" stroke="#5274e1"/><path stroke-linecap="round" ed:parentid="102" stroke-linejoin="round" transform="matrix(1,0,0,1,192.5,84)" fill="none" d="M0,5L0,1C0,-2.3,2.7,-5,6,-5L13.5,-5" ed:tosuperid="154" id="155" stroke="#5274e1"/><path stroke-linecap="round" ed:parentid="102" stroke-linejoin="round" transform="matrix(1,0,0,1,192.5,98.75)" fill="none" d="M0,-9.8L0,3.8C0,7.1,2.7,9.8,6,9.8L13.5,9.8" ed:tosuperid="156" id="157" stroke="#5274e1"/><path stroke-linecap="round" ed:parentid="102" stroke-linejoin="round" transform="matrix(1,0,0,1,192.5,113.5)" fill="none" d="M0,-24.5L0,18.5C0,21.8,2.7,24.5,6,24.5L13.5,24.5" ed:tosuperid="158" id="159" stroke="#5274e1"/><path stroke-linecap="round" ed:parentid="102" stroke-linejoin="round" transform="matrix(1,0,0,1,192.5,64.5)" fill="none" d="M-13.5,24.5L0,24.5L0,-18.5C0,-21.8,2.7,-24.5,6,-24.5L13.5,-24.5" ed:tosuperid="160" id="161" stroke="#5274e1"/><path stroke-linecap="round" ed:parentid="101" stroke-linejoin="round" transform="matrix(1,0,0,1,83,778.06)" stroke-width="3" fill="none" d="M-22,-66.7L9.5,-66.7L9.5,60.7C9.5,64,12.2,66.7,15.5,66.7L41,66.7" ed:tosuperid="162" id="163" stroke="#5274e1"/><path stroke-linecap="round" ed:parentid="162" stroke-linejoin="round" transform="matrix(1,0,0,1,192.5,825.63)" fill="none" d="M-13.5,19.1L0,19.1L0,-13.1C0,-16.4,2.7,-19.1,6,-19.1L13.5,-19.1" ed:tosuperid="164" id="165" stroke="#5274e1"/><path stroke-linecap="round" ed:parentid="162" stroke-linejoin="round" transform="matrix(1,0,0,1,192.5,845.13)" fill="none" d="M0,-0.4C0,0,2.7,0.4,6,0.4L13.5,0.4" ed:tosuperid="166" id="167" stroke="#5274e1"/><path stroke-linecap="round" ed:parentid="162" stroke-linejoin="round" transform="matrix(1,0,0,1,192.5,863.88)" fill="none" d="M0,-19.1L0,13.1C0,16.4,2.7,19.1,6,19.1L13.5,19.1" ed:tosuperid="168" id="169" stroke="#5274e1"/><path stroke-linecap="round" ed:parentid="168" stroke-linejoin="round" transform="matrix(1,0,0,1,296.5,883)" fill="none" d="M-13.5,0L0,0C0,0,2.7,0,6,0L13.5,0" ed:tosuperid="170" id="171" stroke="#5274e1"/><path stroke-linecap="round" ed:parentid="164" stroke-linejoin="round" transform="matrix(1,0,0,1,350.13,800)" fill="none" d="M-13.5,6.5L0,6.5L0,-0.5C0,-3.8,2.7,-6.5,6,-6.5L13.5,-6.5" ed:tosuperid="172" id="173" stroke="#5274e1"/><path stroke-linecap="round" ed:parentid="164" stroke-linejoin="round" transform="matrix(1,0,0,1,350.13,813)" fill="none" d="M0,-6.5L0,0.5C0,3.8,2.7,6.5,6,6.5L13.5,6.5" ed:tosuperid="174" id="175" stroke="#5274e1"/><path stroke-linecap="round" ed:parentid="166" stroke-linejoin="round" transform="matrix(1,0,0,1,348.56,845.5)" fill="none" d="M-13.5,0L0,0C0,0,2.7,0,6,0L13.5,0" ed:tosuperid="176" id="177" stroke="#5274e1"/><path stroke-linecap="round" ed:parentid="101" stroke-linejoin="round" transform="matrix(1,0,0,1,83,878.81)" stroke-width="3" fill="none" d="M-22,-167.4L9.5,-167.4L9.5,161.4C9.5,164.7,12.2,167.4,15.5,167.4L41,167.4" ed:tosuperid="178" id="179" stroke="#5274e1"/><path stroke-linecap="round" ed:parentid="178" stroke-linejoin="round" transform="matrix(1,0,0,1,192.5,1010.5)" fill="none" d="M-13.5,35.8L0,35.8L0,-29.8C0,-33.1,2.7,-35.8,6,-35.8L13.5,-35.8" ed:tosuperid="180" id="181" stroke="#5274e1"/><path stroke-linecap="round" ed:parentid="178" stroke-linejoin="round" transform="matrix(1,0,0,1,192.5,1049.5)" fill="none" d="M0,-3.3C0,0.6,2.7,3.3,6,3.3L13.5,3.3" ed:tosuperid="182" id="183" stroke="#5274e1"/><path stroke-linecap="round" ed:parentid="178" stroke-linejoin="round" transform="matrix(1,0,0,1,192.5,1082)" fill="none" d="M0,-35.8L0,29.8C0,33.1,2.7,35.8,6,35.8L13.5,35.8" ed:tosuperid="184" id="185" stroke="#5274e1"/><path stroke-linecap="round" ed:parentid="180" stroke-linejoin="round" transform="matrix(1,0,0,1,282.5,961.75)" fill="none" d="M-13.5,13L0,13L0,-7C0,-10.3,2.7,-13,6,-13L13.5,-13" ed:tosuperid="186" id="187" stroke="#5274e1"/><path stroke-linecap="round" ed:parentid="180" stroke-linejoin="round" transform="matrix(1,0,0,1,282.5,974.75)" fill="none" d="M0,0C0,0,2.7,0,6,0L13.5,0" ed:tosuperid="188" id="189" stroke="#5274e1"/><path stroke-linecap="round" ed:parentid="180" stroke-linejoin="round" transform="matrix(1,0,0,1,282.5,987.75)" fill="none" d="M0,-13L0,7C0,10.3,2.7,13,6,13L13.5,13" ed:tosuperid="190" id="191" stroke="#5274e1"/><path stroke-linecap="round" ed:parentid="182" stroke-linejoin="round" transform="matrix(1,0,0,1,282.5,1039.75)" fill="none" d="M-13.5,13L0,13L0,-7C0,-10.3,2.7,-13,6,-13L13.5,-13" ed:tosuperid="192" id="193" stroke="#5274e1"/><path stroke-linecap="round" ed:parentid="182" stroke-linejoin="round" transform="matrix(1,0,0,1,282.5,1052.75)" fill="none" d="M0,0C0,0,2.7,0,6,0L13.5,0" ed:tosuperid="194" id="195" stroke="#5274e1"/><path stroke-linecap="round" ed:parentid="182" stroke-linejoin="round" transform="matrix(1,0,0,1,282.5,1065.75)" fill="none" d="M0,-13L0,7C0,10.3,2.7,13,6,13L13.5,13" ed:tosuperid="196" id="197" stroke="#5274e1"/><path stroke-linecap="round" ed:parentid="184" stroke-linejoin="round" transform="matrix(1,0,0,1,282.5,1111.25)" fill="none" d="M-13.5,6.5L0,6.5L0,-0.5C0,-3.8,2.7,-6.5,6,-6.5L13.5,-6.5" ed:tosuperid="198" id="199" stroke="#5274e1"/><path stroke-linecap="round" ed:parentid="184" stroke-linejoin="round" transform="matrix(1,0,0,1,282.5,1124.25)" fill="none" d="M0,-6.5L0,0.5C0,3.8,2.7,6.5,6,6.5L13.5,6.5" ed:tosuperid="200" id="201" stroke="#5274e1"/><path stroke-linecap="round" ed:parentid="101" stroke-linejoin="round" transform="matrix(1,0,0,1,83,952.31)" stroke-width="3" fill="none" d="M-22,-240.9L9.5,-240.9L9.5,234.9C9.5,238.2,12.2,240.9,15.5,240.9L41,240.9" ed:tosuperid="204" id="205" stroke="#5274e1"/><path stroke-linecap="round" ed:parentid="204" stroke-linejoin="round" transform="matrix(1,0,0,1,208.5,1185.88)" fill="none" d="M-13.5,7.4L0,7.4L0,-1.4C0,-4.7,2.7,-7.4,6,-7.4L13.5,-7.4" ed:tosuperid="206" id="207" stroke="#5274e1"/><path stroke-linecap="round" ed:parentid="204" stroke-linejoin="round" transform="matrix(1,0,0,1,208.5,1200.63)" fill="none" d="M0,-7.4L0,1.4C0,4.7,2.7,7.4,6,7.4L13.5,7.4" ed:tosuperid="208" id="209" stroke="#5274e1"/><path stroke-linecap="round" ed:parentid="101" stroke-linejoin="round" transform="matrix(1,0,0,1,83,1022.56)" stroke-width="3" fill="none" d="M-22,-311.2L9.5,-311.2L9.5,305.2C9.5,308.5,12.2,311.2,15.5,311.2L41,311.2" ed:tosuperid="210" id="211" stroke="#5274e1"/><path stroke-linecap="round" ed:parentid="210" stroke-linejoin="round" transform="matrix(1,0,0,1,208.5,1317.5)" fill="none" d="M-13.5,16.3L0,16.3L0,-10.3C0,-13.6,2.7,-16.3,6,-16.3L13.5,-16.3" ed:tosuperid="212" id="213" stroke="#5274e1"/><path stroke-linecap="round" ed:parentid="210" stroke-linejoin="round" transform="matrix(1,0,0,1,208.5,1350)" fill="none" d="M0,-16.3L0,10.3C0,13.6,2.7,16.3,6,16.3L13.5,16.3" ed:tosuperid="214" id="215" stroke="#5274e1"/><path stroke-linecap="round" ed:parentid="214" stroke-linejoin="round" transform="matrix(1,0,0,1,298.5,1359.75)" fill="none" d="M-13.5,6.5L0,6.5L0,-0.5C0,-3.8,2.7,-6.5,6,-6.5L13.5,-6.5" ed:tosuperid="216" id="217" stroke="#5274e1"/><path stroke-linecap="round" ed:parentid="214" stroke-linejoin="round" transform="matrix(1,0,0,1,298.5,1372.75)" fill="none" d="M0,-6.5L0,0.5C0,3.8,2.7,6.5,6,6.5L13.5,6.5" ed:tosuperid="218" id="219" stroke="#5274e1"/><path stroke-linecap="round" ed:parentid="212" stroke-linejoin="round" transform="matrix(1,0,0,1,282.66,1288.25)" fill="none" d="M-13.5,13L0,13L0,-7C0,-10.3,2.7,-13,6,-13L13.5,-13" ed:tosuperid="220" id="221" stroke="#5274e1"/><path stroke-linecap="round" ed:parentid="212" stroke-linejoin="round" transform="matrix(1,0,0,1,282.66,1301.25)" fill="none" d="M0,0C0,0,2.7,0,6,0L13.5,0" ed:tosuperid="222" id="223" stroke="#5274e1"/><path stroke-linecap="round" ed:parentid="212" stroke-linejoin="round" transform="matrix(1,0,0,1,282.66,1314.25)" fill="none" d="M0,-13L0,7C0,10.3,2.7,13,6,13L13.5,13" ed:tosuperid="224" id="225" stroke="#5274e1"/><g ed:height="66" ed:layout="map" transform="matrix(1,0,0,1,23,678.38)" ed:topictype="mainidea" ed:width="38" id="101"><path stroke-linejoin="round" fill="#00b050" stroke-width="3" d="M4,0L34,0C36.7,0,38,1.3,38,4L38,62C38,64.7,36.7,66,34,66L4,66C1.3,66,0,64.7,0,62L0,4C0,1.3,1.3,0,4,0z" stroke="#5274e1"/><text class="st6"><tspan style="white-space:pre" textLength="20" x="9" y="26">线</tspan><tspan style="white-space:pre" textLength="20" x="9" y="53">程</tspan></text></g><g ed:parentid="101" ed:height="59" ed:layout="rightmap" transform="matrix(1,0,0,1,124,59.5)" ed:width="55" id="102"><path stroke-linejoin="round" fill="#ffffff" stroke-width="2" d="M4,0L51,0C53.7,0,55,1.3,55,4L55,55C55,57.7,53.7,59,51,59L4,59C1.3,59,0,57.7,0,55L0,4C0,1.3,1.3,0,4,0z" stroke="#92a7ff"/><text class="st7"><tspan style="white-space:pre" textLength="16" x="18" y="23.5">基</tspan><tspan style="white-space:pre" textLength="16" x="18" y="45.5">础</tspan></text></g><g ed:parentid="101" ed:height="59" ed:layout="rightmap" transform="matrix(1,0,0,1,124,260)" ed:width="55" id="104"><path stroke-linejoin="round" fill="#ffffff" stroke-width="2" d="M4,0L51,0C53.7,0,55,1.3,55,4L55,55C55,57.7,53.7,59,51,59L4,59C1.3,59,0,57.7,0,55L0,4C0,1.3,1.3,0,4,0z" stroke="#92a7ff"/><text class="st7"><tspan style="white-space:pre" textLength="16" x="18" y="23.5">优</tspan><tspan style="white-space:pre" textLength="16" x="18" y="45.5">势</tspan></text></g><g ed:parentid="101" ed:height="59" ed:layout="rightmap" transform="matrix(1,0,0,1,124,552.5)" ed:width="55" id="106"><path stroke-linejoin="round" fill="#ffffff" stroke-width="2" d="M4,0L51,0C53.7,0,55,1.3,55,4L55,55C55,57.7,53.7,59,51,59L4,59C1.3,59,0,57.7,0,55L0,4C0,1.3,1.3,0,4,0z" stroke="#92a7ff"/><text class="st7"><tspan style="white-space:pre" textLength="16" x="18" y="23.5">属</tspan><tspan style="white-space:pre" textLength="16" x="18" y="45.5">性</tspan></text></g><g ed:parentid="106" ed:height="23" ed:layout="rightmap" transform="matrix(1,0,0,1,206,423)" ed:width="175" id="110"><path stroke-linejoin="round" fill="#ffffff" d="M0,0L175,0L175,23L0,23L0,0z" stroke="#d25948"/><text class="st8"><tspan style="white-space:pre" textLength="154" x="9" y="15">线程数处理机调度的单位</tspan></text></g><g ed:parentid="106" ed:height="23" ed:layout="rightmap" transform="matrix(1,0,0,1,206,452.5)" ed:width="273.71875" id="112"><path stroke-linejoin="round" fill="#ffffff" d="M0,0L273.7,0L273.7,23L0,23L0,0z" stroke="#d25948"/><text class="st8"><tspan style="white-space:pre" textLength="253" x="9" y="15">多CPU计算机中，各线程可占用不同CPU</tspan></text></g><g ed:parentid="106" ed:height="23" ed:layout="rightmap" transform="matrix(1,0,0,1,206,482)" ed:width="257.921875" id="114"><path stroke-linejoin="round" fill="#ffffff" d="M0,0L257.9,0L257.9,23L0,23L0,0z" stroke="#d25948"/><text class="st8"><tspan style="white-space:pre" textLength="237" x="9" y="15">每个线程都有线程ID、线程控制卡TCB</tspan></text></g><g ed:parentid="106" ed:height="23" ed:layout="rightmap" transform="matrix(1,0,0,1,206,511.5)" ed:width="273" id="116"><path stroke-linejoin="round" fill="#ffffff" d="M0,0L273,0L273,23L0,23L0,0z" stroke="#d25948"/><text class="st8"><tspan style="white-space:pre" textLength="252" x="9" y="15">线程也有就绪、阻塞、运行三种基本状态</tspan></text></g><g ed:parentid="106" ed:height="23" ed:layout="rightmap" transform="matrix(1,0,0,1,206,541)" ed:width="175" id="118"><path stroke-linejoin="round" fill="#ffffff" d="M0,0L175,0L175,23L0,23L0,0z" stroke="#d25948"/><text class="st8"><tspan style="white-space:pre" textLength="154" x="9" y="15">线程几乎不拥有系统资源</tspan></text></g><g ed:parentid="106" ed:height="23" ed:layout="rightmap" transform="matrix(1,0,0,1,206,570.5)" ed:width="231" id="120"><path stroke-linejoin="round" fill="#ffffff" d="M0,0L231,0L231,23L0,23L0,0z" stroke="#d25948"/><text class="st8"><tspan style="white-space:pre" textLength="210" x="9" y="15">同一进程的不同线程共享进程资源</tspan></text></g><g ed:parentid="106" ed:height="23" ed:layout="rightmap" transform="matrix(1,0,0,1,206,600)" ed:width="329" id="122"><path stroke-linejoin="round" fill="#ffffff" d="M0,0L329,0L329,23L0,23L0,0z" stroke="#d25948"/><text class="st8"><tspan style="white-space:pre" textLength="308" x="9" y="15">线程间通信无需系统干预，因为共享内存地址空间</tspan></text></g><g ed:parentid="106" ed:height="23" ed:layout="rightmap" transform="matrix(1,0,0,1,206,629.5)" ed:width="277.140625" id="124"><path stroke-linejoin="round" fill="#ffffff" d="M0,0L277.1,0L277.1,23L0,23L0,0z" stroke="#d25948"/><text class="st8"><tspan style="white-space:pre" textLength="256" x="9" y="15">同一进程的线程切换， 不会引起进程切换</tspan></text></g><g ed:parentid="106" ed:height="23" ed:layout="rightmap" transform="matrix(1,0,0,1,206,659)" ed:width="259" id="126"><path stroke-linejoin="round" fill="#ffffff" d="M0,0L259,0L259,23L0,23L0,0z" stroke="#d25948"/><text class="st8"><tspan style="white-space:pre" textLength="238" x="9" y="15">不同进程的线程切换才会因此进程切换</tspan></text></g><g ed:parentid="106" ed:height="23" ed:layout="rightmap" transform="matrix(1,0,0,1,206,688.5)" ed:width="245" id="128"><path stroke-linejoin="round" fill="#ffffff" d="M0,0L245,0L245,23L0,23L0,0z" stroke="#d25948"/><text class="st8"><tspan style="white-space:pre" textLength="224" x="9" y="15">切换同进程内的线程，系统开销很小</tspan></text></g><g ed:parentid="106" ed:height="23" ed:layout="rightmap" transform="matrix(1,0,0,1,206,718)" ed:width="161" id="130"><path stroke-linejoin="round" fill="#ffffff" d="M0,0L161,0L161,23L0,23L0,0z" stroke="#d25948"/><text class="st8"><tspan style="white-space:pre" textLength="140" x="9" y="15">切换进程，系统开销大</tspan></text></g><g ed:parentid="104" ed:height="42" ed:layout="rightmap" transform="matrix(1,0,0,1,206,202)" ed:width="77" id="134"><path stroke-linejoin="round" fill="#ffffff" d="M0,0L77,0L77,42L0,42L0,0z" stroke="#d25948"/><text class="st8"><tspan style="white-space:pre" textLength="56" x="9" y="15">资源分配</tspan><tspan style="white-space:pre" textLength="28" x="9" y="34">调度</tspan></text></g><g ed:parentid="134" ed:height="19.5" ed:layout="rightmap" transform="matrix(1,0,0,1,310,182.5)" ed:width="294" id="136"><path fill="#ffffff" d="M0,0L294,0L294,19.5L0,19.5L0,0z"/><path stroke-linejoin="round" fill="none" d="M0,19.5L294,19.5" stroke="#5274e1"/><text class="st9"><tspan style="white-space:pre" textLength="276" x="8" y="12.65">传统进程机制中，进程是资源分配、调度的基本单位</tspan></text></g><g ed:parentid="134" ed:height="35.5" ed:layout="rightmap" transform="matrix(1,0,0,1,310,208.5)" ed:width="300" id="138"><path fill="#ffffff" d="M0,0L300,0L300,35.5L0,35.5L0,0z"/><path stroke-linejoin="round" fill="none" d="M0,35.5L300,35.5" stroke="#5274e1"/><text class="st9"><tspan style="white-space:pre" textLength="276" x="8" y="12.65">引入线程后，进程是资源分配的基本单位，线程时调</tspan><tspan style="white-space:pre" textLength="72" x="8" y="28.65">度的基本单位</tspan></text></g><g ed:parentid="104" ed:height="23" ed:layout="rightmap" transform="matrix(1,0,0,1,206,271.5)" ed:width="63" id="140"><path stroke-linejoin="round" fill="#ffffff" d="M0,0L63,0L63,23L0,23L0,0z" stroke="#d25948"/><text class="st8"><tspan style="white-space:pre" textLength="42" x="9" y="15">并发性</tspan></text></g><g ed:parentid="140" ed:height="19.5" ed:layout="rightmap" transform="matrix(1,0,0,1,296,250.5)" ed:width="198" id="142"><path fill="#ffffff" d="M0,0L198,0L198,19.5L0,19.5L0,0z"/><path stroke-linejoin="round" fill="none" d="M0,19.5L198,19.5" stroke="#5274e1"/><text class="st9"><tspan style="white-space:pre" textLength="180" x="8" y="12.65">传统进程机制中，只能进程间并发</tspan></text></g><g ed:parentid="140" ed:height="19.5" ed:layout="rightmap" transform="matrix(1,0,0,1,296,276.5)" ed:width="270" id="144"><path fill="#ffffff" d="M0,0L270,0L270,19.5L0,19.5L0,0z"/><path stroke-linejoin="round" fill="none" d="M0,19.5L270,19.5" stroke="#5274e1"/><text class="st9"><tspan style="white-space:pre" textLength="252" x="8" y="12.65">引入线程后，各线程间也能并发，提升了并发度</tspan></text></g><g ed:parentid="104" ed:height="23" ed:layout="rightmap" transform="matrix(1,0,0,1,206,344.5)" ed:width="77" id="146"><path stroke-linejoin="round" fill="#ffffff" d="M0,0L77,0L77,23L0,23L0,0z" stroke="#d25948"/><text class="st8"><tspan style="white-space:pre" textLength="56" x="9" y="15">系统开销</tspan></text></g><g ed:parentid="146" ed:height="19.5" ed:layout="rightmap" transform="matrix(1,0,0,1,310,302.5)" ed:width="318" id="148"><path fill="#ffffff" d="M0,0L318,0L318,19.5L0,19.5L0,0z"/><path stroke-linejoin="round" fill="none" d="M0,19.5L318,19.5" stroke="#5274e1"/><text class="st9"><tspan style="white-space:pre" textLength="300" x="8" y="12.65">传递进程间并发，需要切换进程的运行环境，系统开销大</tspan></text></g><g ed:parentid="146" ed:height="35.5" ed:layout="rightmap" transform="matrix(1,0,0,1,310,328.5)" ed:width="301" id="150"><path fill="#ffffff" d="M0,0L301,0L301,35.5L0,35.5L0,0z"/><path stroke-linejoin="round" fill="none" d="M0,35.5L301,35.5" stroke="#5274e1"/><text class="st9"><tspan style="white-space:pre" textLength="276" x="8" y="12.65">线程间并发，如果是同一进程的线程切换，则不需要</tspan><tspan style="white-space:pre" textLength="144" x="8" y="28.65">切换进程环境，系统开销小</tspan></text></g><g ed:parentid="146" ed:height="19.5" ed:layout="rightmap" transform="matrix(1,0,0,1,310,370.5)" ed:width="222" id="152"><path fill="#ffffff" d="M0,0L222,0L222,19.5L0,19.5L0,0z"/><path stroke-linejoin="round" fill="none" d="M0,19.5L222,19.5" stroke="#5274e1"/><text class="st9"><tspan style="white-space:pre" textLength="204" x="8" y="12.65">引入线程后，并发所带来的系统开销小</tspan></text></g><g ed:parentid="102" ed:height="23" ed:layout="rightmap" transform="matrix(1,0,0,1,206,67.5)" ed:width="399.359375" id="154"><path stroke-linejoin="round" fill="#ffffff" d="M0,0L399.4,0L399.4,23L0,23L0,0z" stroke="#d25948"/><text class="st8"><tspan style="white-space:pre" textLength="378" x="9" y="15">线程是一个基本的CPU执行单位，即程序执行流的最小单位。</tspan></text></g><g ed:parentid="102" ed:height="23" ed:layout="rightmap" transform="matrix(1,0,0,1,206,97)" ed:width="203" id="156"><path stroke-linejoin="round" fill="#ffffff" d="M0,0L203,0L203,23L0,23L0,0z" stroke="#d25948"/><text class="st8"><tspan style="white-space:pre" textLength="182" x="9" y="15">线程可以理解为轻量级进程。</tspan></text></g><g ed:parentid="102" ed:height="23" ed:layout="rightmap" transform="matrix(1,0,0,1,206,126.5)" ed:width="385.359375" id="158"><path stroke-linejoin="round" fill="#ffffff" d="M0,0L385.4,0L385.4,23L0,23L0,0z" stroke="#d25948"/><text class="st8"><tspan style="white-space:pre" textLength="364" x="9" y="15">引入线程后，进程只作为除CPU外的系统资源的分配单位。</tspan></text></g><g ed:parentid="102" ed:height="42" ed:layout="rightmap" transform="matrix(1,0,0,1,206,19)" ed:width="305" id="160"><path stroke-linejoin="round" fill="#ffffff" d="M0,0L305,0L305,42L0,42L0,0z" stroke="#d25948"/><text class="st8"><tspan style="white-space:pre" textLength="278" x="9" y="15">进程有时需要"同时"做很多事，而传统进程无</tspan><tspan style="white-space:pre" textLength="280" x="9" y="34">法实现，因此引入线程来提高进程的并发度。</tspan></text></g><g ed:parentid="101" ed:height="103" ed:layout="rightmap" transform="matrix(1,0,0,1,124,793.25)" ed:width="55" id="162"><path stroke-linejoin="round" fill="#ffffff" stroke-width="2" d="M4,0L51,0C53.7,0,55,1.3,55,4L55,99C55,101.7,53.7,103,51,103L4,103C1.3,103,0,101.7,0,99L0,4C0,1.3,1.3,0,4,0z" stroke="#92a7ff"/><text class="st7"><tspan style="white-space:pre" textLength="16" x="18" y="23.5">实</tspan><tspan style="white-space:pre" textLength="16" x="18" y="45.5">现</tspan><tspan style="white-space:pre" textLength="16" x="18" y="67.5">方</tspan><tspan style="white-space:pre" textLength="16" x="18" y="89.5">式</tspan></text></g><g ed:parentid="162" ed:height="23" ed:layout="rightmap" transform="matrix(1,0,0,1,206,795)" ed:width="130.625" id="164"><path stroke-linejoin="round" fill="#ffffff" d="M0,0L130.6,0L130.6,23L0,23L0,0z" stroke="#d25948"/><text class="st8"><tspan style="white-space:pre" textLength="110" x="9" y="15">ULT，用户级线程</tspan></text></g><g ed:parentid="162" ed:height="23" ed:layout="rightmap" transform="matrix(1,0,0,1,206,834)" ed:width="129.0625" id="166"><path stroke-linejoin="round" fill="#ffffff" d="M0,0L129.1,0L129.1,23L0,23L0,0z" stroke="#d25948"/><text class="st8"><tspan style="white-space:pre" textLength="108" x="9" y="15">KLT，内核级线程</tspan></text></g><g ed:parentid="162" ed:height="23" ed:layout="rightmap" transform="matrix(1,0,0,1,206,871.5)" ed:width="77" id="168"><path stroke-linejoin="round" fill="#ffffff" d="M0,0L77,0L77,23L0,23L0,0z" stroke="#d25948"/><text class="st8"><tspan style="white-space:pre" textLength="56" x="9" y="15">组合方式</tspan></text></g><g ed:parentid="168" ed:height="19.5" ed:layout="rightmap" transform="matrix(1,0,0,1,310,863.5)" ed:width="69.515625" id="170"><path fill="#ffffff" d="M0,0L69.5,0L69.5,19.5L0,19.5L0,0z"/><path stroke-linejoin="round" fill="none" d="M0,19.5L69.5,19.5" stroke="#5274e1"/><text class="st9"><tspan style="white-space:pre" textLength="52" x="8" y="12.65">ULT+KLT</tspan></text></g><g ed:parentid="164" ed:height="19.5" ed:layout="rightmap" transform="matrix(1,0,0,1,363.63,774)" ed:width="258" id="172"><path fill="#ffffff" d="M0,0L258,0L258,19.5L0,19.5L0,0z"/><path stroke-linejoin="round" fill="none" d="M0,19.5L258,19.5" stroke="#5274e1"/><text class="st9"><tspan style="white-space:pre" textLength="240" x="8" y="12.65">从用户视角能看到的线程，其实由线程库实现</tspan></text></g><g ed:parentid="164" ed:height="19.5" ed:layout="rightmap" transform="matrix(1,0,0,1,363.63,800)" ed:width="162" id="174"><path fill="#ffffff" d="M0,0L162,0L162,19.5L0,19.5L0,0z"/><path stroke-linejoin="round" fill="none" d="M0,19.5L162,19.5" stroke="#5274e1"/><text class="st9"><tspan style="white-space:pre" textLength="144" x="8" y="12.65">内存中仍然是以进程实现。</tspan></text></g><g ed:parentid="166" ed:height="19.5" ed:layout="rightmap" transform="matrix(1,0,0,1,362.06,826)" ed:width="222" id="176"><path fill="#ffffff" d="M0,0L222,0L222,19.5L0,19.5L0,0z"/><path stroke-linejoin="round" fill="none" d="M0,19.5L222,19.5" stroke="#5274e1"/><text class="st9"><tspan style="white-space:pre" textLength="204" x="8" y="12.65">由操作系统实现，内存中以线程实现。</tspan></text></g><g ed:parentid="101" ed:height="125" ed:layout="rightmap" transform="matrix(1,0,0,1,124,983.75)" ed:width="55" id="178"><path stroke-linejoin="round" fill="#ffffff" stroke-width="2" d="M4,0L51,0C53.7,0,55,1.3,55,4L55,121C55,123.7,53.7,125,51,125L4,125C1.3,125,0,123.7,0,121L0,4C0,1.3,1.3,0,4,0z" stroke="#92a7ff"/><text class="st7"><tspan style="white-space:pre" textLength="16" x="18" y="23.5">多</tspan><tspan style="white-space:pre" textLength="16" x="18" y="45.5">线</tspan><tspan style="white-space:pre" textLength="16" x="18" y="67.5">程</tspan><tspan style="white-space:pre" textLength="16" x="18" y="89.5">模</tspan><tspan style="white-space:pre" textLength="16" x="18" y="111.5">型</tspan></text></g><g ed:parentid="178" ed:height="23" ed:layout="rightmap" transform="matrix(1,0,0,1,206,963.25)" ed:width="63" id="180"><path stroke-linejoin="round" fill="#ffffff" d="M0,0L63,0L63,23L0,23L0,0z" stroke="#d25948"/><text class="st8"><tspan style="white-space:pre" textLength="42" x="9" y="15">一对一</tspan></text></g><g ed:parentid="178" ed:height="23" ed:layout="rightmap" transform="matrix(1,0,0,1,206,1041.25)" ed:width="63" id="182"><path stroke-linejoin="round" fill="#ffffff" d="M0,0L63,0L63,23L0,23L0,0z" stroke="#d25948"/><text class="st8"><tspan style="white-space:pre" textLength="42" x="9" y="15">多对一</tspan></text></g><g ed:parentid="178" ed:height="23" ed:layout="rightmap" transform="matrix(1,0,0,1,206,1106.25)" ed:width="63" id="184"><path stroke-linejoin="round" fill="#ffffff" d="M0,0L63,0L63,23L0,23L0,0z" stroke="#d25948"/><text class="st8"><tspan style="white-space:pre" textLength="42" x="9" y="15">多对多</tspan></text></g><g ed:parentid="180" ed:height="19.5" ed:layout="rightmap" transform="matrix(1,0,0,1,296,929.25)" ed:width="222" id="186"><path fill="#ffffff" d="M0,0L222,0L222,19.5L0,19.5L0,0z"/><path stroke-linejoin="round" fill="none" d="M0,19.5L222,19.5" stroke="#5274e1"/><text class="st9"><tspan style="white-space:pre" textLength="204" x="8" y="12.65">一个用户级线程映射到一个内核级线程</tspan></text></g><g ed:parentid="180" ed:height="19.5" ed:layout="rightmap" transform="matrix(1,0,0,1,296,955.25)" ed:width="306" id="188"><path fill="#ffffff" d="M0,0L306,0L306,19.5L0,19.5L0,0z"/><path stroke-linejoin="round" fill="none" d="M0,19.5L306,19.5" stroke="#5274e1"/><text class="st9"><tspan style="white-space:pre" textLength="288" x="8" y="12.65">优点：各线程可分配到多核处理机并行执行，并发度高</tspan></text></g><g ed:parentid="180" ed:height="19.5" ed:layout="rightmap" transform="matrix(1,0,0,1,296,981.25)" ed:width="258" id="190"><path fill="#ffffff" d="M0,0L258,0L258,19.5L0,19.5L0,0z"/><path stroke-linejoin="round" fill="none" d="M0,19.5L258,19.5" stroke="#5274e1"/><text class="st9"><tspan style="white-space:pre" textLength="240" x="8" y="12.65">缺点：线程管理都需要操作系统支持，开销大</tspan></text></g><g ed:parentid="182" ed:height="19.5" ed:layout="rightmap" transform="matrix(1,0,0,1,296,1007.25)" ed:width="234" id="192"><path fill="#ffffff" d="M0,0L234,0L234,19.5L0,19.5L0,0z"/><path stroke-linejoin="round" fill="none" d="M0,19.5L234,19.5" stroke="#5274e1"/><text class="st9"><tspan style="white-space:pre" textLength="216" x="8" y="12.65">多个用户级线程只映射到一个内核级线程</tspan></text></g><g ed:parentid="182" ed:height="19.5" ed:layout="rightmap" transform="matrix(1,0,0,1,296,1033.25)" ed:width="186" id="194"><path fill="#ffffff" d="M0,0L186,0L186,19.5L0,19.5L0,0z"/><path stroke-linejoin="round" fill="none" d="M0,19.5L186,19.5" stroke="#5274e1"/><text class="st9"><tspan style="white-space:pre" textLength="168" x="8" y="12.65">优点：线程管理开销小，效率高</tspan></text></g><g ed:parentid="182" ed:height="19.5" ed:layout="rightmap" transform="matrix(1,0,0,1,296,1059.25)" ed:width="290" id="196"><path fill="#ffffff" d="M0,0L290,0L290,19.5L0,19.5L0,0z"/><path stroke-linejoin="round" fill="none" d="M0,19.5L290,19.5" stroke="#5274e1"/><text class="st9"><tspan style="white-space:pre" textLength="272" x="8" y="12.65">缺点：一个线程阻塞会导致整个进程阻塞(并发度低)</tspan></text></g><g ed:parentid="184" ed:height="19.5" ed:layout="rightmap" transform="matrix(1,0,0,1,296,1085.25)" ed:width="261.03125" id="198"><path fill="#ffffff" d="M0,0L261,0L261,19.5L0,19.5L0,0z"/><path stroke-linejoin="round" fill="none" d="M0,19.5L261,19.5" stroke="#5274e1"/><text class="st9"><tspan style="white-space:pre" textLength="243" x="8" y="12.65">n个用户级线程映射到m个内核级线程(n>=m)</tspan></text></g><g ed:parentid="184" ed:height="19.5" ed:layout="rightmap" transform="matrix(1,0,0,1,296,1111.25)" ed:width="90" id="200"><path fill="#ffffff" d="M0,0L90,0L90,19.5L0,19.5L0,0z"/><path stroke-linejoin="round" fill="none" d="M0,19.5L90,19.5" stroke="#5274e1"/><text class="st9"><tspan style="white-space:pre" textLength="72" x="8" y="12.65">集二者之所长</tspan></text></g><g ed:parentid="101" ed:height="59" ed:layout="rightmap" transform="matrix(1,0,0,1,124,1163.75)" ed:width="71" id="204"><path stroke-linejoin="round" fill="#ffffff" stroke-width="2" d="M4,0L67,0C69.7,0,71,1.3,71,4L71,55C71,57.7,69.7,59,67,59L4,59C1.3,59,0,57.7,0,55L0,4C0,1.3,1.3,0,4,0z" stroke="#92a7ff"/><text class="st7"><tspan style="white-space:pre" textLength="32" x="18" y="23.5">状态</tspan><tspan style="white-space:pre" textLength="32" x="18" y="45.5">转换</tspan></text></g><g ed:parentid="204" ed:height="23" ed:layout="rightmap" transform="matrix(1,0,0,1,222,1167)" ed:width="119" id="206"><path stroke-linejoin="round" fill="#ffffff" d="M0,0L119,0L119,23L0,23L0,0z" stroke="#d25948"/><text class="st8"><tspan style="white-space:pre" textLength="98" x="9" y="15">同进程大同小异</tspan></text></g><g ed:parentid="204" ed:height="23" ed:layout="rightmap" transform="matrix(1,0,0,1,222,1196.5)" ed:width="301" id="208"><path stroke-linejoin="round" fill="#ffffff" d="M0,0L301,0L301,23L0,23L0,0z" stroke="#d25948"/><text class="st8"><tspan style="white-space:pre" textLength="280" x="9" y="15">主要关注：就绪、运行、阻塞散三状态的转换</tspan></text></g><g ed:parentid="101" ed:height="59" ed:layout="rightmap" transform="matrix(1,0,0,1,124,1304.25)" ed:width="71" id="210"><path stroke-linejoin="round" fill="#ffffff" stroke-width="2" d="M4,0L67,0C69.7,0,71,1.3,71,4L71,55C71,57.7,69.7,59,67,59L4,59C1.3,59,0,57.7,0,55L0,4C0,1.3,1.3,0,4,0z" stroke="#92a7ff"/><text class="st7"><tspan style="white-space:pre" textLength="32" x="18" y="23.5">组织</tspan><tspan style="white-space:pre" textLength="32" x="18" y="45.5">控制</tspan></text></g><g ed:parentid="210" ed:height="23" ed:layout="rightmap" transform="matrix(1,0,0,1,222,1289.75)" ed:width="47.15625" id="212"><path stroke-linejoin="round" fill="#ffffff" d="M0,0L47.2,0L47.2,23L0,23L0,0z" stroke="#d25948"/><text class="st8"><tspan style="white-space:pre" textLength="26" x="9" y="15">TCB</tspan></text></g><g ed:parentid="210" ed:height="23" ed:layout="rightmap" transform="matrix(1,0,0,1,222,1354.75)" ed:width="63" id="214"><path stroke-linejoin="round" fill="#ffffff" d="M0,0L63,0L63,23L0,23L0,0z" stroke="#d25948"/><text class="st8"><tspan style="white-space:pre" textLength="42" x="9" y="15">线程表</tspan></text></g><g ed:parentid="214" ed:height="19.5" ed:layout="rightmap" transform="matrix(1,0,0,1,312,1333.75)" ed:width="210" id="216"><path fill="#ffffff" d="M0,0L210,0L210,19.5L0,19.5L0,0z"/><path stroke-linejoin="round" fill="none" d="M0,19.5L210,19.5" stroke="#5274e1"/><text class="st9"><tspan style="white-space:pre" textLength="192" x="8" y="12.65">可将同一进程的线程组成一个线程表</tspan></text></g><g ed:parentid="214" ed:height="19.5" ed:layout="rightmap" transform="matrix(1,0,0,1,312,1359.75)" ed:width="186" id="218"><path fill="#ffffff" d="M0,0L186,0L186,19.5L0,19.5L0,0z"/><path stroke-linejoin="round" fill="none" d="M0,19.5L186,19.5" stroke="#5274e1"/><text class="st9"><tspan style="white-space:pre" textLength="168" x="8" y="12.65">也可将全部线程组成一个线程表</tspan></text></g><g ed:parentid="212" ed:height="19.5" ed:layout="rightmap" transform="matrix(1,0,0,1,296.16,1255.75)" ed:width="173.53125" id="220"><path fill="#ffffff" d="M0,0L173.5,0L173.5,19.5L0,19.5L0,0z"/><path stroke-linejoin="round" fill="none" d="M0,19.5L173.5,19.5" stroke="#5274e1"/><text class="st9"><tspan style="white-space:pre" textLength="156" x="8" y="12.65">TID，线程ID；PC；堆栈指针</tspan></text></g><g ed:parentid="212" ed:height="19.5" ed:layout="rightmap" transform="matrix(1,0,0,1,296.16,1281.75)" ed:width="198" id="222"><path fill="#ffffff" d="M0,0L198,0L198,19.5L0,19.5L0,0z"/><path stroke-linejoin="round" fill="none" d="M0,19.5L198,19.5" stroke="#5274e1"/><text class="st9"><tspan style="white-space:pre" textLength="180" x="8" y="12.65">线程运行状态：运行、就绪、阻塞</tspan></text></g><g ed:parentid="212" ed:height="19.5" ed:layout="rightmap" transform="matrix(1,0,0,1,296.16,1307.75)" ed:width="54" id="224"><path fill="#ffffff" d="M0,0L54,0L54,19.5L0,19.5L0,0z"/><path stroke-linejoin="round" fill="none" d="M0,19.5L54,19.5" stroke="#5274e1"/><text class="st9"><tspan style="white-space:pre" textLength="36" x="8" y="12.65">优先级</tspan></text></g></svg>