<svg xmlns:ev="http://www.w3.org/2001/xml-events" ed:name="页面-1" xmlns="http://www.w3.org/2000/svg" ed:vSpacing="30" viewBox="0 0 876 1255" width="876" id="page100" xmlns:ed="https://www.edrawsoft.cn/xml/2017/SVGExtensions/" height="1255" ed:hSpacing="30" xmlns:xlink="http://www.w3.org/1999/xlink"><style type="text/css"><![CDATA[
g[ed\:togtopicid],g[ed\:hyperlink],g[ed\:comment],g[ed\:note] {cursor:pointer;}
g[id] {-moz-user-select: none;-ms-user-select: none;user-select: none;}
svg text::selection,svg tspan::selection{background-color: #4285f4;color: #ffffff;fill: #ffffff;}
.st1 {fill:#000000;font-family:Microsoft YaHei;font-size:9pt}
.st3 {fill:#01928f;font-family:Microsoft YaHei;font-size:10.5pt}
.st4 {fill:#303030;font-family:Microsoft YaHei;font-size:9pt}
.st5 {fill:#5274e1;font-family:Microsoft YaHei;font-size:12pt;font-weight:bold}
.st6 {fill:#ff0000;font-family:Microsoft YaHei;font-size:9pt}
.st8 {fill:#ff0000}
.st2 {fill:#ffffff;font-family:Microsoft YaHei;font-size:15pt;font-weight:bold}
.st7 {fill:#ffffff;font-family:Microsoft YaHei;font-size:9pt;font-weight:bold}
]]></style><defs/><rect x="0" fill="#ffffff" width="876" height="1255" y="0"/><path stroke="#f96628" stroke-linejoin="round" stroke-width="2" fill="none" ed:type="summary" transform="matrix(1,0,0,1,739.75,646.5)" d="M0.1,0L4.5,3.3L5.6,9L5.6,15L5.7,21L5.9,27L6.2,33L6.3,39L5.9,45L5.7,51L5.8,57.2L9.1,62.2L8.7,64.8L6.5,70.8L6.4,76.8L5.8,82.8L5.2,88.8L5.2,94.8L5.5,100.8L6,106.8L6.2,112.8L6,119.1L3.7,124.6L0,126.1" id="188" ed:idlist="182,228,184,180,232,234,236,241,243,245" ed:parentid="184,180,182"/><path stroke="#f96628" stroke-linejoin="round" stroke-width="2" fill="none" ed:type="summary" transform="matrix(1,0,0,1,730,857.5)" d="M0.1,0L3.9,3.9L5.3,9.7L5.6,16.3L5.7,22.3L5.9,28.3L6.2,34.3L6.3,40.3L5.9,46.3L5.7,52.3L5.6,58.3L5.8,64.3L6.2,70.3L6.5,76.3L6.4,82.3L5.8,88.3L5.2,94.3L5.2,100.9L6.6,106.8L9.7,111.9L9.1,115.4L6.9,120.8L6,127.2L6,133.2L5.9,139.2L5.5,145.2L5.1,151.2L5,157.2L5.2,163.2L5.7,169.2L5.9,175.2L6.1,181.2L6.6,187.2L7.1,193.2L7,199.2L6.8,205.2L6.5,211.7L5.9,217.8L3.6,223.4L0,225.4" id="260" ed:idlist="192,200,194,222,196,202,204,198,206,211,208,218,220" ed:parentid="192,194,196,198,218"/><path stroke="#f96628" stroke-linejoin="round" stroke-width="2" fill="none" ed:type="summary" transform="matrix(1,0,0,1,589.7,857.5)" d="M0.1,0L4.1,3.7L5.4,9.4L5.6,15.9L5.7,21.9L5.9,27.9L6.2,33.9L6.3,39.9L5.9,45.9L5.7,51.9L5.6,57.9L5.8,63.9L6.2,69.9L6.5,75.9L6.4,81.9L6.6,88L9,93.7L8.1,95.8L6,101.7L6,108.4L6.2,114.4L6.1,120.4L6,126.4L6,132.4L5.9,138.4L5.5,144.4L5.1,150.4L5,156.4L5.2,162.4L5.7,168.4L5.9,174.4L5.8,180.6L4.3,186.6L0,189.7L0,188.5" id="210" ed:idlist="192,200,194,196,202,204,198,206,208,222" ed:parentid="192,194,196,198"/><path stroke="#f96628" stroke-linejoin="round" stroke-width="2" fill="none" ed:type="summary" transform="matrix(1,0,0,1,411.7,151)" d="M0.1,0L4.7,2.9L5.6,9.2L5.6,15.2L5.7,21.2L5.9,27.2L6.2,33.2L6.3,39.2L6.6,45.3L12,48.5L6.7,51.4L5.8,58L6.2,64L6.5,70L6.4,76L5.8,82L5.2,88L4.5,93.9L0,97.1" id="168" ed:idlist="113,115,117,119" ed:parentid="113,115,117,119"/><path stroke="#f96628" stroke-linejoin="round" stroke-width="2" fill="none" ed:type="summary" transform="matrix(1,0,0,1,566.2,727)" d="M0.1,0L5.2,2.1L5.6,7.9L5.6,13.9L5.7,20.4L12,22.8L6.2,25.2L6.3,31.2L5.9,37.2L5.3,43.4L0,45.2" id="240" ed:idlist="228,236" ed:parentid="228,236"/><path stroke="#f96628" stroke-linejoin="round" stroke-width="2" fill="none" ed:type="summary" transform="matrix(1,0,0,1,524.03,689.5)" d="M0.1,0L5.5,1.2L5.6,7.2L10.7,10L7,10.1L5.9,15.8L2.2,19.8L0,19.5" id="242" ed:idlist="232" ed:parentid="232"/><path stroke="#f96628" stroke-linejoin="round" stroke-width="2" fill="none" ed:type="summary" transform="matrix(1,0,0,1,616.59,649.25)" d="M0.1,0L5.5,1.2L5.6,7.2L10.7,10L7,10.1L5.9,15.8L2.2,19.8L0,19.5" id="244" ed:idlist="234" ed:parentid="234"/><g ed:fromid="131" ed:type="relation" transform="matrix(1,0,0,1,509.76,200.25)" id="174" ed:toid="173"><path fill="none" d="M-39,-139.3L-33.6,-136.7L-28.4,-133.8L-23.5,-130.4L-18.9,-126.6L-14.5,-122.5L-10.2,-118.3L-6.3,-113.7L-3,-108.7L0.2,-103.6L3.5,-98.6L6.7,-93.6L10.1,-88.6L13.2,-83.4L15.8,-78L18,-72.4L20,-66.7L22.3,-61.2L24.9,-55.8L27.6,-50.4L29.8,-44.8L31.8,-39.2L33.7,-33.5L35.5,-27.7L37.2,-22L38.5,-16.1L39.6,-10.2L41,-4.4L42.6,1.4L44.4,7.1L45.9,13L47.2,18.8L48.7,24.7L50,30.5L50.8,36.5L51.3,42.5L51.7,48.5L52,54.5L51.8,60.6L51.4,66.6L51.2,72.6L51.1,78.5L51.1,84.5L50.9,90.5L50.3,96.4L49.6,102.4L48.9,108.3L47.9,114.2L46.6,120.1L45.2,126L43.3,131.7L40.9,137.3L39,139.3"/><path stroke="#ff0000" stroke-linejoin="round" stroke-width="2" fill="none" stroke-linecap="round" d="M-39,-139.3L-33.6,-136.7L-28.4,-133.8L-23.5,-130.4L-18.9,-126.6L-14.5,-122.5L-10.2,-118.3L-6.3,-113.7L-3,-108.7L0.2,-103.6L3.5,-98.6L6.7,-93.6L10.1,-88.6L13.2,-83.4L15.8,-78L18,-72.4L20,-66.7L22.3,-61.2L24.9,-55.8L27.6,-50.4L29.8,-44.8L31.8,-39.2L33.7,-33.5L35.5,-27.7L37.2,-22L38.5,-16.1L39.6,-10.2L41,-4.4L42.6,1.4L44.4,7.1L45.9,13L47.2,18.8L48.7,24.7L50,30.5L50.8,36.5L51.3,42.5L51.7,48.5L52,54.5L51.8,60.6L51.4,66.6L51.2,72.6L51.1,78.5L51.1,84.5L50.9,90.5L50.3,96.4L49.6,102.4L48.9,108.3L47.9,114.2L46.6,120.1L45.2,126L43.3,131.7L40.9,137.3" stroke-dasharray="6,4"/><path stroke="#ff0000" stroke-width="1" fill="#ff0000" stroke-linecap="round" d="M39,139.3L49.9,136C48,135.5,46.2,134.6,44.7,133.2C43.2,131.8,42.1,130.1,41.6,128.2L39,139.3"/></g><g ed:fromid="145" ed:type="relation" transform="matrix(1,0,0,1,558.07,413)" id="175" ed:toid="173"><path fill="none" d="M3.7,26.5L9.7,26.1L15.6,25.3L21.5,24.3L27.4,23.2L33.3,21.7L38.9,19.8L44.3,17.3L47.1,12.7L43.7,7.8L39,4.1L33.8,1L28.4,-1.7L23.2,-4.6L18.1,-7.8L13.4,-11.6L8.8,-15.5L4.2,-19.3L-0.3,-23.1L-3.7,-26.5"/><path stroke="#ff0000" stroke-linejoin="round" stroke-width="2" fill="none" stroke-linecap="round" d="M3.7,26.5L9.7,26.1L15.6,25.3L21.5,24.3L27.4,23.2L33.3,21.7L38.9,19.8L44.3,17.3L47.1,12.7L43.7,7.8L39,4.1L33.8,1L28.4,-1.7L23.2,-4.6L18.1,-7.8L13.4,-11.6L8.8,-15.5L4.2,-19.3L-0.3,-23.1" stroke-dasharray="6,4"/><path stroke="#ff0000" stroke-width="1" fill="#ff0000" stroke-linecap="round" d="M-3.7,-26.5L-0.8,-15.6C-0.3,-17.4,0.7,-19.2,2.2,-20.6C3.6,-22.1,5.4,-23,7.2,-23.5L-3.7,-26.5"/></g><path stroke="#5274e1" stroke-linejoin="round" ed:tosuperid="102" fill="none" stroke-linecap="round" transform="matrix(1,0,0,1,192.5,239.13)" d="M-13.5,29.6L-7.5,30L-1.5,29.9L0.2,24.6L0.2,18.6L-0,12.6L-0.3,6.6L-0.4,0.6L-0.1,-5.4L0.2,-11.4L0.3,-17.4L0.1,-23.6L2.6,-29L9,-30.2L13.5,-29.6" id="103" ed:parentid="125"/><path stroke="#5274e1" stroke-linejoin="round" ed:tosuperid="104" fill="none" stroke-linecap="round" transform="matrix(1,0,0,1,192.5,271.63)" d="M0,-2.9L2.7,2.4L9,3.2L13.5,2.9" id="105" ed:parentid="125"/><path stroke="#5274e1" stroke-linejoin="round" ed:tosuperid="106" fill="none" stroke-linecap="round" transform="matrix(1,0,0,1,192.5,298.38)" d="M0,-29.6L-0.4,-23.6L-0.3,-17.6L-0.2,-11.6L-0.2,-5.6L0,0.4L0.3,6.4L0.4,12.4L0.1,18.4L-0.1,24.7L3.5,29.4L10,29.7L13.5,29.6" id="107" ed:parentid="125"/><path stroke="#5274e1" stroke-linejoin="round" ed:tosuperid="113" fill="none" stroke-linecap="round" transform="matrix(1,0,0,1,267.2,190)" d="M-13.5,19.5L-7.5,19.9L-1.5,19.8L0.2,14.5L0.2,8.5L-0,2.5L-0.3,-3.5L-0.4,-9.5L0.3,-15.5L4.6,-19.1L11,-19.2L13.5,-19.5" id="114" ed:parentid="102"/><path stroke="#5274e1" stroke-linejoin="round" ed:tosuperid="115" fill="none" stroke-linecap="round" transform="matrix(1,0,0,1,267.2,203)" d="M0,6.5L0.4,0.5L2.2,-4.7L8,-6.3L13.5,-6.5" id="116" ed:parentid="102"/><path stroke="#5274e1" stroke-linejoin="round" ed:tosuperid="117" fill="none" stroke-linecap="round" transform="matrix(1,0,0,1,267.2,216)" d="M0,-6.5L-0.4,-0.5L1.8,5.2L8,6.7L13.5,6.5" id="118" ed:parentid="102"/><path stroke="#5274e1" stroke-linejoin="round" ed:tosuperid="119" fill="none" stroke-linecap="round" transform="matrix(1,0,0,1,267.2,229)" d="M0,-19.5L-0.4,-13.5L-0.3,-7.5L-0.2,-1.5L-0.2,4.5L0,10.5L1,16.2L6,19.1L12,19.4L13.5,19.5" id="120" ed:parentid="102"/><path stroke="#5274e1" stroke-linejoin="round" ed:tosuperid="121" fill="none" stroke-linecap="round" transform="matrix(1,0,0,1,282.5,274.5)" d="M-13.5,0L-7.5,0.4L-1.5,0.3L5,0.2L11,0.2L13.5,0" id="122" ed:parentid="104"/><path stroke="#5274e1" stroke-linejoin="round" ed:tosuperid="123" fill="none" stroke-linecap="round" transform="matrix(1,0,0,1,282.5,328)" d="M-13.5,0L-7.5,0.4L-1.5,0.3L5,0.2L11,0.2L13.5,0" id="124" ed:parentid="106"/><path stroke="#5274e1" stroke-linejoin="round" ed:tosuperid="125" stroke-width="3" fill="none" stroke-linecap="round" transform="matrix(1,0,0,1,83,441.5)" d="M-22,172.8L-16,173.1L-10,173.1L-4,173L2,173L8,172.7L9.2,167.8L9.1,161.8L9.4,155.8L9.7,149.8L9.8,143.8L9.6,137.8L9.1,131.8L8.9,125.8L9,119.8L9.6,113.8L10.1,107.8L10.2,101.7L9.9,95.8L9.4,89.7L9.2,83.7L9.3,77.8L9.3,71.7L9.4,65.8L9.4,59.8L9.8,53.8L10.3,47.7L10.4,41.8L10.2,35.7L9.7,29.8L9.4,23.8L9.2,17.8L8.7,11.8L8.3,5.7L8.4,-0.3L8.6,-6.3L8.8,-12.3L8.9,-18.3L9.5,-24.2L10.1,-30.2L10.4,-36.3L10.4,-42.3L10.3,-48.3L10.1,-54.3L10,-60.2L9.9,-66.3L9.7,-72.2L9.5,-78.2L9.3,-84.3L8.9,-90.3L8.7,-96.3L8.7,-102.2L8.8,-108.2L8.8,-114.3L8.9,-120.2L9.4,-126.3L9.7,-132.2L9.7,-138.3L9.2,-144.2L8.7,-150.3L8.5,-156.2L8.6,-162.3L9.3,-168.9L14,-173L20.5,-173.2L26.5,-173.4L32.5,-173.6L38.5,-173.7L41,-172.8" id="126" ed:parentid="101"/><path stroke="#5274e1" stroke-linejoin="round" ed:tosuperid="127" stroke-width="3" fill="none" stroke-linecap="round" transform="matrix(1,0,0,1,83,331.88)" d="M-22,282.4L-16,282.7L-10,282.7L-4,282.6L2,282.6L8,282.4L9.2,277.4L9.1,271.4L9.4,265.4L9.7,259.4L9.8,253.4L9.6,247.4L9.1,241.4L8.9,235.4L9,229.4L9.6,223.4L10.1,217.4L10.2,211.4L9.9,205.4L9.4,199.4L9.2,193.4L9.3,187.4L9.3,181.4L9.4,175.4L9.4,169.4L9.8,163.4L10.3,157.4L10.4,151.4L10.2,145.4L9.7,139.4L9.4,133.4L9.2,127.4L8.7,121.4L8.3,115.4L8.4,109.4L8.6,103.4L8.8,97.4L8.9,91.4L9.5,85.4L10.1,79.4L10.4,73.4L10.4,67.4L10.3,61.4L10.1,55.4L10,49.4L9.9,43.4L9.7,37.4L9.5,31.4L9.3,25.4L8.9,19.4L8.7,13.4L8.7,7.4L8.8,1.4L8.8,-4.6L8.9,-10.6L9.4,-16.6L9.7,-22.6L9.7,-28.6L9.2,-34.6L8.7,-40.6L8.5,-46.6L8.6,-52.6L8.9,-58.6L9,-64.6L9,-70.6L8.8,-76.6L8.6,-82.6L8.6,-88.6L8.8,-94.6L9.1,-100.6L9.1,-106.6L9.3,-112.6L9.7,-118.6L9.8,-124.6L9.8,-130.6L10,-136.6L10.3,-142.6L10.4,-148.6L10.2,-154.6L10.1,-160.6L10,-166.6L10.1,-172.6L10.4,-178.6L10.7,-184.6L10.6,-190.6L10,-196.6L9.5,-202.6L9.4,-208.6L9.7,-214.6L10.2,-220.6L10.5,-226.6L10.2,-232.6L9.2,-238.6L8.4,-244.6L8.5,-250.6L9.2,-256.6L9.9,-262.6L10,-268.6L10.1,-274.6L11.8,-280.5L17.5,-282L23.5,-282L29.5,-282.1L35.5,-282.2L41,-282.2" id="128" ed:parentid="101"/><path stroke="#5274e1" stroke-linejoin="round" ed:tosuperid="129" stroke-width="3" fill="none" stroke-linecap="round" transform="matrix(1,0,0,1,83,542.63)" d="M-22,71.6L-16,72L-10,71.9L-4,71.9L2,71.8L8,71.6L9.2,66.6L9.1,60.6L9.4,54.6L9.7,48.6L9.8,42.6L9.6,36.6L9.1,30.6L8.9,24.6L9,18.6L9.6,12.6L10.1,6.6L10.2,0.6L9.9,-5.4L9.4,-11.4L9.2,-17.4L9.3,-23.4L9.3,-29.4L9.4,-35.4L9.4,-41.4L9.8,-47.4L10.3,-53.4L10.4,-59.4L10.2,-65.6L12.4,-70.5L18.5,-71.7L24.5,-71.9L30.5,-72.4L36.5,-72.8L41,-71.6" id="130" ed:parentid="101"/><path stroke="#5274e1" stroke-linejoin="round" ed:tosuperid="131" fill="none" stroke-linecap="round" transform="matrix(1,0,0,1,192.5,49.5)" d="M-13.5,0L-7.5,0.4L-1.5,0.3L5,0.2L11,0.2L13.5,0" id="132" ed:parentid="127"/><path stroke="#5274e1" stroke-linejoin="round" ed:tosuperid="133" fill="none" stroke-linecap="round" transform="matrix(1,0,0,1,192.5,431.5)" d="M-13.5,39.5L-7.5,39.9L-1.5,39.8L0.2,34.5L0.2,28.5L-0,22.5L-0.3,16.5L-0.4,10.5L-0.1,4.5L0.2,-1.5L0.3,-7.5L0.1,-13.5L-0.4,-19.5L-0.6,-25.5L-0.5,-31.5L1.3,-37.2L7,-38.9L13.5,-38.8" id="134" ed:parentid="129"/><path stroke="#5274e1" stroke-linejoin="round" ed:tosuperid="135" fill="none" stroke-linecap="round" transform="matrix(1,0,0,1,192.5,446.25)" d="M0,24.8L0.4,18.8L0.3,12.8L0.2,6.7L0.2,0.8L-0,-5.2L-0.3,-11.3L-0.4,-17.2L1.9,-23.2L8,-24.5L13.5,-24.5" id="136" ed:parentid="129"/><path stroke="#5274e1" stroke-linejoin="round" ed:tosuperid="137" fill="none" stroke-linecap="round" transform="matrix(1,0,0,1,192.5,465)" d="M0,6L0.4,0L2.9,-4.8L9,-5.8L13.5,-6" id="138" ed:parentid="129"/><path stroke="#5274e1" stroke-linejoin="round" ed:tosuperid="139" fill="none" stroke-linecap="round" transform="matrix(1,0,0,1,192.5,491.75)" d="M0,-20.8L-0.4,-14.7L-0.3,-8.8L-0.2,-2.7L-0.2,3.2L0,9.2L0.4,15.7L3.8,19.9L10,20.7L13.5,20.8" id="140" ed:parentid="129"/><path stroke="#5274e1" stroke-linejoin="round" ed:tosuperid="141" fill="none" stroke-linecap="round" transform="matrix(1,0,0,1,192.5,510.5)" d="M0,-39.5L-0.4,-33.5L-0.3,-27.5L-0.2,-21.5L-0.2,-15.5L0,-9.5L0.3,-3.5L0.4,2.5L0.1,8.5L-0.2,14.5L-0.3,20.5L-0.1,26.5L0.4,32.5L2.4,37.5L8,39L13.5,39.5" id="142" ed:parentid="129"/><path stroke="#5274e1" stroke-linejoin="round" ed:tosuperid="143" fill="none" stroke-linecap="round" transform="matrix(1,0,0,1,282.5,392)" d="M-13.5,0L-7.5,0.4L-1.5,0.3L5,0.2L11,0.2L13.5,0" id="144" ed:parentid="133"/><path stroke="#5274e1" stroke-linejoin="round" ed:tosuperid="145" fill="none" stroke-linecap="round" transform="matrix(1,0,0,1,282.5,459)" d="M-13.5,0L-7.5,0.4L-1.5,0.3L5,0.2L11,0.2L13.5,0" id="146" ed:parentid="137"/><path stroke="#5274e1" stroke-linejoin="round" ed:tosuperid="147" fill="none" stroke-linecap="round" transform="matrix(1,0,0,1,282.5,512.5)" d="M-13.5,0L-7.5,0.4L-1.5,0.3L5,0.2L11,0.2L13.5,0" id="148" ed:parentid="139"/><path stroke="#5274e1" stroke-linejoin="round" ed:tosuperid="149" fill="none" stroke-linecap="round" transform="matrix(1,0,0,1,282.5,550)" d="M-13.5,0L-7.5,0.4L-1.5,0.3L5,0.2L11,0.2L13.5,0" id="150" ed:parentid="141"/><path stroke="#5274e1" stroke-linejoin="round" ed:tosuperid="176" stroke-width="3" fill="none" stroke-linecap="round" transform="matrix(1,0,0,1,83,666.75)" d="M-22,-52.5L-16,-52.1L-10,-52.2L-4,-52.3L2,-52.3L8,-52.5L9.8,-47.5L9.9,-41.5L9.6,-35.5L9.3,-29.5L9.2,-23.5L9.4,-17.5L9.9,-11.5L10.1,-5.5L10,0.5L9.4,6.5L8.9,12.5L8.8,18.5L9.1,24.5L9.6,30.5L9.8,36.5L9.7,42.5L10,48.4L14.1,52.2L20.5,52.4L26.5,52.8L32.5,53.3L38.5,53.4L41,52.5" id="177" ed:parentid="101"/><path stroke="#5274e1" stroke-linejoin="round" ed:tosuperid="178" fill="none" stroke-linecap="round" transform="matrix(1,0,0,1,192.5,673.13)" d="M-13.5,46.1L-7.5,46.5L-1.5,46.4L0.2,41.1L0.2,35.1L-0,29.1L-0.3,23.1L-0.4,17.1L-0.1,11.1L0.2,5.1L0.3,-0.9L0.1,-6.9L-0.4,-12.9L-0.6,-18.9L-0.5,-24.9L0.1,-30.9L0.6,-36.9L1.4,-42.7L6,-45.8L12,-46.2L13.5,-46.1" id="179" ed:parentid="176"/><path stroke="#5274e1" stroke-linejoin="round" ed:tosuperid="180" fill="none" stroke-linecap="round" transform="matrix(1,0,0,1,192.5,714.13)" d="M0,5.1L0.7,-1L4.7,-4.7L11,-4.9L13.5,-5.1" id="181" ed:parentid="176"/><path stroke="#5274e1" stroke-linejoin="round" ed:tosuperid="182" fill="none" stroke-linecap="round" transform="matrix(1,0,0,1,192.5,739.38)" d="M0,-20.1L-0.4,-14.1L-0.3,-8.1L-0.2,-2.1L-0.2,3.9L0,9.9L0.6,16L4.7,19.6L11,20.1L13.5,20.1" id="183" ed:parentid="176"/><path stroke="#5274e1" stroke-linejoin="round" ed:tosuperid="184" fill="none" stroke-linecap="round" transform="matrix(1,0,0,1,192.5,694)" d="M0,25.3L0.4,19.3L0.3,13.3L0.2,7.3L0.2,1.3L-0,-4.7L-0.3,-10.8L-0.4,-16.7L1.2,-23L7,-25L13.5,-25" id="185" ed:parentid="176"/><path stroke="#5274e1" stroke-linejoin="round" ed:tosuperid="186" fill="none" stroke-linecap="round" transform="matrix(1,0,0,1,192.5,765.38)" d="M0,-46.1L-0.4,-40.1L-0.3,-34.1L-0.2,-28.1L-0.2,-22.1L0,-16.1L0.3,-10.1L0.4,-4.1L0.1,1.9L-0.2,7.9L-0.3,13.9L-0.1,19.9L0.4,25.9L0.6,31.9L0.5,37.9L1.2,43.9L7,46.8L13.5,46.8" id="187" ed:parentid="176"/><path stroke="#5274e1" stroke-linejoin="round" ed:tosuperid="190" stroke-width="3" fill="none" stroke-linecap="round" transform="matrix(1,0,0,1,83,794.38)" d="M-22,-180.1L-16,-179.8L-10,-179.8L-4,-179.9L2,-179.9L8,-180.1L9.8,-175.1L9.9,-169.1L9.6,-163.1L9.3,-157.1L9.2,-151.1L9.4,-145.1L9.9,-139.1L10.1,-133.1L10,-127.1L9.4,-121.1L8.9,-115.1L8.8,-109.1L9.1,-103.1L9.6,-97.1L9.8,-91.1L9.7,-85.1L9.7,-79.1L9.6,-73.1L9.6,-67.1L9.2,-61.1L8.7,-55.1L8.6,-49.1L8.8,-43.1L9.3,-37.1L9.6,-31.1L9.8,-25.1L10.3,-19.1L10.7,-13.1L10.6,-7.1L10.4,-1.1L10.2,4.9L10.1,10.9L9.5,16.9L8.9,22.9L8.6,28.9L8.6,34.9L8.7,40.9L8.9,46.9L9,52.9L9.1,58.9L9.3,64.9L9.5,70.9L9.7,76.9L10.1,82.9L10.3,88.9L10.3,94.9L10.2,100.9L10.2,106.9L10.1,112.9L9.6,118.9L9.3,124.9L9.3,130.9L9.8,136.9L10.3,142.9L10.5,148.9L10.4,154.9L10.1,160.9L10,166.9L10,172.9L11.9,178.1L17.5,179.2L23.5,179.2L29.5,179.5L35.5,179.7L41,179.8" id="191" ed:parentid="101"/><path stroke="#5274e1" stroke-linejoin="round" ed:tosuperid="192" fill="none" stroke-linecap="round" transform="matrix(1,0,0,1,192.5,925.75)" d="M-13.5,48.8L-7.5,49.1L-1.5,49.1L0.2,43.8L0.2,37.8L-0,31.7L-0.3,25.8L-0.4,19.7L-0.1,13.8L0.2,7.8L0.3,1.8L0.1,-4.3L-0.4,-10.3L-0.6,-16.3L-0.5,-22.3L0.1,-28.3L0.6,-34.2L0.7,-40.3L1.6,-46.2L7,-48.9L13.5,-49" id="193" ed:parentid="190"/><path stroke="#5274e1" stroke-linejoin="round" ed:tosuperid="194" fill="none" stroke-linecap="round" transform="matrix(1,0,0,1,192.5,944.5)" d="M0,30L0.4,24L0.3,18L0.2,12L0.2,6L-0,-0L-0.3,-6L-0.4,-12L-0.1,-18L0.2,-24L2.9,-28.8L9,-29.9L13.5,-30" id="195" ed:parentid="190"/><path stroke="#5274e1" stroke-linejoin="round" ed:tosuperid="196" fill="none" stroke-linecap="round" transform="matrix(1,0,0,1,192.5,973.75)" d="M0,0.8L6,-0.4L12,-0.4L13.5,-0.8" id="197" ed:parentid="190"/><path stroke="#5274e1" stroke-linejoin="round" ed:tosuperid="198" fill="none" stroke-linecap="round" transform="matrix(1,0,0,1,192.5,1003.75)" d="M0,-29.3L-0.4,-23.3L-0.3,-17.3L-0.2,-11.2L-0.2,-5.2L0,0.8L0.3,6.7L0.4,12.8L0.1,18.7L0.1,25.3L4.5,29.4L11,29.3L13.5,29.3" id="199" ed:parentid="190"/><path stroke="#5274e1" stroke-linejoin="round" ed:tosuperid="200" fill="none" stroke-linecap="round" transform="matrix(1,0,0,1,349.2,877)" d="M-13.5,0L-7.5,0.4L-1.5,0.3L5,0.2L11,0.2L13.5,0" id="201" ed:parentid="192"/><path stroke="#5274e1" stroke-linejoin="round" ed:tosuperid="202" fill="none" stroke-linecap="round" transform="matrix(1,0,0,1,349.2,962.5)" d="M-13.5,10.5L-7.5,10.9L-1.5,10.8L0.2,5.5L0.2,-0.5L0.3,-6.5L4.5,-10.7L11,-10.9L13.5,-10.5" id="203" ed:parentid="196"/><path stroke="#5274e1" stroke-linejoin="round" ed:tosuperid="204" fill="none" stroke-linecap="round" transform="matrix(1,0,0,1,349.2,983.5)" d="M0,-10.5L-0.4,-4.5L-0.3,1.5L0.5,7.5L6,10.7L12,10.5L13.5,10.5" id="205" ed:parentid="196"/><path stroke="#5274e1" stroke-linejoin="round" ed:tosuperid="206" fill="none" stroke-linecap="round" transform="matrix(1,0,0,1,349.2,1026.5)" d="M-13.5,6.5L-7.5,6.9L-1.5,6.8L0.2,1.5L1.4,-4.1L7,-6.5L13.5,-6.8" id="207" ed:parentid="198"/><path stroke="#5274e1" stroke-linejoin="round" ed:tosuperid="208" fill="none" stroke-linecap="round" transform="matrix(1,0,0,1,349.2,1039.5)" d="M0,-6.5L-0.4,-0.5L1.8,5.2L8,6.7L13.5,6.5" id="209" ed:parentid="198"/><path stroke="#5274e1" stroke-linejoin="round" ed:tosuperid="218" fill="none" stroke-linecap="round" transform="matrix(1,0,0,1,192.5,1023.25)" d="M0,-48.8L-0.4,-42.8L-0.3,-36.8L-0.2,-30.8L-0.2,-24.8L0,-18.7L0.3,-12.8L0.4,-6.8L0.1,-0.8L-0.2,5.2L-0.3,11.3L-0.1,17.3L0.4,23.2L0.6,29.3L0.5,35.2L-0.1,41.3L1.5,47.7L8,49.5L13.5,49.1" id="219" ed:parentid="190"/><path stroke="#5274e1" stroke-linejoin="round" ed:tosuperid="220" fill="none" stroke-linecap="round" transform="matrix(1,0,0,1,334.69,1072)" d="M-13.5,0L-7.5,0.4L-1.5,0.3L5,0.2L11,0.2L13.5,0" id="221" ed:parentid="218"/><path stroke="#5274e1" stroke-linejoin="round" ed:tosuperid="222" fill="none" stroke-linecap="round" transform="matrix(1,0,0,1,349.2,914.5)" d="M-13.5,0L-7.5,0.4L-1.5,0.3L5,0.2L11,0.2L13.5,0" id="223" ed:parentid="194"/><path stroke="#5274e1" stroke-linejoin="round" ed:tosuperid="224" fill="none" stroke-linecap="round" transform="matrix(1,0,0,1,363.22,805)" d="M-13.5,6.5L-7.5,6.9L-1.5,6.8L0.2,1.5L1.4,-4.1L7,-6.5L13.5,-6.8" id="225" ed:parentid="186"/><path stroke="#5274e1" stroke-linejoin="round" ed:tosuperid="226" fill="none" stroke-linecap="round" transform="matrix(1,0,0,1,318.39,620.5)" d="M-13.5,6.5L-7.5,6.9L-1.5,6.8L0.2,1.5L1.4,-4.1L7,-6.5L13.5,-6.8" id="227" ed:parentid="178"/><path stroke="#5274e1" stroke-linejoin="round" ed:tosuperid="228" fill="none" stroke-linecap="round" transform="matrix(1,0,0,1,397.7,753)" d="M-13.5,6.5L-7.5,6.9L-1.5,6.8L0.2,1.5L1.4,-4.1L7,-6.5L13.5,-6.8" id="229" ed:parentid="182"/><path stroke="#5274e1" stroke-linejoin="round" ed:tosuperid="230" fill="none" stroke-linecap="round" transform="matrix(1,0,0,1,318.39,633.5)" d="M0,-6.5L-0.4,-0.5L1.8,5.2L8,6.7L13.5,6.5" id="231" ed:parentid="178"/><path stroke="#5274e1" stroke-linejoin="round" ed:tosuperid="232" fill="none" stroke-linecap="round" transform="matrix(1,0,0,1,342.94,709)" d="M-13.5,0L-7.5,0.4L-1.5,0.3L5,0.2L11,0.2L13.5,0" id="233" ed:parentid="180"/><path stroke="#5274e1" stroke-linejoin="round" ed:tosuperid="234" fill="none" stroke-linecap="round" transform="matrix(1,0,0,1,327.8,668.75)" d="M-13.5,0L-7.5,0.4L-1.5,0.3L5,0.2L11,0.2L13.5,0" id="235" ed:parentid="184"/><path stroke="#5274e1" stroke-linejoin="round" ed:tosuperid="236" fill="none" stroke-linecap="round" transform="matrix(1,0,0,1,397.7,766)" d="M0,-6.5L-0.4,-0.5L1.8,5.2L8,6.7L13.5,6.5" id="237" ed:parentid="182"/><path stroke="#5274e1" stroke-linejoin="round" ed:tosuperid="238" fill="none" stroke-linecap="round" transform="matrix(1,0,0,1,363.22,818)" d="M0,-6.5L-0.4,-0.5L1.8,5.2L8,6.7L13.5,6.5" id="239" ed:parentid="186"/><path stroke="#5274e1" stroke-linejoin="round" ed:tosuperid="246" stroke-width="3" fill="none" stroke-linecap="round" transform="matrix(1,0,0,1,83,896.63)" d="M-22,-282.4L-16,-282L-10,-282.1L-4,-282.1L2,-282.2L8,-282.4L9.8,-277.4L9.9,-271.4L9.6,-265.4L9.3,-259.4L9.2,-253.4L9.4,-247.4L9.9,-241.4L10.1,-235.4L10,-229.4L9.4,-223.4L8.9,-217.4L8.8,-211.4L9.1,-205.4L9.6,-199.4L9.8,-193.4L9.7,-187.4L9.7,-181.4L9.6,-175.4L9.6,-169.4L9.2,-163.4L8.7,-157.4L8.6,-151.4L8.8,-145.4L9.3,-139.4L9.6,-133.4L9.8,-127.4L10.3,-121.4L10.7,-115.4L10.6,-109.4L10.4,-103.4L10.2,-97.4L10.1,-91.4L9.5,-85.4L8.9,-79.4L8.6,-73.4L8.6,-67.4L8.7,-61.4L8.9,-55.4L9,-49.4L9.1,-43.4L9.3,-37.4L9.5,-31.4L9.7,-25.4L10.1,-19.4L10.3,-13.4L10.3,-7.4L10.2,-1.4L10.2,4.6L10.1,10.6L9.6,16.6L9.3,22.6L9.3,28.6L9.8,34.6L10.3,40.6L10.5,46.6L10.4,52.6L10.1,58.6L10,64.6L10,70.6L10.2,76.6L10.4,82.6L10.4,88.6L10.2,94.6L9.9,100.6L9.9,106.6L9.7,112.6L9.3,118.6L9.2,124.6L9.2,130.6L9,136.6L8.7,142.6L8.6,148.6L8.8,154.6L8.9,160.6L9,166.6L8.9,172.6L8.6,178.6L8.3,184.6L8.4,190.6L9,196.6L9.5,202.6L9.6,208.6L9.3,214.6L8.8,220.6L8.5,226.6L8.8,232.6L9.8,238.6L10.6,244.6L10.5,250.6L9.8,256.6L9.1,262.6L9,268.6L8.9,274.6L11.1,281.2L17.5,282.8L23.5,282.7L29.5,282.7L35.5,282.6L41,282.5" id="247" ed:parentid="101"/><path stroke="#5274e1" stroke-linejoin="round" ed:tosuperid="248" fill="none" stroke-linecap="round" transform="matrix(1,0,0,1,192.5,1164)" d="M-13.5,15L-7.5,15.4L-1.5,15.3L0.2,10L0.2,4L-0,-2L-0.3,-8L1.7,-13.7L8,-15.1L13.5,-14.8" id="249" ed:parentid="246"/><path stroke="#5274e1" stroke-linejoin="round" ed:tosuperid="250" fill="none" stroke-linecap="round" transform="matrix(1,0,0,1,192.5,1194)" d="M0,-15L-0.4,-9L-0.3,-3L-0.2,3L-0.2,9L2.8,14L9,14.7L13.5,15" id="251" ed:parentid="246"/><path stroke="#5274e1" stroke-linejoin="round" ed:tosuperid="252" fill="none" stroke-linecap="round" transform="matrix(1,0,0,1,268.5,1202.5)" d="M-13.5,6.5L-7.5,6.9L-1.5,6.8L0.2,1.5L1.4,-4.1L7,-6.5L13.5,-6.8" id="253" ed:parentid="250"/><path stroke="#5274e1" stroke-linejoin="round" ed:tosuperid="254" fill="none" stroke-linecap="round" transform="matrix(1,0,0,1,268.5,1215.5)" d="M0,-6.5L-0.4,-0.5L1.8,5.2L8,6.7L13.5,6.5" id="255" ed:parentid="250"/><path stroke="#5274e1" stroke-linejoin="round" ed:tosuperid="256" fill="none" stroke-linecap="round" transform="matrix(1,0,0,1,268.5,1142.5)" d="M-13.5,6.5L-7.5,6.9L-1.5,6.8L0.2,1.5L1.4,-4.1L7,-6.5L13.5,-6.8" id="257" ed:parentid="248"/><path stroke="#5274e1" stroke-linejoin="round" ed:tosuperid="258" fill="none" stroke-linecap="round" transform="matrix(1,0,0,1,268.5,1155.5)" d="M0,-6.5L-0.4,-0.5L1.8,5.2L8,6.7L13.5,6.5" id="259" ed:parentid="248"/><g ed:height="31" transform="matrix(1,0,0,1,206,112)" ed:topictype="callout" id="170" ed:width="149.16" ed:parentid="102" ed:layout="rightmap"><path stroke="#00af54" stroke-linejoin="round" stroke-width="2" fill="#ffffff" d="M7.8,0L13.8,0.4L19.7,0.3L25.8,0.2L31.7,0.2L37.8,-0L43.8,-0.3L49.7,-0.4L55.8,-0.1L61.7,0.2L67.8,0.3L73.8,0.1L79.7,-0.4L85.8,-0.6L91.7,-0.5L97.7,0.1L103.8,0.6L109.8,0.7L115.8,0.4L121.8,-0.1L127.8,-0.3L133.8,-0.2L139.7,-0.2L145,3.4L149.2,8.8L148.8,14.8L148.4,20.8L145.7,25.4L141.4,30.3L135.4,30.8L129.4,31.1L123.4,31.3L117.4,31.8L111.4,32.2L105.4,32.1L99.4,31.9L93.4,31.7L87.4,31.6L81.4,31L75.4,30.4L69.2,32.1L65.7,36.9L62.3,41.8L58.9,46.8L55.4,51.7L51.9,56.6L48.6,61.6L45.2,66.5L41.8,71.5L38.6,76.6L35.2,81.5L30.3,85.6L33.1,80.4L35.9,75L38.7,69.8L41.9,64.6L44.9,59.4L47.7,54.1L50,48.6L52.2,43L54.8,37.6L57.7,32.3L54.4,31.6L48.4,31.5L42.4,31.5L36.4,31.7L30.4,31.9L24.4,31.9L18.4,31.7L12.4,31.4L6.1,29.8L2,25.5L0.2,19.3L0.3,13.3L0.9,7.3L5.3,3.2L7.8,0z"/><text class="st1"><tspan x="13" textLength="120" style="white-space:pre" y="18.5">是进程存在的唯一标志</tspan></text></g><g ed:height="66" transform="matrix(1,0,0,1,23,581.25)" ed:topictype="mainidea" id="101" ed:width="38" ed:layout="rightmap"><path stroke="#5274e1" stroke-linejoin="round" stroke-width="3" fill="#00b050" d="M4,0L10,0.4L16,0.3L22,0.2L28,0.2L34,-0L38.3,4L38.4,10L38.1,16L37.8,22L37.7,28L37.9,34L38.4,40L38.6,46L38.5,52L37.9,58L37.1,63.7L32,65.3L26,65.6L20,66.1L14,66.3L8,66.2L2,65.8L-0.1,60L-0.1,54L0.3,48L0.8,42L0.9,36L0.7,30L0.2,24L-0.1,18L-0.3,12L-0.8,6L1,-0.5L4,0z"/><text class="st2"><tspan x="9" textLength="20" style="white-space:pre" y="26">进</tspan><tspan x="9" textLength="20" style="white-space:pre" y="53">程</tspan></text></g><g ed:height="23" transform="matrix(1,0,0,1,206,198)" id="102" ed:width="47.7031" ed:parentid="125"><path stroke="#d25948" stroke-linejoin="round" fill="#ffffff" d="M0,0L6,0.4L12,0.3L18,0.2L24,0.2L30,-0L36,-0.3L42,-0.4L47.8,1L47.5,7L47.4,13L47.6,19L45.7,23.4L39.7,23.6L33.7,23.5L27.7,22.9L21.7,22.4L15.7,22.3L9.7,22.6L3.7,23.1L-0.3,20L-0.2,14L-0.2,8L-0.1,2L0,0z"/><text class="st3"><tspan x="9" textLength="27" style="white-space:pre" y="15">PCB</tspan></text></g><g ed:height="23" transform="matrix(1,0,0,1,206,263)" id="104" ed:width="63" ed:parentid="125"><path stroke="#d25948" stroke-linejoin="round" fill="#ffffff" d="M0,0L6,0.4L12,0.3L18,0.2L24,0.2L30,-0L36,-0.3L42,-0.4L48,-0.1L54,0.2L60,0.3L62.9,3L63.4,9L63.6,15L63.5,21L59,22.9L53,22.4L47,22.3L41,22.6L35,23.1L29,23.3L23,23.2L17,23.2L11,23.1L5,23.1L0.3,22L0.8,16L0.9,10L0.7,4L0,0z"/><text class="st3"><tspan x="9" textLength="42" style="white-space:pre" y="15">程序段</tspan></text></g><g ed:height="23" transform="matrix(1,0,0,1,206,316.5)" id="106" ed:width="63" ed:parentid="125"><path stroke="#d25948" stroke-linejoin="round" fill="#ffffff" d="M0,0L6,0.4L12,0.3L18,0.2L24,0.2L30,-0L36,-0.3L42,-0.4L48,-0.1L54,0.2L60,0.3L62.9,3L63.4,9L63.6,15L63.5,21L59,22.9L53,22.4L47,22.3L41,22.6L35,23.1L29,23.3L23,23.2L17,23.2L11,23.1L5,23.1L0.3,22L0.8,16L0.9,10L0.7,4L0,0z"/><text class="st3"><tspan x="9" textLength="42" style="white-space:pre" y="15">数据段</tspan></text></g><g ed:height="19.5" transform="matrix(1,0,0,1,280.7,151)" id="113" ed:width="90" ed:parentid="102"><path fill="#ffffff" d="M0,0L6,0.4L12,0.3L18,0.2L24,0.2L30,-0L36,-0.3L42,-0.4L48,-0.1L54,0.2L60,0.3L66,0.1L72,-0.4L78,-0.6L84,-0.5L89.9,0L89.4,6L89.3,12L89.6,18L85,19.6L79,19.8L73,19.7L67,19.7L61,19.6L55,19.6L49,19.2L43,18.7L37,18.6L31,18.8L25,19.3L19,19.6L13,19.8L7,20.3L1,20.7L-1.1,14.5L-0.9,8.5L-0.7,2.5L0,0z"/><path stroke="#5274e1" stroke-linejoin="round" fill="none" d="M0,19.5L6,19.9L12,19.8L18,19.7L24,19.7L30,19.5L36,19.2L42,19.1L48,19.4L54,19.7L60,19.8L66,19.6L72,19.1L78,18.9L84,19L90,19.5"/><text class="st4"><tspan x="8" textLength="72" style="white-space:pre" y="12.65">进程描述信息</tspan></text></g><g ed:height="19.5" transform="matrix(1,0,0,1,280.7,177)" id="115" ed:width="126" ed:parentid="102"><path fill="#ffffff" d="M0,0L6,0.4L12,0.3L18,0.2L24,0.2L30,-0L36,-0.3L42,-0.4L48,-0.1L54,0.2L60,0.3L66,0.1L72,-0.4L78,-0.6L84,-0.5L90,0.1L96,0.6L102,0.7L108,0.4L114,-0.1L120,-0.3L126.2,0L126.2,6L126.1,12L126.1,18L121,19.2L115,18.7L109,18.6L103,18.8L97,19.3L91,19.6L85,19.8L79,20.3L73,20.7L67,20.6L61,20.4L55,20.2L49,20.1L43,19.5L37,18.9L31,18.6L25,18.6L19,18.7L13,18.9L7,19L1,19.1L0.2,14.5L0,8.5L-0.2,2.5L0,0z"/><path stroke="#5274e1" stroke-linejoin="round" fill="none" d="M0,19.5L6,19.9L12,19.8L18,19.7L24,19.7L30,19.5L36,19.2L42,19.1L48,19.4L54,19.7L60,19.8L66,19.6L72,19.1L78,18.9L84,19L90,19.6L96,20.1L102,20.2L108,19.9L114,19.4L120,19.2L126,19.5"/><text class="st4"><tspan x="8" textLength="108" style="white-space:pre" y="12.65">进程控制和管理信息</tspan></text></g><g ed:height="19.5" transform="matrix(1,0,0,1,280.7,203)" id="117" ed:width="90" ed:parentid="102"><path fill="#ffffff" d="M0,0L6,0.4L12,0.3L18,0.2L24,0.2L30,-0L36,-0.3L42,-0.4L48,-0.1L54,0.2L60,0.3L66,0.1L72,-0.4L78,-0.6L84,-0.5L89.9,0L89.4,6L89.3,12L89.6,18L85,19.6L79,19.8L73,19.7L67,19.7L61,19.6L55,19.6L49,19.2L43,18.7L37,18.6L31,18.8L25,19.3L19,19.6L13,19.8L7,20.3L1,20.7L-1.1,14.5L-0.9,8.5L-0.7,2.5L0,0z"/><path stroke="#5274e1" stroke-linejoin="round" fill="none" d="M0,19.5L6,19.9L12,19.8L18,19.7L24,19.7L30,19.5L36,19.2L42,19.1L48,19.4L54,19.7L60,19.8L66,19.6L72,19.1L78,18.9L84,19L90,19.5"/><text class="st4"><tspan x="8" textLength="72" style="white-space:pre" y="12.65">资源分配清单</tspan></text></g><g ed:height="19.5" transform="matrix(1,0,0,1,280.7,229)" id="119" ed:width="102" ed:parentid="102"><path fill="#ffffff" d="M0,0L6,0.4L12,0.3L18,0.2L24,0.2L30,-0L36,-0.3L42,-0.4L48,-0.1L54,0.2L60,0.3L66,0.1L72,-0.4L78,-0.6L84,-0.5L90,0.1L96,0.6L101.3,0L101.6,6L102.1,12L102.3,18L97,19.7L91,19.7L85,19.6L79,19.6L73,19.2L67,18.7L61,18.6L55,18.8L49,19.3L43,19.6L37,19.8L31,20.3L25,20.7L19,20.6L13,20.4L7,20.2L1,20.1L-0,14.5L0.6,8.5L0.9,2.5L0,0z"/><path stroke="#5274e1" stroke-linejoin="round" fill="none" d="M0,19.5L6,19.9L12,19.8L18,19.7L24,19.7L30,19.5L36,19.2L42,19.1L48,19.4L54,19.7L60,19.8L66,19.6L72,19.1L78,18.9L84,19L90,19.6L96,20.1L102,19.5"/><text class="st4"><tspan x="8" textLength="84" style="white-space:pre" y="12.65">处理机相关信息</tspan></text></g><g ed:height="19.5" transform="matrix(1,0,0,1,296,255)" id="121" ed:width="134" ed:parentid="104"><path fill="#ffffff" d="M0,0L6,0.4L12,0.3L18,0.2L24,0.2L30,-0L36,-0.3L42,-0.4L48,-0.1L54,0.2L60,0.3L66,0.1L72,-0.4L78,-0.6L84,-0.5L90,0.1L96,0.6L102,0.7L108,0.4L114,-0.1L120,-0.3L126,-0.2L132,-0.2L134.1,4L134.1,10L133.7,16L131,18.7L125,18.6L119,18.8L113,19.3L107,19.6L101,19.8L95,20.3L89,20.7L83,20.6L77,20.4L71,20.2L65,20.1L59,19.5L53,18.9L47,18.6L41,18.6L35,18.7L29,18.9L23,19L17,19.1L11,19.3L5,19.5L-0.2,18.5L-0.6,12.5L-0.8,6.5L0,0z"/><path stroke="#5274e1" stroke-linejoin="round" fill="none" d="M0,19.5L6,19.9L12,19.8L18,19.7L24,19.7L30,19.5L36,19.2L42,19.1L48,19.4L54,19.7L60,19.8L66,19.6L72,19.1L78,18.9L84,19L90,19.6L96,20.1L102,20.2L108,19.9L114,19.4L120,19.2L126,19.3L132,19.3L134,19.5"/><text class="st4"><tspan x="8" textLength="116" style="white-space:pre" y="12.65">程序的代码(指令序列)</tspan></text></g><g ed:height="35.5" transform="matrix(1,0,0,1,296,292.5)" id="123" ed:width="180" ed:parentid="106"><path fill="#ffffff" d="M0,0L6,0.4L12,0.3L18,0.2L24,0.2L30,-0L36,-0.3L42,-0.4L48,-0.1L54,0.2L60,0.3L66,0.1L72,-0.4L78,-0.6L84,-0.5L90,0.1L96,0.6L102,0.7L108,0.4L114,-0.1L120,-0.3L126,-0.2L132,-0.2L138,-0.1L144,-0.1L150,0.3L156,0.8L162,0.9L168,0.7L174,0.2L180.1,0L180.3,6L180.8,12L181.2,18L181.1,24L180.9,30L179,36.2L173,36.1L167,35.5L161,34.9L155,34.6L149,34.6L143,34.7L137,34.9L131,35L125,35.1L119,35.3L113,35.5L107,35.7L101,36.1L95,36.3L89,36.3L83,36.2L77,36.2L71,36.1L65,35.6L59,35.3L53,35.3L47,35.8L41,36.3L35,36.5L29,36.4L23,36.1L17,36L11,36L5,36.2L-0.9,34.5L-0.9,28.5L-0.7,22.5L-0.4,16.5L-0.4,10.5L-0.2,4.5L0,0z"/><path stroke="#5274e1" stroke-linejoin="round" fill="none" d="M0,35.5L6,35.9L12,35.8L18,35.7L24,35.7L30,35.5L36,35.2L42,35.1L48,35.4L54,35.7L60,35.8L66,35.6L72,35.1L78,34.9L84,35L90,35.6L96,36.1L102,36.2L108,35.9L114,35.4L120,35.2L126,35.3L132,35.3L138,35.4L144,35.4L150,35.8L156,36.3L162,36.4L168,36.2L174,35.7L180,35.5"/><text class="st4"><tspan x="8" textLength="144" style="white-space:pre" y="12.65">运行过程中产生的各种数据</tspan><tspan x="8" textLength="128" style="white-space:pre" y="28.65">(如：程序中定义的变量)</tspan></text></g><g ed:height="59" transform="matrix(1,0,0,1,124,239.25)" id="125" ed:width="55" ed:parentid="101"><path stroke="#92a7ff" stroke-linejoin="round" stroke-width="2" fill="#ffffff" d="M4,0L10,0.4L16,0.3L22,0.2L28,0.2L34,-0L40,-0.3L46,-0.4L52,0L54.8,5L54.7,11L54.9,17L55.4,23L55.6,29L55.5,35L54.9,41L54.4,47L54.3,53L53.2,58.1L47,59.1L41,59.3L35,59.2L29,59.2L23,59.1L17,59.1L11,58.7L5,58.2L1,56.3L0.7,50L0.2,44L-0.1,38L-0.3,32L-0.8,26L-1.2,20L-1.1,14L-0.9,8L-0.3,1.8L4,0z"/><text class="st5"><tspan x="18" textLength="16" style="white-space:pre" y="23.5">组</tspan><tspan x="18" textLength="16" style="white-space:pre" y="45.5">成</tspan></text></g><g ed:height="59" transform="matrix(1,0,0,1,124,20)" id="127" ed:width="55" ed:parentid="101"><path stroke="#92a7ff" stroke-linejoin="round" stroke-width="2" fill="#ffffff" d="M4,0L10,0.4L16,0.3L22,0.2L28,0.2L34,-0L40,-0.3L46,-0.4L52,0L54.8,5L54.7,11L54.9,17L55.4,23L55.6,29L55.5,35L54.9,41L54.4,47L54.3,53L53.2,58.1L47,59.1L41,59.3L35,59.2L29,59.2L23,59.1L17,59.1L11,58.7L5,58.2L1,56.3L0.7,50L0.2,44L-0.1,38L-0.3,32L-0.8,26L-1.2,20L-1.1,14L-0.9,8L-0.3,1.8L4,0z"/><text class="st5"><tspan x="18" textLength="16" style="white-space:pre" y="23.5">概</tspan><tspan x="18" textLength="16" style="white-space:pre" y="45.5">念</tspan></text></g><g ed:height="59" transform="matrix(1,0,0,1,124,441.5)" id="129" ed:width="55" ed:parentid="101"><path stroke="#92a7ff" stroke-linejoin="round" stroke-width="2" fill="#ffffff" d="M4,0L10,0.4L16,0.3L22,0.2L28,0.2L34,-0L40,-0.3L46,-0.4L52,0L54.8,5L54.7,11L54.9,17L55.4,23L55.6,29L55.5,35L54.9,41L54.4,47L54.3,53L53.2,58.1L47,59.1L41,59.3L35,59.2L29,59.2L23,59.1L17,59.1L11,58.7L5,58.2L1,56.3L0.7,50L0.2,44L-0.1,38L-0.3,32L-0.8,26L-1.2,20L-1.1,14L-0.9,8L-0.3,1.8L4,0z"/><text class="st5"><tspan x="18" textLength="16" style="white-space:pre" y="23.5">特</tspan><tspan x="18" textLength="16" style="white-space:pre" y="45.5">征</tspan></text></g><g ed:height="23" transform="matrix(1,0,0,1,206,38)" id="131" ed:width="455" ed:parentid="127"><path stroke="#d25948" stroke-linejoin="round" fill="#ffffff" d="M0,0L6,0.4L12,0.3L18,0.2L24,0.2L30,-0L36,-0.3L42,-0.4L48,-0.1L54,0.2L60,0.3L66,0.1L72,-0.4L78,-0.6L84,-0.5L90,0.1L96,0.6L102,0.7L108,0.4L114,-0.1L120,-0.3L126,-0.2L132,-0.2L138,-0.1L144,-0.1L150,0.3L156,0.8L162,0.9L168,0.7L174,0.2L180,-0.1L186,-0.3L192,-0.8L198,-1.2L204,-1.1L210,-0.9L216,-0.7L222,-0.6L228,-0L234,0.6L240,0.9L246,0.9L252,0.8L258,0.6L264,0.5L270,0.4L276,0.2L282,0L288,-0.2L294,-0.6L300,-0.8L306,-0.8L312,-0.7L318,-0.7L324,-0.6L330,-0.1L336,0.2L342,0.2L348,-0.3L354,-0.8L360,-1L366,-0.9L372,-0.6L378,-0.5L384,-0.5L390,-0.7L396,-0.9L402,-0.9L408,-0.7L414,-0.4L420,-0.4L426,-0.2L432,0.2L438,0.3L444,0.3L450,0.5L454.2,1L454.1,7L454.3,13L454.4,19L453,22.5L447,22.4L441,22.1L435,21.8L429,21.9L423,22.5L417,23L411,23.1L405,22.8L399,22.3L393,22L387,22.3L381,23.3L375,24.1L369,24L363,23.3L357,22.6L351,22.5L345,22.4L339,22.5L333,22.6L327,22.6L321,22.7L315,22.8L309,22.8L303,23L297,23.3L291,23.4L285,23.2L279,22.8L273,22.5L267,22.8L261,23.2L255,23.3L249,23.3L243,23.6L237,23.8L231,23.8L225,23.4L219,22.7L213,22.4L207,22.3L201,22.1L195,21.8L189,21.9L183,22.3L177,22.6L171,22.7L165,22.8L159,22.9L153,22.9L147,23.1L141,23.4L135,23.6L129,23.5L123,23L117,22.4L111,22.2L105,22.4L99,22.4L93,22.4L87,22.3L81,22.1L75,22L69,22.2L63,22.9L57,23.6L51,23.7L45,23.8L39,23.8L33,23.7L27,23.5L21,22.9L15,22.6L9,22.6L3,22.6L0.1,20L0.1,14L0.2,8L0.2,2L0,0z"/><text class="st3"><tspan x="9" textLength="434" style="white-space:pre" y="15">进程是进程实体的运行过程，是系统资源分配和调度的一个独立单位。</tspan></text></g><g ed:height="23" transform="matrix(1,0,0,1,206,380.5)" id="133" ed:width="63" ed:parentid="129"><path stroke="#d25948" stroke-linejoin="round" fill="#ffffff" d="M0,0L6,0.4L12,0.3L18,0.2L24,0.2L30,-0L36,-0.3L42,-0.4L48,-0.1L54,0.2L60,0.3L62.9,3L63.4,9L63.6,15L63.5,21L59,22.9L53,22.4L47,22.3L41,22.6L35,23.1L29,23.3L23,23.2L17,23.2L11,23.1L5,23.1L0.3,22L0.8,16L0.9,10L0.7,4L0,0z"/><text class="st3"><tspan x="9" textLength="42" style="white-space:pre" y="15">动态性</tspan></text></g><g ed:height="23" transform="matrix(1,0,0,1,206,410)" id="135" ed:width="63" ed:parentid="129"><path stroke="#d25948" stroke-linejoin="round" fill="#ffffff" d="M0,0L6,0.4L12,0.3L18,0.2L24,0.2L30,-0L36,-0.3L42,-0.4L48,-0.1L54,0.2L60,0.3L62.9,3L63.4,9L63.6,15L63.5,21L59,22.9L53,22.4L47,22.3L41,22.6L35,23.1L29,23.3L23,23.2L17,23.2L11,23.1L5,23.1L0.3,22L0.8,16L0.9,10L0.7,4L0,0z"/><text class="st3"><tspan x="9" textLength="42" style="white-space:pre" y="15">并发性</tspan></text></g><g ed:height="23" transform="matrix(1,0,0,1,206,447.5)" id="137" ed:width="63" ed:parentid="129"><path stroke="#d25948" stroke-linejoin="round" fill="#ffffff" d="M0,0L6,0.4L12,0.3L18,0.2L24,0.2L30,-0L36,-0.3L42,-0.4L48,-0.1L54,0.2L60,0.3L62.9,3L63.4,9L63.6,15L63.5,21L59,22.9L53,22.4L47,22.3L41,22.6L35,23.1L29,23.3L23,23.2L17,23.2L11,23.1L5,23.1L0.3,22L0.8,16L0.9,10L0.7,4L0,0z"/><text class="st3"><tspan x="9" textLength="42" style="white-space:pre" y="15">独立性</tspan></text></g><g ed:height="23" transform="matrix(1,0,0,1,206,501)" id="139" ed:width="63" ed:parentid="129"><path stroke="#d25948" stroke-linejoin="round" fill="#ffffff" d="M0,0L6,0.4L12,0.3L18,0.2L24,0.2L30,-0L36,-0.3L42,-0.4L48,-0.1L54,0.2L60,0.3L62.9,3L63.4,9L63.6,15L63.5,21L59,22.9L53,22.4L47,22.3L41,22.6L35,23.1L29,23.3L23,23.2L17,23.2L11,23.1L5,23.1L0.3,22L0.8,16L0.9,10L0.7,4L0,0z"/><text class="st3"><tspan x="9" textLength="42" style="white-space:pre" y="15">异步型</tspan></text></g><g ed:height="23" transform="matrix(1,0,0,1,206,538.5)" id="141" ed:width="63" ed:parentid="129"><path stroke="#d25948" stroke-linejoin="round" fill="#ffffff" d="M0,0L6,0.4L12,0.3L18,0.2L24,0.2L30,-0L36,-0.3L42,-0.4L48,-0.1L54,0.2L60,0.3L62.9,3L63.4,9L63.6,15L63.5,21L59,22.9L53,22.4L47,22.3L41,22.6L35,23.1L29,23.3L23,23.2L17,23.2L11,23.1L5,23.1L0.3,22L0.8,16L0.9,10L0.7,4L0,0z"/><text class="st3"><tspan x="9" textLength="42" style="white-space:pre" y="15">结构性</tspan></text></g><g ed:height="19.5" transform="matrix(1,0,0,1,296,372.5)" id="143" ed:width="90" ed:parentid="133"><path fill="#ffffff" d="M0,0L6,0.4L12,0.3L18,0.2L24,0.2L30,-0L36,-0.3L42,-0.4L48,-0.1L54,0.2L60,0.3L66,0.1L72,-0.4L78,-0.6L84,-0.5L89.9,0L89.4,6L89.3,12L89.6,18L85,19.6L79,19.8L73,19.7L67,19.7L61,19.6L55,19.6L49,19.2L43,18.7L37,18.6L31,18.8L25,19.3L19,19.6L13,19.8L7,20.3L1,20.7L-1.1,14.5L-0.9,8.5L-0.7,2.5L0,0z"/><path stroke="#5274e1" stroke-linejoin="round" fill="none" d="M0,19.5L6,19.9L12,19.8L18,19.7L24,19.7L30,19.5L36,19.2L42,19.1L48,19.4L54,19.7L60,19.8L66,19.6L72,19.1L78,18.9L84,19L90,19.5"/><text class="st4"><tspan x="8" textLength="72" style="white-space:pre" y="12.65">最基本的特性</tspan></text></g><g ed:height="19.5" transform="matrix(1,0,0,1,296,439.5)" id="145" ed:width="362" ed:parentid="137"><path fill="#ffffff" d="M0,0L6,0.4L12,0.3L18,0.2L24,0.2L30,-0L36,-0.3L42,-0.4L48,-0.1L54,0.2L60,0.3L66,0.1L72,-0.4L78,-0.6L84,-0.5L90,0.1L96,0.6L102,0.7L108,0.4L114,-0.1L120,-0.3L126,-0.2L132,-0.2L138,-0.1L144,-0.1L150,0.3L156,0.8L162,0.9L168,0.7L174,0.2L180,-0.1L186,-0.3L192,-0.8L198,-1.2L204,-1.1L210,-0.9L216,-0.7L222,-0.6L228,-0L234,0.6L240,0.9L246,0.9L252,0.8L258,0.6L264,0.5L270,0.4L276,0.2L282,0L288,-0.2L294,-0.6L300,-0.8L306,-0.8L312,-0.7L318,-0.7L324,-0.6L330,-0.1L336,0.2L342,0.2L348,-0.3L354,-0.8L360,-1L362.9,4L362.6,10L362.5,16L359,20L353,20.2L347,20.4L341,20.4L335,20.2L329,19.9L323,19.9L317,19.7L311,19.3L305,19.2L299,19.2L293,19L287,18.7L281,18.6L275,18.8L269,18.9L263,19L257,18.9L251,18.6L245,18.3L239,18.4L233,19L227,19.5L221,19.6L215,19.3L209,18.8L203,18.5L197,18.8L191,19.8L185,20.6L179,20.5L173,19.8L167,19.1L161,19L155,18.9L149,19L143,19.1L137,19.1L131,19.2L125,19.3L119,19.3L113,19.5L107,19.8L101,19.9L95,19.7L89,19.3L83,19L77,19.3L71,19.7L65,19.8L59,19.8L53,20.1L47,20.3L41,20.3L35,19.9L29,19.2L23,18.9L17,18.8L11,18.6L5,18.3L1.1,18.5L0.7,12.5L0.4,6.5L0,0z"/><path stroke="#5274e1" stroke-linejoin="round" fill="none" d="M0,19.5L6,19.9L12,19.8L18,19.7L24,19.7L30,19.5L36,19.2L42,19.1L48,19.4L54,19.7L60,19.8L66,19.6L72,19.1L78,18.9L84,19L90,19.6L96,20.1L102,20.2L108,19.9L114,19.4L120,19.2L126,19.3L132,19.3L138,19.4L144,19.4L150,19.8L156,20.3L162,20.4L168,20.2L174,19.7L180,19.4L186,19.2L192,18.7L198,18.3L204,18.4L210,18.6L216,18.8L222,18.9L228,19.5L234,20.1L240,20.4L246,20.4L252,20.3L258,20.1L264,20L270,19.9L276,19.7L282,19.5L288,19.3L294,18.9L300,18.7L306,18.7L312,18.8L318,18.8L324,18.9L330,19.4L336,19.7L342,19.7L348,19.2L354,18.7L360,18.5L362,19.5"/><text class="st4"><tspan x="8" textLength="336" style="white-space:pre" y="12.65">进程是能独立运行、独立获得资源、独立接受调度的基本单位。</tspan></text></g><g ed:height="35.5" transform="matrix(1,0,0,1,296,477)" id="147" ed:width="210" ed:parentid="139"><path fill="#ffffff" d="M0,0L6,0.4L12,0.3L18,0.2L24,0.2L30,-0L36,-0.3L42,-0.4L48,-0.1L54,0.2L60,0.3L66,0.1L72,-0.4L78,-0.6L84,-0.5L90,0.1L96,0.6L102,0.7L108,0.4L114,-0.1L120,-0.3L126,-0.2L132,-0.2L138,-0.1L144,-0.1L150,0.3L156,0.8L162,0.9L168,0.7L174,0.2L180,-0.1L186,-0.3L192,-0.8L198,-1.2L204,-1.1L210.9,0L210.7,6L210.6,12L210,18L209.4,24L209.1,30L209,34.6L203,34.7L197,34.9L191,35L185,35.1L179,35.3L173,35.5L167,35.7L161,36.1L155,36.3L149,36.3L143,36.2L137,36.2L131,36.1L125,35.6L119,35.3L113,35.3L107,35.8L101,36.3L95,36.5L89,36.4L83,36.1L77,36L71,36L65,36.2L59,36.4L53,36.4L47,36.2L41,35.9L35,35.9L29,35.7L23,35.3L17,35.2L11,35.2L5,35L0.8,34.5L0.9,28.5L0.7,22.5L0.6,16.5L0.5,10.5L0.6,4.5L0,0z"/><path stroke="#5274e1" stroke-linejoin="round" fill="none" d="M0,35.5L6,35.9L12,35.8L18,35.7L24,35.7L30,35.5L36,35.2L42,35.1L48,35.4L54,35.7L60,35.8L66,35.6L72,35.1L78,34.9L84,35L90,35.6L96,36.1L102,36.2L108,35.9L114,35.4L120,35.2L126,35.3L132,35.3L138,35.4L144,35.4L150,35.8L156,36.3L162,36.4L168,36.2L174,35.7L180,35.4L186,35.2L192,34.7L198,34.3L204,34.4L210,35.5"/><text class="st4"><tspan x="8" textLength="192" style="white-space:pre" y="12.65">各进程以不可预知的速度向前推进，</tspan><tspan x="8" textLength="156" style="white-space:pre" y="28.65">可能导致运行结构的不确定性</tspan></text></g><g ed:height="19.5" transform="matrix(1,0,0,1,296,530.5)" id="149" ed:width="126" ed:parentid="141"><path fill="#ffffff" d="M0,0L6,0.4L12,0.3L18,0.2L24,0.2L30,-0L36,-0.3L42,-0.4L48,-0.1L54,0.2L60,0.3L66,0.1L72,-0.4L78,-0.6L84,-0.5L90,0.1L96,0.6L102,0.7L108,0.4L114,-0.1L120,-0.3L126.2,0L126.2,6L126.1,12L126.1,18L121,19.2L115,18.7L109,18.6L103,18.8L97,19.3L91,19.6L85,19.8L79,20.3L73,20.7L67,20.6L61,20.4L55,20.2L49,20.1L43,19.5L37,18.9L31,18.6L25,18.6L19,18.7L13,18.9L7,19L1,19.1L0.2,14.5L0,8.5L-0.2,2.5L0,0z"/><path stroke="#5274e1" stroke-linejoin="round" fill="none" d="M0,19.5L6,19.9L12,19.8L18,19.7L24,19.7L30,19.5L36,19.2L42,19.1L48,19.4L54,19.7L60,19.8L66,19.6L72,19.1L78,18.9L84,19L90,19.6L96,20.1L102,20.2L108,19.9L114,19.4L120,19.2L126,19.5"/><text class="st4"><tspan x="8" textLength="108" style="white-space:pre" y="12.65">即进程的组成形式。</tspan></text></g><g ed:height="57" transform="matrix(1,0,0,1,432.7,171.25)" id="169" ed:width="106.2968999999998" ed:parentid="168" ed:layout="rightmap"><path stroke="#ff0000" stroke-linejoin="round" stroke-width="2" fill="#ffffff" d="M14.3,0L20.3,0.4L26.3,0.3L32.3,0.2L38.3,0.2L44.3,-0L50.3,-0.3L56.3,-0.4L62.2,-0.1L68.3,0.2L74.3,0.3L80.3,0.1L86.3,-0.4L93.2,0.3L97.3,4.6L101.2,9.2L105,13.9L105.6,19.3L105.9,25.3L106.4,31.3L106.6,37.3L105.8,43.6L101.5,47.8L97.2,52L92.9,56.2L87,56.7L81,56.2L75,56.1L69,56.3L63,56.8L57,57.1L51,57.3L45,57.8L39,58.2L33,58.1L27,57.9L21,57.7L13.8,57.4L10,52.8L6.2,48.1L2.2,43.6L0.9,38.8L0.8,32.8L0.6,26.7L0.5,20.8L0.3,14.6L4.4,10.1L8.5,5.8L12.6,1.4L14.3,0z"/><text class="st6"><tspan x="23" textLength="60" style="white-space:pre" y="15.5">操作系统所</tspan><tspan x="23" textLength="60" style="white-space:pre" y="31.5">需的数据都</tspan><tspan x="23" textLength="47" style="white-space:pre" y="47.5">在PCB中</tspan></text></g><g ed:height="47" transform="matrix(1,0,0,1,467.5,339.5)" ed:topictype="floating" id="173" ed:width="138.5" ed:layout="rightmap"><path stroke="#00af54" stroke-linejoin="round" stroke-width="2" fill="#f9c27e" d="M4,0L10,0.4L16,0.3L22,0.2L28,0.2L34,-0L40,-0.3L46,-0.4L52,-0.1L58,0.2L64,0.3L70,0.1L76,-0.4L82,-0.6L88,-0.5L94,0.1L100,0.6L106,0.7L112,0.4L118,-0.1L124,-0.3L130,-0.2L136.5,0.2L138.6,6L138.6,12L138.2,18L137.7,24L137.6,30L137.8,36L138.3,42L136,46.9L129.5,47.3L123.5,47.8L117.5,48.2L111.5,48.1L105.5,47.9L99.5,47.7L93.5,47.6L87.5,47L81.5,46.4L75.5,46.1L69.5,46.1L63.5,46.2L57.5,46.4L51.5,46.5L45.5,46.6L39.5,46.8L33.5,47L27.5,47.2L21.5,47.6L15.5,47.8L9.5,47.8L2.9,47.6L-0.7,42L-0.6,36L-0.1,30L0.2,24L0.2,18L-0.3,12L-0.8,6L1.1,-0.3L4,0z"/><text class="st7"><tspan x="18" textLength="36" style="white-space:pre" y="18.5">未引入</tspan><tspan x="54.8" textLength="24" style="white-space:pre" class="st8">线程</tspan><tspan x="78.8" textLength="36" style="white-space:pre">时，是</tspan><tspan x="18" textLength="96" style="white-space:pre" y="34.5">调度的独立单位。</tspan></text></g><g ed:height="59" transform="matrix(1,0,0,1,124,689.75)" id="176" ed:width="55" ed:parentid="101"><path stroke="#92a7ff" stroke-linejoin="round" stroke-width="2" fill="#ffffff" d="M4,0L10,0.4L16,0.3L22,0.2L28,0.2L34,-0L40,-0.3L46,-0.4L52,0L54.8,5L54.7,11L54.9,17L55.4,23L55.6,29L55.5,35L54.9,41L54.4,47L54.3,53L53.2,58.1L47,59.1L41,59.3L35,59.2L29,59.2L23,59.1L17,59.1L11,58.7L5,58.2L1,56.3L0.7,50L0.2,44L-0.1,38L-0.3,32L-0.8,26L-1.2,20L-1.1,14L-0.9,8L-0.3,1.8L4,0z"/><text class="st5"><tspan x="18" textLength="16" style="white-space:pre" y="23.5">状</tspan><tspan x="18" textLength="16" style="white-space:pre" y="45.5">态</tspan></text></g><g ed:height="23" transform="matrix(1,0,0,1,206,615.5)" id="178" ed:width="98.890625" ed:parentid="176"><path stroke="#d25948" stroke-linejoin="round" fill="#ffffff" d="M0,0L6,0.4L12,0.3L18,0.2L24,0.2L30,-0L36,-0.3L42,-0.4L48,-0.1L54,0.2L60,0.3L66,0.1L72,-0.4L78,-0.6L84,-0.5L90,0.1L96,0.6L98.2,4L98.5,10L99,16L99.2,22L93.9,23.2L87.9,23.2L81.9,23.1L75.9,23.1L69.9,22.7L63.9,22.2L57.9,22.1L51.9,22.3L45.9,22.8L39.9,23.1L33.9,23.3L27.9,23.8L21.9,24.2L15.9,24.1L9.9,23.9L3.9,23.7L-0.6,20L-0,14L0.6,8L0.9,2L0,0z"/><text class="st3"><tspan x="9" textLength="78" style="white-space:pre" y="15">创建态 new </tspan></text></g><g ed:height="23" transform="matrix(1,0,0,1,206,697.5)" id="180" ed:width="123.4375" ed:parentid="176"><path stroke="#d25948" stroke-linejoin="round" fill="#ffffff" d="M0,0L6,0.4L12,0.3L18,0.2L24,0.2L30,-0L36,-0.3L42,-0.4L48,-0.1L54,0.2L60,0.3L66,0.1L72,-0.4L78,-0.6L84,-0.5L90,0.1L96,0.6L102,0.7L108,0.4L114,-0.1L120,-0.3L123.7,3L123.6,9L123.6,15L123.5,21L119.4,22.7L113.4,22.2L107.4,22.1L101.4,22.3L95.4,22.8L89.4,23.1L83.4,23.3L77.4,23.8L71.4,24.2L65.4,24.1L59.4,23.9L53.4,23.7L47.4,23.6L41.4,23L35.4,22.4L29.4,22.1L23.4,22.1L17.4,22.2L11.4,22.4L5.4,22.5L0.4,22L0.2,16L0,10L-0.2,4L0,0z"/><text class="st3"><tspan x="9" textLength="102" style="white-space:pre" y="15">运行态 Running</tspan></text></g><g ed:height="23" transform="matrix(1,0,0,1,206,748)" id="182" ed:width="178.203125" ed:parentid="176"><path stroke="#d25948" stroke-linejoin="round" fill="#ffffff" d="M0,0L6,0.4L12,0.3L18,0.2L24,0.2L30,-0L36,-0.3L42,-0.4L48,-0.1L54,0.2L60,0.3L66,0.1L72,-0.4L78,-0.6L84,-0.5L90,0.1L96,0.6L102,0.7L108,0.4L114,-0.1L120,-0.3L126,-0.2L132,-0.2L138,-0.1L144,-0.1L150,0.3L156,0.8L162,0.9L168,0.7L174,0.2L178.3,2L178.5,8L179,14L179.4,20L175.2,24.1L169.2,23.9L163.2,23.7L157.2,23.6L151.2,23L145.2,22.4L139.2,22.1L133.2,22.1L127.2,22.2L121.2,22.4L115.2,22.5L109.2,22.6L103.2,22.8L97.2,23L91.2,23.2L85.2,23.6L79.2,23.8L73.2,23.8L67.2,23.7L61.2,23.7L55.2,23.6L49.2,23.1L43.2,22.8L37.2,22.8L31.2,23.3L25.2,23.8L19.2,24L13.2,23.9L7.2,23.6L1.2,23.5L-0.5,18L-0.7,12L-0.9,6L0,0z"/><text class="st3"><tspan x="9" textLength="157" style="white-space:pre" y="15">阻塞态 Waiting/Blocked</tspan></text></g><g ed:height="23" transform="matrix(1,0,0,1,206,657.25)" id="184" ed:width="108.296875" ed:parentid="176"><path stroke="#d25948" stroke-linejoin="round" fill="#ffffff" d="M0,0L6,0.4L12,0.3L18,0.2L24,0.2L30,-0L36,-0.3L42,-0.4L48,-0.1L54,0.2L60,0.3L66,0.1L72,-0.4L78,-0.6L84,-0.5L90,0.1L96,0.6L102,0.7L107.9,0L108.4,6L108.6,12L108.5,18L107.3,23.2L101.3,23.1L95.3,23.1L89.3,22.7L83.3,22.2L77.3,22.1L71.3,22.3L65.3,22.8L59.3,23.1L53.3,23.3L47.3,23.8L41.3,24.2L35.3,24.1L29.3,23.9L23.3,23.7L17.3,23.6L11.3,23L5.3,22.4L0.9,22L0.9,16L0.8,10L0.6,4L0,0z"/><text class="st3"><tspan x="9" textLength="87" style="white-space:pre" y="15">就绪态 Ready</tspan></text></g><g ed:height="23" transform="matrix(1,0,0,1,206,800)" id="186" ed:width="143.71875" ed:parentid="176"><path stroke="#d25948" stroke-linejoin="round" fill="#ffffff" d="M0,0L6,0.4L12,0.3L18,0.2L24,0.2L30,-0L36,-0.3L42,-0.4L48,-0.1L54,0.2L60,0.3L66,0.1L72,-0.4L78,-0.6L84,-0.5L90,0.1L96,0.6L102,0.7L108,0.4L114,-0.1L120,-0.3L126,-0.2L132,-0.2L138,-0.1L143.8,1L143.4,7L142.9,13L142.8,19L141.7,22.3L135.7,22.8L129.7,23.1L123.7,23.3L117.7,23.8L111.7,24.2L105.7,24.1L99.7,23.9L93.7,23.7L87.7,23.6L81.7,23L75.7,22.4L69.7,22.1L63.7,22.1L57.7,22.2L51.7,22.4L45.7,22.5L39.7,22.6L33.7,22.8L27.7,23L21.7,23.2L15.7,23.6L9.7,23.8L3.7,23.8L-0.7,20L-0.7,14L-0.6,8L-0.1,2L0,0z"/><text class="st3"><tspan x="9" textLength="123" style="white-space:pre" y="15">终止态 Terminated</tspan></text></g><g ed:height="41" transform="matrix(1,0,0,1,760.75,689)" id="189" ed:width="88.99999999999994" ed:parentid="188" ed:layout="rightmap"><path stroke="#ff0000" stroke-linejoin="round" stroke-width="2" fill="#ffffff" d="M10.3,0L16.3,0.4L22.3,0.3L28.3,0.2L34.3,0.2L40.3,-0L46.2,-0.3L52.3,-0.4L58.3,-0.1L64.3,0.2L70.3,0.3L76.3,0.1L81.8,2.6L86.2,6.6L89.5,12.3L88.9,18.3L88.4,24.3L88.5,30.2L84.5,34.7L80.6,39.3L74.7,41.3L68.7,41.2L62.7,41.2L56.7,41.1L50.7,41.1L44.7,40.7L38.7,40.2L32.7,40.1L26.7,40.3L20.7,40.8L14.7,41.1L8.7,39.8L4.1,35.9L-1.2,30.8L-1.1,24.8L-0.9,18.7L-0.7,12.7L2.4,7L7,3.2L10.3,0z"/><text class="st6"><tspan x="17" textLength="48" style="white-space:pre" y="15.5">三种基本</tspan><tspan x="17" textLength="24" style="white-space:pre" y="31.5">状态</tspan></text></g><g ed:height="103" transform="matrix(1,0,0,1,124,923)" id="190" ed:width="55" ed:parentid="101"><path stroke="#92a7ff" stroke-linejoin="round" stroke-width="2" fill="#ffffff" d="M4,0L10,0.4L16,0.3L22,0.2L28,0.2L34,-0L40,-0.3L46,-0.4L52,0L54.8,5L54.7,11L54.9,17L55.4,23L55.6,29L55.5,35L54.9,41L54.4,47L54.3,53L54.6,59L55.1,65L55.3,71L55.2,77L55.2,83L55.1,89L55.1,95L53.9,101.6L48,102.2L42,102.1L36,102.3L30,102.8L24,103.1L18,103.3L12,103.8L6,104.2L-0.4,102L-0.9,95L-0.7,89L-0.6,83L-0,77L0.6,71L0.9,65L0.9,59L0.8,53L0.6,47L0.5,41L0.4,35L0.2,29L0,23L-0.2,17L-0.6,11L-0.8,5L2.3,-0.6L4,0z"/><text class="st5"><tspan x="18" textLength="16" style="white-space:pre" y="23.5">状</tspan><tspan x="18" textLength="16" style="white-space:pre" y="45.5">态</tspan><tspan x="18" textLength="16" style="white-space:pre" y="67.5">切</tspan><tspan x="18" textLength="16" style="white-space:pre" y="89.5">换</tspan></text></g><g ed:height="23" transform="matrix(1,0,0,1,206,865.5)" id="192" ed:width="129.703125" ed:parentid="190"><path stroke="#d25948" stroke-linejoin="round" fill="#ffffff" d="M0,0L6,0.4L12,0.3L18,0.2L24,0.2L30,-0L36,-0.3L42,-0.4L48,-0.1L54,0.2L60,0.3L66,0.1L72,-0.4L78,-0.6L84,-0.5L90,0.1L96,0.6L102,0.7L108,0.4L114,-0.1L120,-0.3L126,-0.2L129.9,3L129.8,9L129.8,15L129.4,21L125.7,22.2L119.7,22.1L113.7,22.3L107.7,22.8L101.7,23.1L95.7,23.3L89.7,23.8L83.7,24.2L77.7,24.1L71.7,23.9L65.7,23.7L59.7,23.6L53.7,23L47.7,22.4L41.7,22.1L35.7,22.1L29.7,22.2L23.7,22.4L17.7,22.5L11.7,22.6L5.7,22.8L0,22L-0.2,16L-0.6,10L-0.8,4L0,0z"/><text class="st3"><tspan x="9" textLength="109" style="white-space:pre" y="15">就绪态 -> 运行态</tspan></text></g><g ed:height="23" transform="matrix(1,0,0,1,206,903)" id="194" ed:width="129.703125" ed:parentid="190"><path stroke="#d25948" stroke-linejoin="round" fill="#ffffff" d="M0,0L6,0.4L12,0.3L18,0.2L24,0.2L30,-0L36,-0.3L42,-0.4L48,-0.1L54,0.2L60,0.3L66,0.1L72,-0.4L78,-0.6L84,-0.5L90,0.1L96,0.6L102,0.7L108,0.4L114,-0.1L120,-0.3L126,-0.2L129.9,3L129.8,9L129.8,15L129.4,21L125.7,22.2L119.7,22.1L113.7,22.3L107.7,22.8L101.7,23.1L95.7,23.3L89.7,23.8L83.7,24.2L77.7,24.1L71.7,23.9L65.7,23.7L59.7,23.6L53.7,23L47.7,22.4L41.7,22.1L35.7,22.1L29.7,22.2L23.7,22.4L17.7,22.5L11.7,22.6L5.7,22.8L0,22L-0.2,16L-0.6,10L-0.8,4L0,0z"/><text class="st3"><tspan x="9" textLength="109" style="white-space:pre" y="15">运行态 -> 就绪态</tspan></text></g><g ed:height="23" transform="matrix(1,0,0,1,206,961.5)" id="196" ed:width="129.703125" ed:parentid="190"><path stroke="#d25948" stroke-linejoin="round" fill="#ffffff" d="M0,0L6,0.4L12,0.3L18,0.2L24,0.2L30,-0L36,-0.3L42,-0.4L48,-0.1L54,0.2L60,0.3L66,0.1L72,-0.4L78,-0.6L84,-0.5L90,0.1L96,0.6L102,0.7L108,0.4L114,-0.1L120,-0.3L126,-0.2L129.9,3L129.8,9L129.8,15L129.4,21L125.7,22.2L119.7,22.1L113.7,22.3L107.7,22.8L101.7,23.1L95.7,23.3L89.7,23.8L83.7,24.2L77.7,24.1L71.7,23.9L65.7,23.7L59.7,23.6L53.7,23L47.7,22.4L41.7,22.1L35.7,22.1L29.7,22.2L23.7,22.4L17.7,22.5L11.7,22.6L5.7,22.8L0,22L-0.2,16L-0.6,10L-0.8,4L0,0z"/><text class="st3"><tspan x="9" textLength="109" style="white-space:pre" y="15">运行态 -> 阻塞态</tspan></text></g><g ed:height="23" transform="matrix(1,0,0,1,206,1021.5)" id="198" ed:width="129.703125" ed:parentid="190"><path stroke="#d25948" stroke-linejoin="round" fill="#ffffff" d="M0,0L6,0.4L12,0.3L18,0.2L24,0.2L30,-0L36,-0.3L42,-0.4L48,-0.1L54,0.2L60,0.3L66,0.1L72,-0.4L78,-0.6L84,-0.5L90,0.1L96,0.6L102,0.7L108,0.4L114,-0.1L120,-0.3L126,-0.2L129.9,3L129.8,9L129.8,15L129.4,21L125.7,22.2L119.7,22.1L113.7,22.3L107.7,22.8L101.7,23.1L95.7,23.3L89.7,23.8L83.7,24.2L77.7,24.1L71.7,23.9L65.7,23.7L59.7,23.6L53.7,23L47.7,22.4L41.7,22.1L35.7,22.1L29.7,22.2L23.7,22.4L17.7,22.5L11.7,22.6L5.7,22.8L0,22L-0.2,16L-0.6,10L-0.8,4L0,0z"/><text class="st3"><tspan x="9" textLength="109" style="white-space:pre" y="15">阻塞态 -> 就绪态</tspan></text></g><g ed:height="19.5" transform="matrix(1,0,0,1,362.7,857.5)" id="200" ed:width="78" ed:parentid="192"><path fill="#ffffff" d="M0,0L6,0.4L12,0.3L18,0.2L24,0.2L30,-0L36,-0.3L42,-0.4L48,-0.1L54,0.2L60,0.3L66,0.1L72,-0.4L78.6,0L78.5,6L77.9,12L77.4,18L73,18.8L67,19.1L61,19.6L55,19.8L49,19.7L43,19.7L37,19.6L31,19.6L25,19.2L19,18.7L13,18.6L7,18.8L1,19.3L-0.1,14.5L-0.3,8.5L-0.8,2.5L0,0z"/><path stroke="#5274e1" stroke-linejoin="round" fill="none" d="M0,19.5L6,19.9L12,19.8L18,19.7L24,19.7L30,19.5L36,19.2L42,19.1L48,19.4L54,19.7L60,19.8L66,19.6L72,19.1L78,19.5"/><text class="st4"><tspan x="8" textLength="60" style="white-space:pre" y="12.65">进程被调度</tspan></text></g><g ed:height="19.5" transform="matrix(1,0,0,1,362.7,932.5)" id="202" ed:width="126" ed:parentid="196"><path fill="#ffffff" d="M0,0L6,0.4L12,0.3L18,0.2L24,0.2L30,-0L36,-0.3L42,-0.4L48,-0.1L54,0.2L60,0.3L66,0.1L72,-0.4L78,-0.6L84,-0.5L90,0.1L96,0.6L102,0.7L108,0.4L114,-0.1L120,-0.3L126.2,0L126.2,6L126.1,12L126.1,18L121,19.2L115,18.7L109,18.6L103,18.8L97,19.3L91,19.6L85,19.8L79,20.3L73,20.7L67,20.6L61,20.4L55,20.2L49,20.1L43,19.5L37,18.9L31,18.6L25,18.6L19,18.7L13,18.9L7,19L1,19.1L0.2,14.5L0,8.5L-0.2,2.5L0,0z"/><path stroke="#5274e1" stroke-linejoin="round" fill="none" d="M0,19.5L6,19.9L12,19.8L18,19.7L24,19.7L30,19.5L36,19.2L42,19.1L48,19.4L54,19.7L60,19.8L66,19.6L72,19.1L78,18.9L84,19L90,19.6L96,20.1L102,20.2L108,19.9L114,19.4L120,19.2L126,19.5"/><text class="st4"><tspan x="8" textLength="108" style="white-space:pre" y="12.65">进程自身的主动行为</tspan></text></g><g ed:height="35.5" transform="matrix(1,0,0,1,362.7,958.5)" id="204" ed:width="209.296875" ed:parentid="196"><path fill="#ffffff" d="M0,0L6,0.4L12,0.3L18,0.2L24,0.2L30,-0L36,-0.3L42,-0.4L48,-0.1L54,0.2L60,0.3L66,0.1L72,-0.4L78,-0.6L84,-0.5L90,0.1L96,0.6L102,0.7L108,0.4L114,-0.1L120,-0.3L126,-0.2L132,-0.2L138,-0.1L144,-0.1L150,0.3L156,0.8L162,0.9L168,0.7L174,0.2L180,-0.1L186,-0.3L192,-0.8L198,-1.2L204,-1.1L210.2,1L210,7L209.9,13L209.3,19L208.6,25L208.4,31L207.3,34.6L201.3,34.7L195.3,34.9L189.3,35L183.3,35.1L177.3,35.3L171.3,35.5L165.3,35.7L159.3,36.1L153.3,36.3L147.3,36.3L141.3,36.2L135.3,36.2L129.3,36.1L123.3,35.6L117.3,35.3L111.3,35.3L105.3,35.8L99.3,36.3L93.3,36.5L87.3,36.4L81.3,36.1L75.3,36L69.3,36L63.3,36.2L57.3,36.4L51.3,36.4L45.3,36.2L39.3,35.9L33.3,35.9L27.3,35.7L21.3,35.3L15.3,35.2L9.3,35.2L3.3,35L0.8,32.5L0.9,26.5L0.7,20.5L0.6,14.5L0.5,8.5L0.6,2.5L0,0z"/><path stroke="#5274e1" stroke-linejoin="round" fill="none" d="M0,35.5L6,35.9L12,35.8L18,35.7L24,35.7L30,35.5L36,35.2L42,35.1L48,35.4L54,35.7L60,35.8L66,35.6L72,35.1L78,34.9L84,35L90,35.6L96,36.1L102,36.2L108,35.9L114,35.4L120,35.2L126,35.3L132,35.3L138,35.4L144,35.4L150,35.8L156,36.3L162,36.4L168,36.2L174,35.7L180,35.4L186,35.2L192,34.7L198,34.3L204,34.4L209.3,35.5"/><text class="st4"><tspan x="8" textLength="192" style="white-space:pre" y="12.65">进程用系统调用的方式请求某种系统</tspan><tspan x="8" textLength="168" style="white-space:pre" y="28.65">资源，或请求等待某个事件发生</tspan></text></g><g ed:height="19.5" transform="matrix(1,0,0,1,362.7,1000.5)" id="206" ed:width="186" ed:parentid="198"><path fill="#ffffff" d="M0,0L6,0.4L12,0.3L18,0.2L24,0.2L30,-0L36,-0.3L42,-0.4L48,-0.1L54,0.2L60,0.3L66,0.1L72,-0.4L78,-0.6L84,-0.5L90,0.1L96,0.6L102,0.7L108,0.4L114,-0.1L120,-0.3L126,-0.2L132,-0.2L138,-0.1L144,-0.1L150,0.3L156,0.8L162,0.9L168,0.7L174,0.2L180,-0.1L186.3,0L186.8,6L187.2,12L187.1,18L181,20.4L175,20.2L169,20.1L163,19.5L157,18.9L151,18.6L145,18.6L139,18.7L133,18.9L127,19L121,19.1L115,19.3L109,19.5L103,19.7L97,20.1L91,20.3L85,20.3L79,20.2L73,20.2L67,20.1L61,19.6L55,19.3L49,19.3L43,19.8L37,20.3L31,20.5L25,20.4L19,20.1L13,20L7,20L1,20.2L-0.9,14.5L-0.9,8.5L-0.7,2.5L0,0z"/><path stroke="#5274e1" stroke-linejoin="round" fill="none" d="M0,19.5L6,19.9L12,19.8L18,19.7L24,19.7L30,19.5L36,19.2L42,19.1L48,19.4L54,19.7L60,19.8L66,19.6L72,19.1L78,18.9L84,19L90,19.6L96,20.1L102,20.2L108,19.9L114,19.4L120,19.2L126,19.3L132,19.3L138,19.4L144,19.4L150,19.8L156,20.3L162,20.4L168,20.2L174,19.7L180,19.4L186,19.5"/><text class="st4"><tspan x="8" textLength="168" style="white-space:pre" y="12.65">不是进程自身能控制的被动行为</tspan></text></g><g ed:height="19.5" transform="matrix(1,0,0,1,362.7,1026.5)" id="208" ed:width="222" ed:parentid="198"><path fill="#ffffff" d="M0,0L6,0.4L12,0.3L18,0.2L24,0.2L30,-0L36,-0.3L42,-0.4L48,-0.1L54,0.2L60,0.3L66,0.1L72,-0.4L78,-0.6L84,-0.5L90,0.1L96,0.6L102,0.7L108,0.4L114,-0.1L120,-0.3L126,-0.2L132,-0.2L138,-0.1L144,-0.1L150,0.3L156,0.8L162,0.9L168,0.7L174,0.2L180,-0.1L186,-0.3L192,-0.8L198,-1.2L204,-1.1L210,-0.9L216,-0.7L222.6,0L222,6L221.4,12L221.1,18L217,18.6L211,18.7L205,18.9L199,19L193,19.1L187,19.3L181,19.5L175,19.7L169,20.1L163,20.3L157,20.3L151,20.2L145,20.2L139,20.1L133,19.6L127,19.3L121,19.3L115,19.8L109,20.3L103,20.5L97,20.4L91,20.1L85,20L79,20L73,20.2L67,20.4L61,20.4L55,20.2L49,19.9L43,19.9L37,19.7L31,19.3L25,19.2L19,19.2L13,19L7,18.7L1,18.6L0.7,14.5L0.6,8.5L0.5,2.5L0,0z"/><path stroke="#5274e1" stroke-linejoin="round" fill="none" d="M0,19.5L6,19.9L12,19.8L18,19.7L24,19.7L30,19.5L36,19.2L42,19.1L48,19.4L54,19.7L60,19.8L66,19.6L72,19.1L78,18.9L84,19L90,19.6L96,20.1L102,20.2L108,19.9L114,19.4L120,19.2L126,19.3L132,19.3L138,19.4L144,19.4L150,19.8L156,20.3L162,20.4L168,20.2L174,19.7L180,19.4L186,19.2L192,18.7L198,18.3L204,18.4L210,18.6L216,18.8L222,19.5"/><text class="st4"><tspan x="8" textLength="204" style="white-space:pre" y="12.65">申请的资源被分配，或等待的事件发生</tspan></text></g><g ed:height="41" transform="matrix(1,0,0,1,610.7,931.25)" id="211" ed:width="114.2968749999999" ed:parentid="210" ed:layout="rightmap"><path stroke="#ff0000" stroke-linejoin="round" stroke-width="2" fill="#ffffff" d="M10.3,0L16.2,0.4L22.3,0.3L28.3,0.2L34.3,0.2L40.3,-0L46.3,-0.3L52.2,-0.4L58.3,-0.1L64.3,0.2L70.3,0.3L76.3,0.1L82.3,-0.4L88.3,-0.6L94.3,-0.5L100.3,0.1L105.7,2.6L109.9,6.9L113.9,11.3L114.4,17.3L114.6,23.2L114.5,29.3L110.9,34.4L106.6,38.6L101,41.1L95,40.7L89,40.2L83,40.1L77,40.3L71,40.8L65,41.1L59,41.3L53,41.8L47,42.2L41,42.1L35,41.9L29,41.7L23,41.6L17,41L10.7,40.5L6.7,36.1L2.4,31.9L0.8,26.8L0.6,20.8L0.5,14.7L1.7,9.2L5.8,4.7L10.3,0z"/><text class="st6"><tspan x="17" textLength="72" style="white-space:pre" y="15.5">不能直接从就</tspan><tspan x="17" textLength="60" style="white-space:pre" y="31.5">绪转到阻塞</tspan></text></g><g ed:height="23" transform="matrix(1,0,0,1,206,1060.5)" id="218" ed:width="115.1875" ed:parentid="190"><path stroke="#d25948" stroke-linejoin="round" fill="#ffffff" d="M0,0L6,0.4L12,0.3L18,0.2L24,0.2L30,-0L36,-0.3L42,-0.4L48,-0.1L54,0.2L60,0.3L66,0.1L72,-0.4L78,-0.6L84,-0.5L90,0.1L96,0.6L102,0.7L108,0.4L114,-0.1L115.5,5L115.4,11L115.4,17L115.2,23.1L109.2,23.1L103.2,22.7L97.2,22.2L91.2,22.1L85.2,22.3L79.2,22.8L73.2,23.1L67.2,23.3L61.2,23.8L55.2,24.2L49.2,24.1L43.2,23.9L37.2,23.7L31.2,23.6L25.2,23L19.2,22.4L13.2,22.1L7.2,22.1L1.2,22.2L0.6,18L0.5,12L0.4,6L0,0z"/><text class="st3"><tspan x="9" textLength="94" style="white-space:pre" y="15">运行态 -终止态</tspan></text></g><g ed:height="19.5" transform="matrix(1,0,0,1,348.19,1052.5)" id="220" ed:width="282" ed:parentid="218"><path fill="#ffffff" d="M0,0L6,0.4L12,0.3L18,0.2L24,0.2L30,-0L36,-0.3L42,-0.4L48,-0.1L54,0.2L60,0.3L66,0.1L72,-0.4L78,-0.6L84,-0.5L90,0.1L96,0.6L102,0.7L108,0.4L114,-0.1L120,-0.3L126,-0.2L132,-0.2L138,-0.1L144,-0.1L150,0.3L156,0.8L162,0.9L168,0.7L174,0.2L180,-0.1L186,-0.3L192,-0.8L198,-1.2L204,-1.1L210,-0.9L216,-0.7L222,-0.6L228,-0L234,0.6L240,0.9L246,0.9L252,0.8L258,0.6L264,0.5L270,0.4L276,0.2L282,0L282.2,6L282.6,12L282.8,18L277,20.3L271,20.2L265,20.2L259,20.1L253,19.6L247,19.3L241,19.3L235,19.8L229,20.3L223,20.5L217,20.4L211,20.1L205,20L199,20L193,20.2L187,20.4L181,20.4L175,20.2L169,19.9L163,19.9L157,19.7L151,19.3L145,19.2L139,19.2L133,19L127,18.7L121,18.6L115,18.8L109,18.9L103,19L97,18.9L91,18.6L85,18.3L79,18.4L73,19L67,19.5L61,19.6L55,19.3L49,18.8L43,18.5L37,18.8L31,19.8L25,20.6L19,20.5L13,19.8L7,19.1L1,19L0.6,14.5L0.5,8.5L0.4,2.5L0,0z"/><path stroke="#5274e1" stroke-linejoin="round" fill="none" d="M0,19.5L6,19.9L12,19.8L18,19.7L24,19.7L30,19.5L36,19.2L42,19.1L48,19.4L54,19.7L60,19.8L66,19.6L72,19.1L78,18.9L84,19L90,19.6L96,20.1L102,20.2L108,19.9L114,19.4L120,19.2L126,19.3L132,19.3L138,19.4L144,19.4L150,19.8L156,20.3L162,20.4L168,20.2L174,19.7L180,19.4L186,19.2L192,18.7L198,18.3L204,18.4L210,18.6L216,18.8L222,18.9L228,19.5L234,20.1L240,20.4L246,20.4L252,20.3L258,20.1L264,20L270,19.9L276,19.7L282,19.5"/><text class="st4"><tspan x="8" textLength="264" style="white-space:pre" y="12.65">进程运行结束，或运行过程遇到不可修复的错误。</tspan></text></g><g ed:height="19.5" transform="matrix(1,0,0,1,362.7,895)" id="222" ed:width="162" ed:parentid="194"><path fill="#ffffff" d="M0,0L6,0.4L12,0.3L18,0.2L24,0.2L30,-0L36,-0.3L42,-0.4L48,-0.1L54,0.2L60,0.3L66,0.1L72,-0.4L78,-0.6L84,-0.5L90,0.1L96,0.6L102,0.7L108,0.4L114,-0.1L120,-0.3L126,-0.2L132,-0.2L138,-0.1L144,-0.1L150,0.3L156,0.8L161.1,0L161.3,6L161.8,12L162.1,18L157,19.8L151,20.3L145,20.7L139,20.6L133,20.4L127,20.2L121,20.1L115,19.5L109,18.9L103,18.6L97,18.6L91,18.7L85,18.9L79,19L73,19.1L67,19.3L61,19.5L55,19.7L49,20.1L43,20.3L37,20.3L31,20.2L25,20.2L19,20.1L13,19.6L7,19.3L1,19.3L-0.3,14.5L-0.8,8.5L-1,2.5L0,0z"/><path stroke="#5274e1" stroke-linejoin="round" fill="none" d="M0,19.5L6,19.9L12,19.8L18,19.7L24,19.7L30,19.5L36,19.2L42,19.1L48,19.4L54,19.7L60,19.8L66,19.6L72,19.1L78,18.9L84,19L90,19.6L96,20.1L102,20.2L108,19.9L114,19.4L120,19.2L126,19.3L132,19.3L138,19.4L144,19.4L150,19.8L156,20.3L162,19.5"/><text class="st4"><tspan x="8" textLength="144" style="white-space:pre" y="12.65">时间片到，或处理机被抢占</tspan></text></g><g ed:height="19.5" transform="matrix(1,0,0,1,376.72,779)" id="224" ed:width="81.546875" ed:parentid="186"><path fill="#ffffff" d="M0,0L6,0.4L12,0.3L18,0.2L24,0.2L30,-0L36,-0.3L42,-0.4L48,-0.1L54,0.2L60,0.3L66,0.1L72,-0.4L78,-0.6L82,3L81.5,9L80.9,15L79.5,18.8L73.5,19.1L67.5,19.6L61.5,19.8L55.5,19.7L49.5,19.7L43.5,19.6L37.5,19.6L31.5,19.2L25.5,18.7L19.5,18.6L13.5,18.8L7.5,19.3L1.5,19.6L-0.3,14.5L-0.8,8.5L-1.2,2.5L0,0z"/><path stroke="#5274e1" stroke-linejoin="round" fill="none" d="M0,19.5L6,19.9L12,19.8L18,19.7L24,19.7L30,19.5L36,19.2L42,19.1L48,19.4L54,19.7L60,19.8L66,19.6L72,19.1L78,18.9L81.5,19.5"/><text class="st4"><tspan x="8" textLength="64" style="white-space:pre" y="12.65">又称 结束态</tspan></text></g><g ed:height="19.5" transform="matrix(1,0,0,1,331.89,594.5)" id="226" ed:width="81.546875" ed:parentid="178"><path fill="#ffffff" d="M0,0L6,0.4L12,0.3L18,0.2L24,0.2L30,-0L36,-0.3L42,-0.4L48,-0.1L54,0.2L60,0.3L66,0.1L72,-0.4L78,-0.6L82,3L81.5,9L80.9,15L79.5,18.8L73.5,19.1L67.5,19.6L61.5,19.8L55.5,19.7L49.5,19.7L43.5,19.6L37.5,19.6L31.5,19.2L25.5,18.7L19.5,18.6L13.5,18.8L7.5,19.3L1.5,19.6L-0.3,14.5L-0.8,8.5L-1.2,2.5L0,0z"/><path stroke="#5274e1" stroke-linejoin="round" fill="none" d="M0,19.5L6,19.9L12,19.8L18,19.7L24,19.7L30,19.5L36,19.2L42,19.1L48,19.4L54,19.7L60,19.8L66,19.6L72,19.1L78,18.9L81.5,19.5"/><text class="st4"><tspan x="8" textLength="64" style="white-space:pre" y="12.65">又称 新建态</tspan></text></g><g ed:height="19.5" transform="matrix(1,0,0,1,411.2,727)" id="228" ed:width="81.546875" ed:parentid="182"><path fill="#ffffff" d="M0,0L6,0.4L12,0.3L18,0.2L24,0.2L30,-0L36,-0.3L42,-0.4L48,-0.1L54,0.2L60,0.3L66,0.1L72,-0.4L78,-0.6L82,3L81.5,9L80.9,15L79.5,18.8L73.5,19.1L67.5,19.6L61.5,19.8L55.5,19.7L49.5,19.7L43.5,19.6L37.5,19.6L31.5,19.2L25.5,18.7L19.5,18.6L13.5,18.8L7.5,19.3L1.5,19.6L-0.3,14.5L-0.8,8.5L-1.2,2.5L0,0z"/><path stroke="#5274e1" stroke-linejoin="round" fill="none" d="M0,19.5L6,19.9L12,19.8L18,19.7L24,19.7L30,19.5L36,19.2L42,19.1L48,19.4L54,19.7L60,19.8L66,19.6L72,19.1L78,18.9L81.5,19.5"/><text class="st4"><tspan x="8" textLength="64" style="white-space:pre" y="12.65">又称 等待态</tspan></text></g><g ed:height="19.5" transform="matrix(1,0,0,1,331.89,620.5)" id="230" ed:width="316.859375" ed:parentid="178"><path fill="#ffffff" d="M0,0L6,0.4L12,0.3L18,0.2L24,0.2L30,-0L36,-0.3L42,-0.4L48,-0.1L54,0.2L60,0.3L66,0.1L72,-0.4L78,-0.6L84,-0.5L90,0.1L96,0.6L102,0.7L108,0.4L114,-0.1L120,-0.3L126,-0.2L132,-0.2L138,-0.1L144,-0.1L150,0.3L156,0.8L162,0.9L168,0.7L174,0.2L180,-0.1L186,-0.3L192,-0.8L198,-1.2L204,-1.1L210,-0.9L216,-0.7L222,-0.6L228,-0L234,0.6L240,0.9L246,0.9L252,0.8L258,0.6L264,0.5L270,0.4L276,0.2L282,0L288,-0.2L294,-0.6L300,-0.8L306,-0.8L312,-0.7L317.5,2L317.4,8L317,14L315.9,19.3L309.9,19.3L303.9,19.8L297.9,20.3L291.9,20.5L285.9,20.4L279.9,20.1L273.9,20L267.9,20L261.9,20.2L255.9,20.4L249.9,20.4L243.9,20.2L237.9,19.9L231.9,19.9L225.9,19.7L219.9,19.3L213.9,19.2L207.9,19.2L201.9,19L195.9,18.7L189.9,18.6L183.9,18.8L177.9,18.9L171.9,19L165.9,18.9L159.9,18.6L153.9,18.3L147.9,18.4L141.9,19L135.9,19.5L129.9,19.6L123.9,19.3L117.9,18.8L111.9,18.5L105.9,18.8L99.9,19.8L93.9,20.6L87.9,20.5L81.9,19.8L75.9,19.1L69.9,19L63.9,18.9L57.9,19L51.9,19.1L45.9,19.1L39.9,19.2L33.9,19.3L27.9,19.3L21.9,19.5L15.9,19.8L9.9,19.9L3.9,19.7L0.2,16.5L0.5,10.5L0.2,4.5L0,0z"/><path stroke="#5274e1" stroke-linejoin="round" fill="none" d="M0,19.5L6,19.9L12,19.8L18,19.7L24,19.7L30,19.5L36,19.2L42,19.1L48,19.4L54,19.7L60,19.8L66,19.6L72,19.1L78,18.9L84,19L90,19.6L96,20.1L102,20.2L108,19.9L114,19.4L120,19.2L126,19.3L132,19.3L138,19.4L144,19.4L150,19.8L156,20.3L162,20.4L168,20.2L174,19.7L180,19.4L186,19.2L192,18.7L198,18.3L204,18.4L210,18.6L216,18.8L222,18.9L228,19.5L234,20.1L240,20.4L246,20.4L252,20.3L258,20.1L264,20L270,19.9L276,19.7L282,19.5L288,19.3L294,18.9L300,18.7L306,18.7L312,18.8L316.9,19.5"/><text class="st4"><tspan x="8" textLength="299" style="white-space:pre" y="12.65">进程正在被创建，操作系统为进程分配资源、初始化PCB</tspan></text></g><g ed:height="19.5" transform="matrix(1,0,0,1,356.44,689.5)" id="232" ed:width="162.59375" ed:parentid="180"><path fill="#ffffff" d="M0,0L6,0.4L12,0.3L18,0.2L24,0.2L30,-0L36,-0.3L42,-0.4L48,-0.1L54,0.2L60,0.3L66,0.1L72,-0.4L78,-0.6L84,-0.5L90,0.1L96,0.6L102,0.7L108,0.4L114,-0.1L120,-0.3L126,-0.2L132,-0.2L138,-0.1L144,-0.1L150,0.3L156,0.8L161.7,0L161.9,6L162.4,12L162.7,18L157.6,19.8L151.6,20.3L145.6,20.7L139.6,20.6L133.6,20.4L127.6,20.2L121.6,20.1L115.6,19.5L109.6,18.9L103.6,18.6L97.6,18.6L91.6,18.7L85.6,18.9L79.6,19L73.6,19.1L67.6,19.3L61.6,19.5L55.6,19.7L49.6,20.1L43.6,20.3L37.6,20.3L31.6,20.2L25.6,20.2L19.6,20.1L13.6,19.6L7.6,19.3L1.6,19.3L-0.3,14.5L-0.8,8.5L-1,2.5L0,0z"/><path stroke="#5274e1" stroke-linejoin="round" fill="none" d="M0,19.5L6,19.9L12,19.8L18,19.7L24,19.7L30,19.5L36,19.2L42,19.1L48,19.4L54,19.7L60,19.8L66,19.6L72,19.1L78,18.9L84,19L90,19.6L96,20.1L102,20.2L108,19.9L114,19.4L120,19.2L126,19.3L132,19.3L138,19.4L144,19.4L150,19.8L156,20.3L162.6,20.4"/><text class="st4"><tspan x="8" textLength="145" style="white-space:pre" y="12.65">占用CPU，并在CPU上运行</tspan></text></g><g ed:height="19.5" transform="matrix(1,0,0,1,341.3,649.25)" id="234" ed:width="270.296875" ed:parentid="184"><path fill="#ffffff" d="M0,0L6,0.4L12,0.3L18,0.2L24,0.2L30,-0L36,-0.3L42,-0.4L48,-0.1L54,0.2L60,0.3L66,0.1L72,-0.4L78,-0.6L84,-0.5L90,0.1L96,0.6L102,0.7L108,0.4L114,-0.1L120,-0.3L126,-0.2L132,-0.2L138,-0.1L144,-0.1L150,0.3L156,0.8L162,0.9L168,0.7L174,0.2L180,-0.1L186,-0.3L192,-0.8L198,-1.2L204,-1.1L210,-0.9L216,-0.7L222,-0.6L228,-0L234,0.6L240,0.9L246,0.9L252,0.8L258,0.6L264,0.5L269.9,0L270.1,6L270.3,12L270.5,18L265.3,20.1L259.3,20.3L253.3,20.3L247.3,20.2L241.3,20.2L235.3,20.1L229.3,19.6L223.3,19.3L217.3,19.3L211.3,19.8L205.3,20.3L199.3,20.5L193.3,20.4L187.3,20.1L181.3,20L175.3,20L169.3,20.2L163.3,20.4L157.3,20.4L151.3,20.2L145.3,19.9L139.3,19.9L133.3,19.7L127.3,19.3L121.3,19.2L115.3,19.2L109.3,19L103.3,18.7L97.3,18.6L91.3,18.8L85.3,18.9L79.3,19L73.3,18.9L67.3,18.6L61.3,18.3L55.3,18.4L49.3,19L43.3,19.5L37.3,19.6L31.3,19.3L25.3,18.8L19.3,18.5L13.3,18.8L7.3,19.8L1.3,20.6L-1,14.5L-0.3,8.5L0.4,2.5L0,0z"/><path stroke="#5274e1" stroke-linejoin="round" fill="none" d="M0,19.5L6,19.9L12,19.8L18,19.7L24,19.7L30,19.5L36,19.2L42,19.1L48,19.4L54,19.7L60,19.8L66,19.6L72,19.1L78,18.9L84,19L90,19.6L96,20.1L102,20.2L108,19.9L114,19.4L120,19.2L126,19.3L132,19.3L138,19.4L144,19.4L150,19.8L156,20.3L162,20.4L168,20.2L174,19.7L180,19.4L186,19.2L192,18.7L198,18.3L204,18.4L210,18.6L216,18.8L222,18.9L228,19.5L234,20.1L240,20.4L246,20.4L252,20.3L258,20.1L264,20L270.3,19.9"/><text class="st4"><tspan x="8" textLength="252" style="white-space:pre" y="12.65">已具备运行条件，没有空闲CPU，暂时不能运行</tspan></text></g><g ed:height="19.5" transform="matrix(1,0,0,1,411.2,753)" id="236" ed:width="150" ed:parentid="182"><path fill="#ffffff" d="M0,0L6,0.4L12,0.3L18,0.2L24,0.2L30,-0L36,-0.3L42,-0.4L48,-0.1L54,0.2L60,0.3L66,0.1L72,-0.4L78,-0.6L84,-0.5L90,0.1L96,0.6L102,0.7L108,0.4L114,-0.1L120,-0.3L126,-0.2L132,-0.2L138,-0.1L144,-0.1L149.7,0L149.2,6L149.1,12L149.3,18L145,19.3L139,19.6L133,19.8L127,20.3L121,20.7L115,20.6L109,20.4L103,20.2L97,20.1L91,19.5L85,18.9L79,18.6L73,18.6L67,18.7L61,18.9L55,19L49,19.1L43,19.3L37,19.5L31,19.7L25,20.1L19,20.3L13,20.3L7,20.2L1,20.2L-0.6,14.5L-0.1,8.5L0.2,2.5L0,0z"/><path stroke="#5274e1" stroke-linejoin="round" fill="none" d="M0,19.5L6,19.9L12,19.8L18,19.7L24,19.7L30,19.5L36,19.2L42,19.1L48,19.4L54,19.7L60,19.8L66,19.6L72,19.1L78,18.9L84,19L90,19.6L96,20.1L102,20.2L108,19.9L114,19.4L120,19.2L126,19.3L132,19.3L138,19.4L144,19.4L150,19.5"/><text class="st4"><tspan x="8" textLength="132" style="white-space:pre" y="12.65">等待某一事件而不能运行</tspan></text></g><g ed:height="19.5" transform="matrix(1,0,0,1,376.72,805)" id="238" ed:width="304.859375" ed:parentid="186"><path fill="#ffffff" d="M0,0L6,0.4L12,0.3L18,0.2L24,0.2L30,-0L36,-0.3L42,-0.4L48,-0.1L54,0.2L60,0.3L66,0.1L72,-0.4L78,-0.6L84,-0.5L90,0.1L96,0.6L102,0.7L108,0.4L114,-0.1L120,-0.3L126,-0.2L132,-0.2L138,-0.1L144,-0.1L150,0.3L156,0.8L162,0.9L168,0.7L174,0.2L180,-0.1L186,-0.3L192,-0.8L198,-1.2L204,-1.1L210,-0.9L216,-0.7L222,-0.6L228,-0L234,0.6L240,0.9L246,0.9L252,0.8L258,0.6L264,0.5L270,0.4L276,0.2L282,0L288,-0.2L294,-0.6L300,-0.8L305.6,2L305.6,8L305.5,14L303.9,20.1L297.9,19.6L291.9,19.3L285.9,19.3L279.9,19.8L273.9,20.3L267.9,20.5L261.9,20.4L255.9,20.1L249.9,20L243.9,20L237.9,20.2L231.9,20.4L225.9,20.4L219.9,20.2L213.9,19.9L207.9,19.9L201.9,19.7L195.9,19.3L189.9,19.2L183.9,19.2L177.9,19L171.9,18.7L165.9,18.6L159.9,18.8L153.9,18.9L147.9,19L141.9,18.9L135.9,18.6L129.9,18.3L123.9,18.4L117.9,19L111.9,19.5L105.9,19.6L99.9,19.3L93.9,18.8L87.9,18.5L81.9,18.8L75.9,19.8L69.9,20.6L63.9,20.5L57.9,19.8L51.9,19.1L45.9,19L39.9,18.9L33.9,19L27.9,19.1L21.9,19.1L15.9,19.2L9.9,19.3L3.9,19.3L-0,16.5L-0.3,10.5L-0.4,4.5L0,0z"/><path stroke="#5274e1" stroke-linejoin="round" fill="none" d="M0,19.5L6,19.9L12,19.8L18,19.7L24,19.7L30,19.5L36,19.2L42,19.1L48,19.4L54,19.7L60,19.8L66,19.6L72,19.1L78,18.9L84,19L90,19.6L96,20.1L102,20.2L108,19.9L114,19.4L120,19.2L126,19.3L132,19.3L138,19.4L144,19.4L150,19.8L156,20.3L162,20.4L168,20.2L174,19.7L180,19.4L186,19.2L192,18.7L198,18.3L204,18.4L210,18.6L216,18.8L222,18.9L228,19.5L234,20.1L240,20.4L246,20.4L252,20.3L258,20.1L264,20L270,19.9L276,19.7L282,19.5L288,19.3L294,18.9L300,18.7L304.9,19.5"/><text class="st4"><tspan x="8" textLength="287" style="white-space:pre" y="12.65">进程正在从系统中撤销，系统回收进程资源、撤销PCB</tspan></text></g><g ed:height="41" transform="matrix(1,0,0,1,587.2,729.25)" id="241" ed:width="114.7968749999999" ed:parentid="240" ed:layout="rightmap"><path stroke="#ff0000" stroke-linejoin="round" stroke-width="2" fill="#ffffff" d="M10.3,0L16.3,0.4L22.3,0.3L28.3,0.2L34.3,0.2L40.3,-0L46.3,-0.3L52.3,-0.4L58.3,-0.1L64.3,0.2L70.3,0.3L76.3,0.1L82.3,-0.4L88.2,-0.6L94.3,-0.5L100.3,0.1L105.5,1.9L109.7,6.2L114.4,10.3L114.9,16.3L115.1,22.3L115,28.3L112.1,33.7L107.8,37.9L102.5,41.1L96.5,40.7L90.5,40.2L84.5,40.1L78.5,40.3L72.5,40.8L66.5,41.1L60.5,41.3L54.5,41.8L48.5,42.2L42.5,42.1L36.5,41.9L30.5,41.7L24.5,41.6L18.5,41L12.5,40.4L8.1,37.5L3.8,33.3L0.8,28.8L0.6,22.8L0.5,16.8L0.3,10.6L4.4,6.1L8.5,1.8L10.3,0z"/><text class="st6"><tspan x="17" textLength="72" style="white-space:pre" y="15.5">CPU、其他资</tspan><tspan x="17" textLength="72" style="white-space:pre" y="31.5">源均不可使用</tspan></text></g><g ed:height="25" transform="matrix(1,0,0,1,545.03,686.75)" id="243" ed:width="145.456875" ed:parentid="242" ed:layout="rightmap"><path stroke="#ff0000" stroke-linejoin="round" stroke-width="2" fill="#ffffff" d="M6.3,0L12.3,0.4L18.3,0.3L24.3,0.2L30.2,0.2L36.3,-0L42.3,-0.3L48.3,-0.4L54.3,-0.1L60.2,0.2L66.3,0.3L72.2,0.1L78.3,-0.4L84.3,-0.6L90.2,-0.5L96.2,0.1L102.3,0.6L108.3,0.7L114.3,0.4L120.2,-0.1L126.2,-0.3L132.3,-0.2L139.3,-0.1L143.5,4.1L145.5,10.3L145.1,16.3L142.1,21L137.2,24.1L131.2,24.3L125.2,24.8L119.2,25.1L113.2,25.3L107.2,25.8L101.2,26.2L95.2,26.1L89.2,25.9L83.2,25.7L77.2,25.6L71.2,25L65.2,24.4L59.2,24.1L53.2,24.1L47.2,24.2L41.2,24.4L35.2,24.5L29.2,24.6L23.2,24.8L17.2,25L11.2,25.2L4.4,24L-0.8,18.8L-0.8,12.8L-0.5,5.8L3.8,1.5L6.3,0z"/><text class="st6"><tspan x="11" textLength="120" style="white-space:pre" y="15.5">CPU、其他资源都可用</tspan></text></g><g ed:height="25" transform="matrix(1,0,0,1,637.59,646.5)" id="245" ed:width="97.16" ed:parentid="244" ed:layout="rightmap"><path stroke="#ff0000" stroke-linejoin="round" stroke-width="2" fill="#ffffff" d="M6.3,0L12.3,0.4L18.2,0.3L24.3,0.2L30.3,0.2L36.3,-0L42.3,-0.3L48.2,-0.4L54.2,-0.1L60.2,0.2L66.2,0.3L72.3,0.1L78.2,-0.4L84.2,-0.6L91.3,-0.3L95.1,4.3L96.5,10.3L96.4,16.3L94.1,21.3L88.9,25.1L82.9,25.3L76.9,25.2L70.9,25.2L64.9,25.1L58.9,25.1L52.9,24.7L46.9,24.2L40.9,24.1L34.9,24.3L28.9,24.8L22.9,25.1L16.9,25.3L10.9,25.8L4,24.4L-1.1,18.8L-0.9,12.8L-0.5,5.8L3.8,1.6L6.3,0z"/><text class="st6"><tspan x="11" textLength="72" style="white-space:pre" y="15.5">其他资源可用</tspan></text></g><g ed:height="103" transform="matrix(1,0,0,1,124,1127.5)" id="246" ed:width="55" ed:parentid="101"><path stroke="#92a7ff" stroke-linejoin="round" stroke-width="2" fill="#ffffff" d="M4,0L10,0.4L16,0.3L22,0.2L28,0.2L34,-0L40,-0.3L46,-0.4L52,0L54.8,5L54.7,11L54.9,17L55.4,23L55.6,29L55.5,35L54.9,41L54.4,47L54.3,53L54.6,59L55.1,65L55.3,71L55.2,77L55.2,83L55.1,89L55.1,95L53.9,101.6L48,102.2L42,102.1L36,102.3L30,102.8L24,103.1L18,103.3L12,103.8L6,104.2L-0.4,102L-0.9,95L-0.7,89L-0.6,83L-0,77L0.6,71L0.9,65L0.9,59L0.8,53L0.6,47L0.5,41L0.4,35L0.2,29L0,23L-0.2,17L-0.6,11L-0.8,5L2.3,-0.6L4,0z"/><text class="st5"><tspan x="18" textLength="16" style="white-space:pre" y="23.5">组</tspan><tspan x="18" textLength="16" style="white-space:pre" y="45.5">织</tspan><tspan x="18" textLength="16" style="white-space:pre" y="67.5">方</tspan><tspan x="18" textLength="16" style="white-space:pre" y="89.5">式</tspan></text></g><g ed:height="42" transform="matrix(1,0,0,1,206,1128)" id="248" ed:width="49" ed:parentid="246"><path stroke="#d25948" stroke-linejoin="round" fill="#ffffff" d="M0,0L6,0.4L12,0.3L18,0.2L24,0.2L30,-0L36,-0.3L42,-0.4L48,-0.1L48.8,5L48.7,11L48.9,17L49.4,23L49.6,29L49.5,35L48.9,41L44,41.4L38,41.3L32,41.6L26,42.1L20,42.3L14,42.2L8,42.2L2,42.1L-0.1,38L0.3,32L0.8,26L0.9,20L0.7,14L0.2,8L-0.1,2L0,0z"/><text class="st3"><tspan x="9" textLength="28" style="white-space:pre" y="15">链式</tspan><tspan x="9" textLength="28" style="white-space:pre" y="34">方式</tspan></text></g><g ed:height="42" transform="matrix(1,0,0,1,206,1188)" id="250" ed:width="49" ed:parentid="246"><path stroke="#d25948" stroke-linejoin="round" fill="#ffffff" d="M0,0L6,0.4L12,0.3L18,0.2L24,0.2L30,-0L36,-0.3L42,-0.4L48,-0.1L48.8,5L48.7,11L48.9,17L49.4,23L49.6,29L49.5,35L48.9,41L44,41.4L38,41.3L32,41.6L26,42.1L20,42.3L14,42.2L8,42.2L2,42.1L-0.1,38L0.3,32L0.8,26L0.9,20L0.7,14L0.2,8L-0.1,2L0,0z"/><text class="st3"><tspan x="9" textLength="28" style="white-space:pre" y="15">索引</tspan><tspan x="9" textLength="28" style="white-space:pre" y="34">方式</tspan></text></g><g ed:height="19.5" transform="matrix(1,0,0,1,282,1176.5)" id="252" ed:width="222" ed:parentid="250"><path fill="#ffffff" d="M0,0L6,0.4L12,0.3L18,0.2L24,0.2L30,-0L36,-0.3L42,-0.4L48,-0.1L54,0.2L60,0.3L66,0.1L72,-0.4L78,-0.6L84,-0.5L90,0.1L96,0.6L102,0.7L108,0.4L114,-0.1L120,-0.3L126,-0.2L132,-0.2L138,-0.1L144,-0.1L150,0.3L156,0.8L162,0.9L168,0.7L174,0.2L180,-0.1L186,-0.3L192,-0.8L198,-1.2L204,-1.1L210,-0.9L216,-0.7L222.6,0L222,6L221.4,12L221.1,18L217,18.6L211,18.7L205,18.9L199,19L193,19.1L187,19.3L181,19.5L175,19.7L169,20.1L163,20.3L157,20.3L151,20.2L145,20.2L139,20.1L133,19.6L127,19.3L121,19.3L115,19.8L109,20.3L103,20.5L97,20.4L91,20.1L85,20L79,20L73,20.2L67,20.4L61,20.4L55,20.2L49,19.9L43,19.9L37,19.7L31,19.3L25,19.2L19,19.2L13,19L7,18.7L1,18.6L0.7,14.5L0.6,8.5L0.5,2.5L0,0z"/><path stroke="#5274e1" stroke-linejoin="round" fill="none" d="M0,19.5L6,19.9L12,19.8L18,19.7L24,19.7L30,19.5L36,19.2L42,19.1L48,19.4L54,19.7L60,19.8L66,19.6L72,19.1L78,18.9L84,19L90,19.6L96,20.1L102,20.2L108,19.9L114,19.4L120,19.2L126,19.3L132,19.3L138,19.4L144,19.4L150,19.8L156,20.3L162,20.4L168,20.2L174,19.7L180,19.4L186,19.2L192,18.7L198,18.3L204,18.4L210,18.6L216,18.8L222,19.5"/><text class="st4"><tspan x="8" textLength="204" style="white-space:pre" y="12.65">根据进程状态的不同，建立几张索引表</tspan></text></g><g ed:height="19.5" transform="matrix(1,0,0,1,282,1202.5)" id="254" ed:width="210" ed:parentid="250"><path fill="#ffffff" d="M0,0L6,0.4L12,0.3L18,0.2L24,0.2L30,-0L36,-0.3L42,-0.4L48,-0.1L54,0.2L60,0.3L66,0.1L72,-0.4L78,-0.6L84,-0.5L90,0.1L96,0.6L102,0.7L108,0.4L114,-0.1L120,-0.3L126,-0.2L132,-0.2L138,-0.1L144,-0.1L150,0.3L156,0.8L162,0.9L168,0.7L174,0.2L180,-0.1L186,-0.3L192,-0.8L198,-1.2L204,-1.1L210.9,0L210.7,6L210.6,12L210,18L205,18.9L199,18.6L193,18.6L187,18.7L181,18.9L175,19L169,19.1L163,19.3L157,19.5L151,19.7L145,20.1L139,20.3L133,20.3L127,20.2L121,20.2L115,20.1L109,19.6L103,19.3L97,19.3L91,19.8L85,20.3L79,20.5L73,20.4L67,20.1L61,20L55,20L49,20.2L43,20.4L37,20.4L31,20.2L25,19.9L19,19.9L13,19.7L7,19.3L1,19.2L0.3,14.5L0.5,8.5L0.8,2.5L0,0z"/><path stroke="#5274e1" stroke-linejoin="round" fill="none" d="M0,19.5L6,19.9L12,19.8L18,19.7L24,19.7L30,19.5L36,19.2L42,19.1L48,19.4L54,19.7L60,19.8L66,19.6L72,19.1L78,18.9L84,19L90,19.6L96,20.1L102,20.2L108,19.9L114,19.4L120,19.2L126,19.3L132,19.3L138,19.4L144,19.4L150,19.8L156,20.3L162,20.4L168,20.2L174,19.7L180,19.4L186,19.2L192,18.7L198,18.3L204,18.4L210,19.5"/><text class="st4"><tspan x="8" textLength="192" style="white-space:pre" y="12.65">操作系统持有指向各个索引表的指针</tspan></text></g><g ed:height="19.5" transform="matrix(1,0,0,1,282,1116.5)" id="256" ed:width="196.859375" ed:parentid="248"><path fill="#ffffff" d="M0,0L6,0.4L12,0.3L18,0.2L24,0.2L30,-0L36,-0.3L42,-0.4L48,-0.1L54,0.2L60,0.3L66,0.1L72,-0.4L78,-0.6L84,-0.5L90,0.1L96,0.6L102,0.7L108,0.4L114,-0.1L120,-0.3L126,-0.2L132,-0.2L138,-0.1L144,-0.1L150,0.3L156,0.8L162,0.9L168,0.7L174,0.2L180,-0.1L186,-0.3L192,-0.8L198,2L198,8L197.8,14L195.9,20.2L189.9,20.1L183.9,19.5L177.9,18.9L171.9,18.6L165.9,18.6L159.9,18.7L153.9,18.9L147.9,19L141.9,19.1L135.9,19.3L129.9,19.5L123.9,19.7L117.9,20.1L111.9,20.3L105.9,20.3L99.9,20.2L93.9,20.2L87.9,20.1L81.9,19.6L75.9,19.3L69.9,19.3L63.9,19.8L57.9,20.3L51.9,20.5L45.9,20.4L39.9,20.1L33.9,20L27.9,20L21.9,20.2L15.9,20.4L9.9,20.4L3.9,20.2L-0.4,16.5L-0.4,10.5L-0.2,4.5L0,0z"/><path stroke="#5274e1" stroke-linejoin="round" fill="none" d="M0,19.5L6,19.9L12,19.8L18,19.7L24,19.7L30,19.5L36,19.2L42,19.1L48,19.4L54,19.7L60,19.8L66,19.6L72,19.1L78,18.9L84,19L90,19.6L96,20.1L102,20.2L108,19.9L114,19.4L120,19.2L126,19.3L132,19.3L138,19.4L144,19.4L150,19.8L156,20.3L162,20.4L168,20.2L174,19.7L180,19.4L186,19.2L192,18.7L196.9,19.5"/><text class="st4"><tspan x="8" textLength="179" style="white-space:pre" y="12.65">按照进程状态将PCB分为多个队列</tspan></text></g><g ed:height="19.5" transform="matrix(1,0,0,1,282,1142.5)" id="258" ed:width="198" ed:parentid="248"><path fill="#ffffff" d="M0,0L6,0.4L12,0.3L18,0.2L24,0.2L30,-0L36,-0.3L42,-0.4L48,-0.1L54,0.2L60,0.3L66,0.1L72,-0.4L78,-0.6L84,-0.5L90,0.1L96,0.6L102,0.7L108,0.4L114,-0.1L120,-0.3L126,-0.2L132,-0.2L138,-0.1L144,-0.1L150,0.3L156,0.8L162,0.9L168,0.7L174,0.2L180,-0.1L186,-0.3L192,-0.8L199.2,0L199.1,6L198.9,12L198.7,18L193,20.1L187,19.5L181,18.9L175,18.6L169,18.6L163,18.7L157,18.9L151,19L145,19.1L139,19.3L133,19.5L127,19.7L121,20.1L115,20.3L109,20.3L103,20.2L97,20.2L91,20.1L85,19.6L79,19.3L73,19.3L67,19.8L61,20.3L55,20.5L49,20.4L43,20.1L37,20L31,20L25,20.2L19,20.4L13,20.4L7,20.2L1,19.9L-0.4,14.5L-0.2,8.5L0.2,2.5L0,0z"/><path stroke="#5274e1" stroke-linejoin="round" fill="none" d="M0,19.5L6,19.9L12,19.8L18,19.7L24,19.7L30,19.5L36,19.2L42,19.1L48,19.4L54,19.7L60,19.8L66,19.6L72,19.1L78,18.9L84,19L90,19.6L96,20.1L102,20.2L108,19.9L114,19.4L120,19.2L126,19.3L132,19.3L138,19.4L144,19.4L150,19.8L156,20.3L162,20.4L168,20.2L174,19.7L180,19.4L186,19.2L192,18.7L198,19.5"/><text class="st4"><tspan x="8" textLength="180" style="white-space:pre" y="12.65">操作系统持有指向各个队列的指针</tspan></text></g><g ed:height="41" transform="matrix(1,0,0,1,751,950)" id="261" ed:width="102.805" ed:parentid="260" ed:layout="rightmap"><path stroke="#ff0000" stroke-linejoin="round" stroke-width="2" fill="#ffffff" d="M10.3,0L16.3,0.4L22.3,0.3L28.3,0.2L34.3,0.2L40.3,-0L46.3,-0.3L52.2,-0.4L58.2,-0.1L64.3,0.2L70.3,0.3L76.3,0.1L82.3,-0.4L88.3,-0.6L94.3,1.1L98.2,5.7L102.2,10.3L102.1,16.3L102.4,22.3L102.9,28.3L100.2,33.8L95.9,38L90.6,41.2L84.6,41.1L78.6,41.1L72.6,40.7L66.6,40.2L60.6,40.1L54.6,40.3L48.6,40.8L42.6,41.1L36.6,41.3L30.6,41.8L24.6,42.2L18.6,42.1L12.6,41.9L6.9,38.6L2.8,34.3L-0,28.8L0.6,22.8L0.9,16.8L0.6,10.9L4.8,6.6L8.9,2.2L10.3,0z"/><text class="st6"><tspan x="17" textLength="48" style="white-space:pre" y="15.5">进程控制</tspan><tspan x="17" textLength="66" style="white-space:pre" y="31.5">用'原语'实现</tspan></text></g></svg>