<svg xmlns="http://www.w3.org/2000/svg" xmlns:xlink="http://www.w3.org/1999/xlink" ed:hSpacing="30" height="627" xmlns:ev="http://www.w3.org/2001/xml-events" ed:vSpacing="30" ed:name="页面-1" id="page100" xmlns:ed="https://www.edrawsoft.cn/xml/2017/SVGExtensions/" viewBox="0 0 715 627" width="715"><style type="text/css"><![CDATA[
g[ed\:togtopicid],g[ed\:hyperlink],g[ed\:comment],g[ed\:note] {cursor:pointer;}
g[id] {-moz-user-select: none;-ms-user-select: none;user-select: none;}
svg text::selection,svg tspan::selection{background-color: #4285f4;color: #ffffff;fill: #ffffff;}
.st3 {fill:#01928f;font-family:Microsoft YaHei;font-size:10.5pt}
.st4 {fill:#303030;font-family:Microsoft YaHei;font-size:9pt}
.st2 {fill:#5274e1;font-family:Microsoft YaHei;font-size:12pt;font-weight:bold}
.st5 {fill:#ff0000;font-family:Microsoft YaHei;font-size:9pt}
.st1 {fill:#ffffff;font-family:Microsoft YaHei;font-size:15pt;font-weight:bold}
]]></style><defs/><rect height="627" fill="#ffffff" x="0" width="715" y="0"/><path ed:parentid="152,154,156,158,160" stroke-linejoin="round" ed:type="summary" ed:idlist="152,154,156,158,160" transform="matrix(1,0,0,1,599,476)" stroke-width="2" fill="none" d="M0.1,0C6,0,5.9,7.8,5.9,7.8L5.9,55.1C5.9,55.1,6.9,61.8,12,61.8C6.9,62,5.9,68.4,5.9,68.4L5.9,115.7C5.9,115.7,5.8,123.5,0,123.5" id="166" stroke="#f96628"/><path stroke-linecap="round" ed:parentid="101" stroke-linejoin="round" transform="matrix(1,0,0,1,83,229.5)" stroke-width="3" fill="none" d="M-22,106L9.5,106L9.5,-100C9.5,-103.3,12.2,-106,15.5,-106L41,-106" ed:tosuperid="102" id="103" stroke="#5274e1"/><path stroke-linecap="round" ed:parentid="101" stroke-linejoin="round" transform="matrix(1,0,0,1,83,342.13)" stroke-width="3" fill="none" d="M-22,-6.6L9.5,-6.6L9.5,0.6C9.5,3.9,12.2,6.6,15.5,6.6L41,6.6" ed:tosuperid="104" id="105" stroke="#5274e1"/><path stroke-linecap="round" ed:parentid="101" stroke-linejoin="round" transform="matrix(1,0,0,1,83,441.5)" stroke-width="3" fill="none" d="M-22,-106L9.5,-106L9.5,100C9.5,103.3,12.2,106,15.5,106L41,106" ed:tosuperid="106" id="107" stroke="#5274e1"/><path stroke-linecap="round" ed:parentid="102" stroke-linejoin="round" transform="matrix(1,0,0,1,192.5,125.5)" fill="none" d="M0,-2C0,0.2,2.7,2,6,2L13.5,2" ed:tosuperid="108" id="109" stroke="#5274e1"/><path stroke-linecap="round" ed:parentid="102" stroke-linejoin="round" transform="matrix(1,0,0,1,192.5,159.5)" fill="none" d="M0,-36L0,30C0,33.3,2.7,36,6,36L13.5,36" ed:tosuperid="110" id="111" stroke="#5274e1"/><path stroke-linecap="round" ed:parentid="110" stroke-linejoin="round" transform="matrix(1,0,0,1,338.5,189)" fill="none" d="M-13.5,6.5L0,6.5L0,-0.5C0,-3.8,2.7,-6.5,6,-6.5L13.5,-6.5" ed:tosuperid="112" id="113" stroke="#5274e1"/><path stroke-linecap="round" ed:parentid="110" stroke-linejoin="round" transform="matrix(1,0,0,1,338.5,202)" fill="none" d="M0,-6.5L0,0.5C0,3.8,2.7,6.5,6,6.5L13.5,6.5" ed:tosuperid="114" id="115" stroke="#5274e1"/><path stroke-linecap="round" ed:parentid="108" stroke-linejoin="round" transform="matrix(1,0,0,1,352.5,121)" fill="none" d="M-13.5,6.5L0,6.5L0,-0.5C0,-3.8,2.7,-6.5,6,-6.5L13.5,-6.5" ed:tosuperid="116" id="117" stroke="#5274e1"/><path stroke-linecap="round" ed:parentid="108" stroke-linejoin="round" transform="matrix(1,0,0,1,352.5,134)" fill="none" d="M0,-6.5L0,0.5C0,3.8,2.7,6.5,6,6.5L13.5,6.5" ed:tosuperid="118" id="119" stroke="#5274e1"/><path stroke-linecap="round" ed:parentid="128" stroke-linejoin="round" transform="matrix(1,0,0,1,254.5,277.25)" fill="none" d="M-13.5,16.3L0,16.3L0,-10.3C0,-13.6,2.7,-16.3,6,-16.3L13.5,-16.3" ed:tosuperid="120" id="121" stroke="#5274e1"/><path stroke-linecap="round" ed:parentid="102" stroke-linejoin="round" transform="matrix(1,0,0,1,192.5,87.5)" fill="none" d="M-13.5,36L0,36L0,-30C0,-33.3,2.7,-36,6,-36L13.5,-36" ed:tosuperid="122" id="123" stroke="#5274e1"/><path stroke-linecap="round" ed:parentid="122" stroke-linejoin="round" transform="matrix(1,0,0,1,254.5,45)" fill="none" d="M-13.5,6.5L0,6.5L0,-0.5C0,-3.8,2.7,-6.5,6,-6.5L13.5,-6.5" ed:tosuperid="124" id="125" stroke="#5274e1"/><path stroke-linecap="round" ed:parentid="122" stroke-linejoin="round" transform="matrix(1,0,0,1,254.5,58)" fill="none" d="M0,-6.5L0,0.5C0,3.8,2.7,6.5,6,6.5L13.5,6.5" ed:tosuperid="126" id="127" stroke="#5274e1"/><path stroke-linecap="round" ed:parentid="104" stroke-linejoin="round" transform="matrix(1,0,0,1,192.5,321.13)" fill="none" d="M-13.5,27.6L0,27.6L0,-21.6C0,-24.9,2.7,-27.6,6,-27.6L13.5,-27.6" ed:tosuperid="128" id="129" stroke="#5274e1"/><path stroke-linecap="round" ed:parentid="104" stroke-linejoin="round" transform="matrix(1,0,0,1,192.5,376.38)" fill="none" d="M0,-27.6L0,21.6C0,24.9,2.7,27.6,6,27.6L13.5,27.6" ed:tosuperid="130" id="131" stroke="#5274e1"/><path stroke-linecap="round" ed:parentid="130" stroke-linejoin="round" transform="matrix(1,0,0,1,254.5,391)" fill="none" d="M-13.5,13L0,13L0,-7C0,-10.3,2.7,-13,6,-13L13.5,-13" ed:tosuperid="132" id="133" stroke="#5274e1"/><path stroke-linecap="round" ed:parentid="132" stroke-linejoin="round" transform="matrix(1,0,0,1,347.5,371.5)" fill="none" d="M-13.5,6.5L0,6.5L0,-0.5C0,-3.8,2.7,-6.5,6,-6.5L13.5,-6.5" ed:tosuperid="134" id="135" stroke="#5274e1"/><path stroke-linecap="round" ed:parentid="130" stroke-linejoin="round" transform="matrix(1,0,0,1,254.5,417)" fill="none" d="M0,-13L0,7C0,10.3,2.7,13,6,13L13.5,13" ed:tosuperid="138" id="139" stroke="#5274e1"/><path stroke-linecap="round" ed:parentid="138" stroke-linejoin="round" transform="matrix(1,0,0,1,379.5,436.5)" fill="none" d="M0,-6.5L0,0.5C0,3.8,2.7,6.5,6,6.5L13.5,6.5" ed:tosuperid="140" id="141" stroke="#5274e1"/><path stroke-linecap="round" ed:parentid="138" stroke-linejoin="round" transform="matrix(1,0,0,1,379.5,423.5)" fill="none" d="M-13.5,6.5L0,6.5L0,-0.5C0,-3.8,2.7,-6.5,6,-6.5L13.5,-6.5" ed:tosuperid="142" id="143" stroke="#5274e1"/><path stroke-linecap="round" ed:parentid="132" stroke-linejoin="round" transform="matrix(1,0,0,1,347.5,384.5)" fill="none" d="M0,-6.5L0,0.5C0,3.8,2.7,6.5,6,6.5L13.5,6.5" ed:tosuperid="144" id="145" stroke="#5274e1"/><path stroke-linecap="round" ed:parentid="128" stroke-linejoin="round" transform="matrix(1,0,0,1,254.5,290.25)" fill="none" d="M0,3.3C0,-0.6,2.7,-3.3,6,-3.3L13.5,-3.3" ed:tosuperid="146" id="147" stroke="#5274e1"/><path stroke-linecap="round" ed:parentid="128" stroke-linejoin="round" transform="matrix(1,0,0,1,254.5,309.75)" fill="none" d="M0,-16.3L0,10.3C0,13.6,2.7,16.3,6,16.3L13.5,16.3" ed:tosuperid="148" id="149" stroke="#5274e1"/><path stroke-linecap="round" ed:parentid="106" stroke-linejoin="round" transform="matrix(1,0,0,1,192.5,547.5)" fill="none" d="M-13.5,0L0,0C0,0,2.7,0,6,0L13.5,0" ed:tosuperid="150" id="151" stroke="#5274e1"/><path stroke-linecap="round" ed:parentid="150" stroke-linejoin="round" transform="matrix(1,0,0,1,254.5,521.5)" fill="none" d="M-13.5,26L0,26L0,-20C0,-23.3,2.7,-26,6,-26L13.5,-26" ed:tosuperid="152" id="153" stroke="#5274e1"/><path stroke-linecap="round" ed:parentid="150" stroke-linejoin="round" transform="matrix(1,0,0,1,254.5,534.5)" fill="none" d="M0,13L0,-7C0,-10.3,2.7,-13,6,-13L13.5,-13" ed:tosuperid="154" id="155" stroke="#5274e1"/><path stroke-linecap="round" ed:parentid="150" stroke-linejoin="round" transform="matrix(1,0,0,1,254.5,547.5)" fill="none" d="M0,0C0,0,2.7,0,6,0L13.5,0" ed:tosuperid="156" id="157" stroke="#5274e1"/><path stroke-linecap="round" ed:parentid="150" stroke-linejoin="round" transform="matrix(1,0,0,1,254.5,560.5)" fill="none" d="M0,-13L0,7C0,10.3,2.7,13,6,13L13.5,13" ed:tosuperid="158" id="159" stroke="#5274e1"/><path stroke-linecap="round" ed:parentid="150" stroke-linejoin="round" transform="matrix(1,0,0,1,254.5,573.5)" fill="none" d="M0,-26L0,20C0,23.3,2.7,26,6,26L13.5,26" ed:tosuperid="160" id="161" stroke="#5274e1"/><path stroke-linecap="round" ed:parentid="148" stroke-linejoin="round" transform="matrix(1,0,0,1,471.06,319.5)" fill="none" d="M-13.5,6.5L0,6.5L0,-0.5C0,-3.8,2.7,-6.5,6,-6.5L13.5,-6.5" ed:tosuperid="162" id="163" stroke="#5274e1"/><path stroke-linecap="round" ed:parentid="148" stroke-linejoin="round" transform="matrix(1,0,0,1,471.06,332.5)" fill="none" d="M0,-6.5L0,0.5C0,3.8,2.7,6.5,6,6.5L13.5,6.5" ed:tosuperid="164" id="165" stroke="#5274e1"/><g ed:height="120" ed:layout="rightmap" transform="matrix(1,0,0,1,23,275.5)" ed:topictype="mainidea" ed:width="38" id="101"><path stroke-linejoin="round" fill="#00b050" stroke-width="3" d="M4,0L34,0C36.7,0,38,1.3,38,4L38,116C38,118.7,36.7,120,34,120L4,120C1.3,120,0,118.7,0,116L0,4C0,1.3,1.3,0,4,0z" stroke="#5274e1"/><text class="st1"><tspan style="white-space:pre" textLength="20" x="9" y="26">进</tspan><tspan style="white-space:pre" textLength="20" x="9" y="53">程</tspan><tspan style="white-space:pre" textLength="20" x="9" y="80">通</tspan><tspan style="white-space:pre" textLength="20" x="9" y="107">信</tspan></text></g><g ed:parentid="101" ed:height="103" transform="matrix(1,0,0,1,124,72)" ed:width="55" id="102"><path stroke-linejoin="round" fill="#ffffff" stroke-width="2" d="M4,0L51,0C53.7,0,55,1.3,55,4L55,99C55,101.7,53.7,103,51,103L4,103C1.3,103,0,101.7,0,99L0,4C0,1.3,1.3,0,4,0z" stroke="#92a7ff"/><text class="st2"><tspan style="white-space:pre" textLength="16" x="18" y="23.5">共</tspan><tspan style="white-space:pre" textLength="16" x="18" y="45.5">享</tspan><tspan style="white-space:pre" textLength="16" x="18" y="67.5">存</tspan><tspan style="white-space:pre" textLength="16" x="18" y="89.5">储</tspan></text></g><g ed:parentid="101" ed:height="103" transform="matrix(1,0,0,1,124,297.25)" ed:width="55" id="104"><path stroke-linejoin="round" fill="#ffffff" stroke-width="2" d="M4,0L51,0C53.7,0,55,1.3,55,4L55,99C55,101.7,53.7,103,51,103L4,103C1.3,103,0,101.7,0,99L0,4C0,1.3,1.3,0,4,0z" stroke="#92a7ff"/><text class="st2"><tspan style="white-space:pre" textLength="16" x="18" y="23.5">消</tspan><tspan style="white-space:pre" textLength="16" x="18" y="45.5">息</tspan><tspan style="white-space:pre" textLength="16" x="18" y="67.5">传</tspan><tspan style="white-space:pre" textLength="16" x="18" y="89.5">递</tspan></text></g><g ed:parentid="101" ed:height="103" transform="matrix(1,0,0,1,124,496)" ed:width="55" id="106"><path stroke-linejoin="round" fill="#ffffff" stroke-width="2" d="M4,0L51,0C53.7,0,55,1.3,55,4L55,99C55,101.7,53.7,103,51,103L4,103C1.3,103,0,101.7,0,99L0,4C0,1.3,1.3,0,4,0z" stroke="#92a7ff"/><text class="st2"><tspan style="white-space:pre" textLength="16" x="18" y="23.5">管</tspan><tspan style="white-space:pre" textLength="16" x="18" y="45.5">道</tspan><tspan style="white-space:pre" textLength="16" x="18" y="67.5">通</tspan><tspan style="white-space:pre" textLength="16" x="18" y="89.5">信</tspan></text></g><g ed:parentid="102" ed:height="23" transform="matrix(1,0,0,1,206,116)" ed:width="133" id="108"><path stroke-linejoin="round" fill="#ffffff" d="M0,0L133,0L133,23L0,23L0,0z" stroke="#d25948"/><text class="st3"><tspan style="white-space:pre" textLength="112" x="9" y="15">基于数据结构共享</tspan></text></g><g ed:parentid="102" ed:height="23" transform="matrix(1,0,0,1,206,184)" ed:width="119" id="110"><path stroke-linejoin="round" fill="#ffffff" d="M0,0L119,0L119,23L0,23L0,0z" stroke="#d25948"/><text class="st3"><tspan style="white-space:pre" textLength="98" x="9" y="15">基于存储区共享</tspan></text></g><g ed:parentid="110" ed:height="35.5" transform="matrix(1,0,0,1,352,147)" ed:width="308" id="112"><path fill="#ffffff" d="M0,0L308,0L308,35.5L0,35.5L0,0z"/><path stroke-linejoin="round" fill="none" d="M0,35.5L308,35.5" stroke="#5274e1"/><text class="st4"><tspan style="white-space:pre" textLength="288" x="8" y="12.65">操作系统在内存中划出一块共享存储区，数据的形式、</tspan><tspan style="white-space:pre" textLength="264" x="8" y="28.65">存放位置都由通信进程控制，而不是操作系统控制</tspan></text></g><g ed:parentid="110" ed:height="19.5" transform="matrix(1,0,0,1,352,189)" ed:width="234" id="114"><path fill="#ffffff" d="M0,0L234,0L234,19.5L0,19.5L0,0z"/><path stroke-linejoin="round" fill="none" d="M0,19.5L234,19.5" stroke="#5274e1"/><text class="st4"><tspan style="white-space:pre" textLength="216" x="8" y="12.65">一种高级通信方式，速度快，灵活性高。</tspan></text></g><g ed:parentid="108" ed:height="35.5" transform="matrix(1,0,0,1,366,79)" ed:width="268" id="116"><path fill="#ffffff" d="M0,0L268,0L268,35.5L0,35.5L0,0z"/><path stroke-linejoin="round" fill="none" d="M0,35.5L268,35.5" stroke="#5274e1"/><text class="st4"><tspan style="white-space:pre" textLength="252" x="8" y="12.65">在共享空间李只能存放固定数据结构的数据，比</tspan><tspan style="white-space:pre" textLength="118" x="8" y="28.65">如长度为N的数组等。</tspan></text></g><g ed:parentid="108" ed:height="19.5" transform="matrix(1,0,0,1,366,121)" ed:width="222" id="118"><path fill="#ffffff" d="M0,0L222,0L222,19.5L0,19.5L0,0z"/><path stroke-linejoin="round" fill="none" d="M0,19.5L222,19.5" stroke="#5274e1"/><text class="st4"><tspan style="white-space:pre" textLength="204" x="8" y="12.65">速度慢，限制多，一种低级通信方式。</tspan></text></g><g ed:parentid="128" ed:height="19.5" transform="matrix(1,0,0,1,268,241.5)" ed:width="246" id="120"><path fill="#ffffff" d="M0,0L246,0L246,19.5L0,19.5L0,0z"/><path stroke-linejoin="round" fill="none" d="M0,19.5L246,19.5" stroke="#5274e1"/><text class="st4"><tspan style="white-space:pre" textLength="228" x="8" y="12.65">进程间的数据交换以格式化的消息为单位。</tspan></text></g><g ed:parentid="102" ed:height="42" transform="matrix(1,0,0,1,206,30.5)" ed:width="35" id="122"><path stroke-linejoin="round" fill="#ffffff" d="M0,0L35,0L35,42L0,42L0,0z" stroke="#d25948"/><text class="st3"><tspan style="white-space:pre" textLength="14" x="9" y="15">实</tspan><tspan style="white-space:pre" textLength="14" x="9" y="34">现</tspan></text></g><g ed:parentid="122" ed:height="19.5" transform="matrix(1,0,0,1,268,19)" ed:width="378" id="124"><path fill="#ffffff" d="M0,0L378,0L378,19.5L0,19.5L0,0z"/><path stroke-linejoin="round" fill="none" d="M0,19.5L378,19.5" stroke="#5274e1"/><text class="st4"><tspan style="white-space:pre" textLength="360" x="8" y="12.65">操作系统在内存中设置一个共享区域，并映射到进程的虚拟地址空间</tspan></text></g><g ed:parentid="122" ed:height="19.5" transform="matrix(1,0,0,1,268,45)" ed:width="314" id="126"><path fill="#ffffff" d="M0,0L314,0L314,19.5L0,19.5L0,0z"/><path stroke-linejoin="round" fill="none" d="M0,19.5L314,19.5" stroke="#5274e1"/><text class="st4"><tspan style="white-space:pre" textLength="296" x="8" y="12.65">对共享内存空间进行互斥访问(由通信进程自己负责实现)</tspan></text></g><g ed:parentid="104" ed:height="42" transform="matrix(1,0,0,1,206,272.5)" ed:width="35" id="128"><path stroke-linejoin="round" fill="#ffffff" d="M0,0L35,0L35,42L0,42L0,0z" stroke="#d25948"/><text class="st3"><tspan style="white-space:pre" textLength="14" x="9" y="15">实</tspan><tspan style="white-space:pre" textLength="14" x="9" y="34">现</tspan></text></g><g ed:parentid="104" ed:height="42" transform="matrix(1,0,0,1,206,383)" ed:width="35" id="130"><path stroke-linejoin="round" fill="#ffffff" d="M0,0L35,0L35,42L0,42L0,0z" stroke="#d25948"/><text class="st3"><tspan style="white-space:pre" textLength="14" x="9" y="15">方</tspan><tspan style="white-space:pre" textLength="14" x="9" y="34">式</tspan></text></g><g ed:parentid="130" ed:height="19.5" transform="matrix(1,0,0,1,268,358.5)" ed:width="66" id="132"><path fill="#ffffff" d="M0,0L66,0L66,19.5L0,19.5L0,0z"/><path stroke-linejoin="round" fill="none" d="M0,19.5L66,19.5" stroke="#5274e1"/><text class="st4"><tspan style="white-space:pre" textLength="48" x="8" y="12.65">直接通信</tspan></text></g><g ed:parentid="132" ed:height="19.5" transform="matrix(1,0,0,1,361,345.5)" ed:width="198" id="134"><path fill="#ffffff" d="M0,0L198,0L198,19.5L0,19.5L0,0z"/><path stroke-linejoin="round" fill="none" d="M0,19.5L198,19.5" stroke="#5274e1"/><text class="st4"><tspan style="white-space:pre" textLength="180" x="8" y="12.65">消息直接挂到接受进程的消息队列</tspan></text></g><g ed:parentid="130" ed:height="19.5" transform="matrix(1,0,0,1,268,410.5)" ed:width="98" id="138"><path fill="#ffffff" d="M0,0L98,0L98,19.5L0,19.5L0,0z"/><path stroke-linejoin="round" fill="none" d="M0,19.5L98,19.5" stroke="#5274e1"/><text class="st4"><tspan style="white-space:pre" textLength="80" x="8" y="12.65">间接(邮箱)通信</tspan></text></g><g ed:parentid="138" ed:height="19.5" transform="matrix(1,0,0,1,393,423.5)" ed:width="134" id="140"><path fill="#ffffff" d="M0,0L134,0L134,19.5L0,19.5L0,0z"/><path stroke-linejoin="round" fill="none" d="M0,19.5L134,19.5" stroke="#5274e1"/><text class="st4"><tspan style="white-space:pre" textLength="116" x="8" y="12.65">消息发到中间体(信箱)</tspan></text></g><g ed:parentid="138" ed:height="19.5" transform="matrix(1,0,0,1,393,397.5)" ed:width="150" id="142"><path fill="#ffffff" d="M0,0L150,0L150,19.5L0,19.5L0,0z"/><path stroke-linejoin="round" fill="none" d="M0,19.5L150,19.5" stroke="#5274e1"/><text class="st4"><tspan style="white-space:pre" textLength="132" x="8" y="12.65">每个进程都有自己的信箱</tspan></text></g><g ed:parentid="132" ed:height="19.5" transform="matrix(1,0,0,1,361,371.5)" ed:width="145.984375" id="144"><path fill="#ffffff" d="M0,0L146,0L146,19.5L0,19.5L0,0z"/><path stroke-linejoin="round" fill="none" d="M0,19.5L146,19.5" stroke="#5274e1"/><text class="st4"><tspan style="white-space:pre" textLength="128" x="8" y="12.65">指明接受进程PID等信息</tspan></text></g><g ed:parentid="128" ed:height="19.5" transform="matrix(1,0,0,1,268,267.5)" ed:width="309.96875" id="146"><path fill="#ffffff" d="M0,0L310,0L310,19.5L0,19.5L0,0z"/><path stroke-linejoin="round" fill="none" d="M0,19.5L310,19.5" stroke="#5274e1"/><text class="st4"><tspan style="white-space:pre" textLength="292" x="8" y="12.65">格式一般为：接收进程PID、发送进程PID、消息内容等</tspan></text></g><g ed:parentid="128" ed:height="19.5" transform="matrix(1,0,0,1,268,306.5)" ed:width="189.5625" id="148"><path fill="#ffffff" d="M0,0L189.6,0L189.6,19.5L0,19.5L0,0z"/><path stroke-linejoin="round" fill="none" d="M0,19.5L189.6,19.5" stroke="#5274e1"/><text class="st4"><tspan style="white-space:pre" textLength="172" x="8" y="12.65">使用系统提供的"发送/接受原语"</tspan></text></g><g ed:parentid="106" ed:height="42" transform="matrix(1,0,0,1,206,526.5)" ed:width="35" id="150"><path stroke-linejoin="round" fill="#ffffff" d="M0,0L35,0L35,42L0,42L0,0z" stroke="#d25948"/><text class="st3"><tspan style="white-space:pre" textLength="14" x="9" y="15">实</tspan><tspan style="white-space:pre" textLength="14" x="9" y="34">现</tspan></text></g><g ed:parentid="150" ed:height="19.5" transform="matrix(1,0,0,1,268,476)" ed:width="326" id="152"><path fill="#ffffff" d="M0,0L326,0L326,19.5L0,19.5L0,0z"/><path stroke-linejoin="round" fill="none" d="M0,19.5L326,19.5" stroke="#5274e1"/><text class="st4"><tspan style="white-space:pre" textLength="308" x="8" y="12.65">设置一个特殊的共享文件(管道)，其实就是一个内存缓冲区</tspan></text></g><g ed:parentid="150" ed:height="19.5" transform="matrix(1,0,0,1,268,502)" ed:width="296.03125" id="154"><path fill="#ffffff" d="M0,0L296,0L296,19.5L0,19.5L0,0z"/><path stroke-linejoin="round" fill="none" d="M0,19.5L296,19.5" stroke="#5274e1"/><text class="st4"><tspan style="white-space:pre" textLength="278" x="8" y="12.65">一个管道只能实现半双工通信，即单向通信，且FIFO</tspan></text></g><g ed:parentid="150" ed:height="19.5" transform="matrix(1,0,0,1,268,528)" ed:width="205.03125" id="156"><path fill="#ffffff" d="M0,0L205,0L205,19.5L0,19.5L0,0z"/><path stroke-linejoin="round" fill="none" d="M0,19.5L205,19.5" stroke="#5274e1"/><text class="st4"><tspan style="white-space:pre" textLength="187" x="8" y="12.65">实现全双工通信，需要建立2个管道</tspan></text></g><g ed:parentid="150" ed:height="19.5" transform="matrix(1,0,0,1,268,554)" ed:width="282" id="158"><path fill="#ffffff" d="M0,0L282,0L282,19.5L0,19.5L0,0z"/><path stroke-linejoin="round" fill="none" d="M0,19.5L282,19.5" stroke="#5274e1"/><text class="st4"><tspan style="white-space:pre" textLength="264" x="8" y="12.65">各进程要互斥访问管道，由操作系统负责实现互斥</tspan></text></g><g ed:parentid="150" ed:height="19.5" transform="matrix(1,0,0,1,268,580)" ed:width="270" id="160"><path fill="#ffffff" d="M0,0L270,0L270,19.5L0,19.5L0,0z"/><path stroke-linejoin="round" fill="none" d="M0,19.5L270,19.5" stroke="#5274e1"/><text class="st4"><tspan style="white-space:pre" textLength="252" x="8" y="12.65">管道满时，写进程阻塞；管道空时，读进程阻塞</tspan></text></g><g ed:parentid="148" ed:height="19.5" transform="matrix(1,0,0,1,484.56,293.5)" ed:width="53.40625" id="162"><path fill="#ffffff" d="M0,0L53.4,0L53.4,19.5L0,19.5L0,0z"/><path stroke-linejoin="round" fill="none" d="M0,19.5L53.4,19.5" stroke="#5274e1"/><text class="st4"><tspan style="white-space:pre" textLength="35" x="8" y="12.65">send()</tspan></text></g><g ed:parentid="148" ed:height="19.5" transform="matrix(1,0,0,1,484.56,319.5)" ed:width="66.46875" id="164"><path fill="#ffffff" d="M0,0L66.5,0L66.5,19.5L0,19.5L0,0z"/><path stroke-linejoin="round" fill="none" d="M0,19.5L66.5,19.5" stroke="#5274e1"/><text class="st4"><tspan style="white-space:pre" textLength="48" x="8" y="12.65">receive()</tspan></text></g><g ed:parentid="166" ed:height="41" ed:layout="rightmap" transform="matrix(1,0,0,1,620,517.25)" ed:width="73.18000000000001" id="167"><path stroke-linejoin="round" fill="#ffffff" stroke-width="2" d="M10.3,0L62.9,0L73.2,10.3L73.2,30.8L62.9,41L10.3,41L0,30.8L0,10.3L10.3,0z" stroke="#ff0000"/><text class="st5"><tspan style="white-space:pre" textLength="37" x="17" y="15.5">write()</tspan><tspan style="white-space:pre" textLength="34" x="17" y="31.5">read()</tspan></text></g></svg>