<svg ed:hSpacing="30" xmlns:xlink="http://www.w3.org/1999/xlink" xmlns:ed="https://www.edrawsoft.cn/xml/2017/SVGExtensions/" width="673" xmlns="http://www.w3.org/2000/svg" ed:vSpacing="30" ed:name="页面-1" xmlns:ev="http://www.w3.org/2001/xml-events" height="331" viewBox="0 0 673 331" id="page100"><style type="text/css"><![CDATA[
g[ed\:togtopicid],g[ed\:hyperlink],g[ed\:comment],g[ed\:note] {cursor:pointer;}
g[id] {-moz-user-select: none;-ms-user-select: none;user-select: none;}
svg text::selection,svg tspan::selection{background-color: #4285f4;color: #ffffff;fill: #ffffff;}
.st5 {fill:#303030;font-family:Microsoft YaHei;font-size:14.25pt;font-weight:bold}
.st6 {fill:#303030;font-family:Microsoft YaHei;font-size:9.75pt}
.st4 {fill:#ffffff;font-family:Microsoft YaHei;font-size:18pt;font-weight:bold}
]]></style><defs/><rect width="673" height="331" fill="#ffffff" x="0" y="0"/><path stroke-linecap="round" transform="matrix(1,0,0,1,165.08,112.38)" stroke="#454545" ed:parentid="101" stroke-width="3" stroke-linejoin="round" d="M5.4,57.9L36.9,57.9L36.9,-51.9C36.9,-55.2,39.5,-57.9,42.9,-57.9L68.4,-57.9" fill="none" id="103" ed:tosuperid="102"/><path stroke-linecap="round" transform="matrix(1,0,0,1,165.08,228.13)" stroke="#454545" ed:parentid="101" stroke-width="3" stroke-linejoin="round" d="M5.4,-57.9L36.9,-57.9L36.9,51.9C36.9,55.2,39.5,57.9,42.9,57.9L68.4,57.9" fill="none" id="105" ed:tosuperid="104"/><path stroke-linecap="round" transform="matrix(1,0,0,1,165.08,170.88)" stroke="#454545" ed:parentid="101" stroke-width="3" stroke-linejoin="round" d="M5.4,-0.6L36.9,-0.6C36.9,0.1,39.5,0.6,42.9,0.6L68.4,0.6" fill="none" id="111" ed:tosuperid="110"/><path stroke-linecap="round" transform="matrix(1,0,0,1,361.94,47.5)" stroke="#454545" ed:parentid="102" stroke-linejoin="round" d="M-13.5,7L0,7L0,-1C0,-4.3,2.7,-7,6,-7L13.5,-7" fill="none" id="113" ed:tosuperid="112"/><path stroke-linecap="round" transform="matrix(1,0,0,1,361.94,61.5)" stroke="#454545" ed:parentid="102" stroke-linejoin="round" d="M0,-7L0,1C0,4.3,2.7,7,6,7L13.5,7" fill="none" id="115" ed:tosuperid="114"/><path stroke-linecap="round" transform="matrix(1,0,0,1,376.72,150.5)" stroke="#454545" ed:parentid="110" stroke-linejoin="round" d="M-13.5,21L0,21L0,-15C0,-18.3,2.7,-21,6,-21L13.5,-21" fill="none" id="118" ed:tosuperid="117"/><path stroke-linecap="round" transform="matrix(1,0,0,1,376.72,164.5)" stroke="#454545" ed:parentid="110" stroke-linejoin="round" d="M0,7L0,-1C0,-4.3,2.7,-7,6,-7L13.5,-7" fill="none" id="120" ed:tosuperid="119"/><path stroke-linecap="round" transform="matrix(1,0,0,1,376.72,178.5)" stroke="#454545" ed:parentid="110" stroke-linejoin="round" d="M0,-7L0,1C0,4.3,2.7,7,6,7L13.5,7" fill="none" id="122" ed:tosuperid="121"/><path stroke-linecap="round" transform="matrix(1,0,0,1,376.72,192.5)" stroke="#454545" ed:parentid="110" stroke-linejoin="round" d="M0,-21L0,15C0,18.3,2.7,21,6,21L13.5,21" fill="none" id="124" ed:tosuperid="123"/><path stroke-linecap="round" transform="matrix(1,0,0,1,389.04,286)" stroke="#454545" ed:parentid="104" stroke-linejoin="round" d="M-21.6,0L-10.6,0C5.7,0,5.7,0,21.6,0" fill="none" id="126" ed:tosuperid="125"/><g ed:height="76" transform="matrix(1,0,0,1,23,132.25)" ed:layout="rightmap" ed:topictype="mainidea" ed:width="147.44" id="101"><path stroke="#00af54" stroke-width="3" d="M38,0L109.4,0C130.4,0,147.4,17,147.4,38C147.4,59,130.4,76,109.4,76L38,76C17,76,0,59,0,38C0,17,17,0,38,0z" stroke-linejoin="round" fill="#00af54"/><text class="st4"><tspan textLength="96" style="white-space:pre" x="26" y="30">数据结构</tspan><tspan textLength="90" style="white-space:pre" x="29" y="62">(三要素)</tspan></text></g><g ed:height="41" transform="matrix(1,0,0,1,233.44,34)" ed:parentid="101" ed:width="115" id="102"><path stroke="#454545" stroke-width="2" d="M4,0L111,0C113.7,0,115,1.3,115,4L115,37C115,39.7,113.7,41,111,41L4,41C1.3,41,0,39.7,0,37L0,4C0,1.3,1.3,0,4,0z" stroke-linejoin="round" fill="#ffffff"/><text class="st5"><tspan textLength="76" style="white-space:pre" x="18" y="26.5">逻辑结构</tspan></text></g><g ed:height="41" transform="matrix(1,0,0,1,233.44,265.5)" ed:parentid="101" ed:width="134" id="104"><path stroke="#454545" stroke-width="2" d="M4,0L130,0C132.7,0,134,1.3,134,4L134,37C134,39.7,132.7,41,130,41L4,41C1.3,41,0,39.7,0,37L0,4C0,1.3,1.3,0,4,0z" stroke-linejoin="round" fill="#ffffff"/><text class="st5"><tspan textLength="95" style="white-space:pre" x="18" y="26.5">数据的运算</tspan></text></g><g ed:height="67" transform="matrix(1,0,0,1,233.44,138)" ed:parentid="101" ed:width="129.781" id="110"><path stroke="#454545" stroke-width="2" d="M4,0L125.8,0C128.5,0,129.8,1.3,129.8,4L129.8,63C129.8,65.7,128.5,67,125.8,67L4,67C1.3,67,0,65.7,0,63L0,4C0,1.3,1.3,0,4,0z" stroke-linejoin="round" fill="#ffffff"/><text class="st5"><tspan textLength="76" style="white-space:pre" x="18" y="26.5">存储结构</tspan><tspan textLength="91" style="white-space:pre" x="18" y="52.5">(物理结构)</tspan></text></g><g ed:height="21.5" transform="matrix(1,0,0,1,375.44,19)" ed:parentid="102" ed:width="187" id="112"><path d="M0,0L187,0L187,21.5L0,21.5L0,0z" fill="#ffffff"/><path stroke="#454545" stroke-linejoin="round" d="M0,21.5L187,21.5" fill="none"/><text class="st6"><tspan textLength="169" style="white-space:pre" x="8" y="14.65">线性结构：线性变、栈、队列</tspan></text></g><g ed:height="21.5" transform="matrix(1,0,0,1,375.44,47)" ed:parentid="102" ed:width="174" id="114"><path d="M0,0L174,0L174,21.5L0,21.5L0,0z" fill="#ffffff"/><path stroke="#454545" stroke-linejoin="round" d="M0,21.5L174,21.5" fill="none"/><text class="st6"><tspan textLength="156" style="white-space:pre" x="8" y="14.65">非线性结构：树、图、集合</tspan></text></g><g ed:height="21.5" transform="matrix(1,0,0,1,390.22,108)" ed:parentid="110" ed:width="70" id="117"><path d="M0,0L70,0L70,21.5L0,21.5L0,0z" fill="#ffffff"/><path stroke="#454545" stroke-linejoin="round" d="M0,21.5L70,21.5" fill="none"/><text class="st6"><tspan textLength="52" style="white-space:pre" x="8" y="14.65">顺序存储</tspan></text></g><g ed:height="21.5" transform="matrix(1,0,0,1,390.22,136)" ed:parentid="110" ed:width="70" id="119"><path d="M0,0L70,0L70,21.5L0,21.5L0,0z" fill="#ffffff"/><path stroke="#454545" stroke-linejoin="round" d="M0,21.5L70,21.5" fill="none"/><text class="st6"><tspan textLength="52" style="white-space:pre" x="8" y="14.65">链式存储</tspan></text></g><g ed:height="21.5" transform="matrix(1,0,0,1,390.22,164)" ed:parentid="110" ed:width="70" id="121"><path d="M0,0L70,0L70,21.5L0,21.5L0,0z" fill="#ffffff"/><path stroke="#454545" stroke-linejoin="round" d="M0,21.5L70,21.5" fill="none"/><text class="st6"><tspan textLength="52" style="white-space:pre" x="8" y="14.65">索引存储</tspan></text></g><g ed:height="21.5" transform="matrix(1,0,0,1,390.22,192)" ed:parentid="110" ed:width="70" id="123"><path d="M0,0L70,0L70,21.5L0,21.5L0,0z" fill="#ffffff"/><path stroke="#454545" stroke-linejoin="round" d="M0,21.5L70,21.5" fill="none"/><text class="st6"><tspan textLength="52" style="white-space:pre" x="8" y="14.65">散列存储</tspan></text></g><g ed:height="39.5" transform="matrix(1,0,0,1,410.64,246.5)" ed:parentid="104" ed:width="241.375" id="125"><path d="M0,0L241.4,0L241.4,39.5L0,39.5L0,0z" fill="#ffffff"/><path stroke="#454545" stroke-linejoin="round" d="M0,39.5L241.4,39.5" fill="none"/><text class="st6"><tspan textLength="78" style="white-space:pre" x="8" y="14.65">常用运算有：</tspan><tspan textLength="223" style="white-space:pre" x="8" y="32.65">    检索、插入、删除、更新、排序等。</tspan></text></g></svg>